<svg width="26" height="13" viewBox="0 0 26 13" fill="none" xmlns="http://www.w3.org/2000/svg">
<path d="M7.99469 9.50103H7.37376C7.20154 9.50103 7.06104 9.36443 7.06104 9.19699C7.06104 9.02954 7.20154 8.89294 7.37376 8.89294H7.99469C8.16691 8.89294 8.30742 9.02954 8.30742 9.19699C8.30742 9.36443 8.16691 9.50103 7.99469 9.50103Z" fill="#263238"/>
<path d="M6.24527 9.50103H5.4929C5.32068 9.50103 5.18018 9.36443 5.18018 9.19699C5.18018 9.02954 5.32068 8.89294 5.4929 8.89294H6.24527C6.41749 8.89294 6.55799 9.02954 6.55799 9.19699C6.55799 9.36443 6.41749 9.50103 6.24527 9.50103Z" fill="#263238"/>
<path d="M4.35908 9.50103H3.73363C3.5614 9.50103 3.4209 9.36443 3.4209 9.19699C3.4209 9.02954 3.5614 8.89294 3.73363 8.89294H4.35455C4.52678 8.89294 4.66728 9.02954 4.66728 9.19699C4.66728 9.36443 4.52678 9.50103 4.35455 9.50103H4.35908Z" fill="#263238"/>
<path d="M4.5733 4.02495H3.95238C3.78015 4.02495 3.63965 3.88835 3.63965 3.72091C3.63965 3.55347 3.78015 3.41687 3.95238 3.41687H4.5733C4.74553 3.41687 4.88603 3.55347 4.88603 3.72091C4.88603 3.88835 4.74553 4.02495 4.5733 4.02495Z" fill="#263238"/>
<path d="M2.82437 4.02495H2.07201C1.89978 4.02495 1.75928 3.88835 1.75928 3.72091C1.75928 3.55347 1.89978 3.41687 2.07201 3.41687H2.82437C2.99659 3.41687 3.1371 3.55347 3.1371 3.72091C3.1371 3.88835 2.99659 4.02495 2.82437 4.02495Z" fill="#263238"/>
<path d="M0.938185 4.02495H0.312728C0.140501 4.02495 0 3.88835 0 3.72091C0 3.55347 0.140501 3.41687 0.312728 3.41687H0.933653C1.10588 3.41687 1.24638 3.55347 1.24638 3.72091C1.24638 3.88835 1.10588 4.02495 0.933653 4.02495H0.938185Z" fill="#263238"/>
<path d="M5.94195 6.76506H5.32103C5.1488 6.76506 5.0083 6.62847 5.0083 6.46102C5.0083 6.29358 5.1488 6.15698 5.32103 6.15698H5.94195C6.11418 6.15698 6.25468 6.29358 6.25468 6.46102C6.25468 6.62847 6.11418 6.76506 5.94195 6.76506Z" fill="#263238"/>
<path d="M4.19302 6.76506H3.44066C3.26843 6.76506 3.12793 6.62847 3.12793 6.46102C3.12793 6.29358 3.26843 6.15698 3.44066 6.15698H4.19302C4.36525 6.15698 4.50575 6.29358 4.50575 6.46102C4.50575 6.62847 4.36525 6.76506 4.19302 6.76506Z" fill="#263238"/>
<path d="M2.30684 6.76506H1.68138C1.50915 6.76506 1.36865 6.62847 1.36865 6.46102C1.36865 6.29358 1.50915 6.15698 1.68138 6.15698H2.30231C2.47453 6.15698 2.61503 6.29358 2.61503 6.46102C2.61503 6.62847 2.47453 6.76506 2.30231 6.76506H2.30684Z" fill="#263238"/>
<g clip-path="url(#clip0_560_245)">
<path d="M23.3007 12.3165C21.8148 12.3165 20.604 11.0547 20.604 9.50621C20.604 7.95768 21.8148 6.69592 23.3007 6.69592C24.7867 6.69592 25.9974 7.95768 25.9974 9.50621C25.9974 11.0547 24.7867 12.3165 23.3007 12.3165ZM23.3007 7.18701C22.0727 7.18701 21.0752 8.22653 21.0752 9.50621C21.0752 10.7859 22.0727 11.8254 23.3007 11.8254C24.5287 11.8254 25.5262 10.7859 25.5262 9.50621C25.5262 8.22653 24.5287 7.18701 23.3007 7.18701Z" fill="#263238"/>
<path d="M11.9155 12.3165C10.4295 12.3165 9.21875 11.0547 9.21875 9.50621C9.21875 7.95768 10.4295 6.69592 11.9155 6.69592C13.4014 6.69592 14.6122 7.95768 14.6122 9.50621C14.6122 11.0547 13.4014 12.3165 11.9155 12.3165ZM11.9155 7.18701C10.6875 7.18701 9.68999 8.22653 9.68999 9.50621C9.68999 10.7859 10.6875 11.8254 11.9155 11.8254C13.1434 11.8254 14.1409 10.7859 14.1409 9.50621C14.1409 8.22653 13.1434 7.18701 11.9155 7.18701Z" fill="#263238"/>
<path d="M20.9031 3.29779C20.0294 3.29779 19.3208 2.55937 19.3208 1.64889C19.3208 0.738417 20.0294 0 20.9031 0C21.0338 0 21.1404 0.111121 21.1404 0.247334V3.05404C21.1404 3.19025 21.0338 3.30137 20.9031 3.30137V3.29779ZM20.6657 0.516175C20.167 0.630881 19.792 1.09329 19.792 1.64531C19.792 2.19733 20.167 2.66332 20.6657 2.77444V0.51976V0.516175Z" fill="#263238"/>
<path d="M20.9034 3.12579C20.7726 3.12579 20.666 3.01467 20.666 2.87845V0.419453C20.666 0.28324 20.7726 0.172119 20.9034 0.172119C21.6842 0.172119 22.3205 0.835261 22.3205 1.64895C22.3205 2.46265 21.6842 3.12579 20.9034 3.12579ZM21.1407 0.699048V2.60244C21.5466 2.49132 21.8493 2.10778 21.8493 1.64895C21.8493 1.19013 21.5466 0.806584 21.1407 0.695463V0.699048Z" fill="#263238"/>
<path d="M23.3007 12.3165C21.8148 12.3165 20.604 11.0547 20.604 9.50621C20.604 7.95768 21.8148 6.69592 23.3007 6.69592C24.7867 6.69592 25.9974 7.95768 25.9974 9.50621C25.9974 11.0547 24.7867 12.3165 23.3007 12.3165ZM23.3007 7.18701C22.0727 7.18701 21.0752 8.22653 21.0752 9.50621C21.0752 10.7859 22.0727 11.8254 23.3007 11.8254C24.5287 11.8254 25.5262 10.7859 25.5262 9.50621C25.5262 8.22653 24.5287 7.18701 23.3007 7.18701Z" fill="#263238"/>
<path d="M23.3009 10.8863C22.5682 10.8863 21.9731 10.2662 21.9731 9.50265C21.9731 8.73915 22.5682 8.11902 23.3009 8.11902C24.0335 8.11902 24.6286 8.73915 24.6286 9.50265C24.6286 10.2662 24.0335 10.8863 23.3009 10.8863ZM23.3009 8.6101C22.8296 8.6101 22.4444 9.01157 22.4444 9.50265C22.4444 9.99374 22.8296 10.3952 23.3009 10.3952C23.7721 10.3952 24.1573 9.99374 24.1573 9.50265C24.1573 9.01157 23.7721 8.6101 23.3009 8.6101Z" fill="#263238"/>
<path d="M23.3009 10.8863C22.5682 10.8863 21.9731 10.2662 21.9731 9.50265C21.9731 8.73915 22.5682 8.11902 23.3009 8.11902C24.0335 8.11902 24.6286 8.73915 24.6286 9.50265C24.6286 10.2662 24.0335 10.8863 23.3009 10.8863ZM23.3009 8.6101C22.8296 8.6101 22.4444 9.01157 22.4444 9.50265C22.4444 9.99374 22.8296 10.3952 23.3009 10.3952C23.7721 10.3952 24.1573 9.99374 24.1573 9.50265C24.1573 9.01157 23.7721 8.6101 23.3009 8.6101Z" fill="#263238"/>
<path d="M11.9395 10.8863C11.2069 10.8863 10.6118 10.2662 10.6118 9.50265C10.6118 8.73915 11.2069 8.11902 11.9395 8.11902C12.6722 8.11902 13.2672 8.73915 13.2672 9.50265C13.2672 10.2662 12.6722 10.8863 11.9395 10.8863ZM11.9395 8.6101C11.4683 8.6101 11.0831 9.01157 11.0831 9.50265C11.0831 9.99374 11.4683 10.3952 11.9395 10.3952C12.4108 10.3952 12.796 9.99374 12.796 9.50265C12.796 9.01157 12.4108 8.6101 11.9395 8.6101Z" fill="#263238"/>
<path d="M11.9155 12.3165C10.4295 12.3165 9.21875 11.0547 9.21875 9.50621C9.21875 7.95768 10.4295 6.69592 11.9155 6.69592C13.4014 6.69592 14.6122 7.95768 14.6122 9.50621C14.6122 11.0547 13.4014 12.3165 11.9155 12.3165ZM11.9155 7.18701C10.6875 7.18701 9.68999 8.22653 9.68999 9.50621C9.68999 10.7859 10.6875 11.8254 11.9155 11.8254C13.1434 11.8254 14.1409 10.7859 14.1409 9.50621C14.1409 8.22653 13.1434 7.18701 11.9155 7.18701Z" fill="#263238"/>
<path d="M20.8411 9.83596H14.3745C14.3092 9.83596 14.2507 9.80728 14.206 9.76069C14.1613 9.71409 14.1372 9.64956 14.1406 9.58146V9.5026C14.1406 8.22291 13.1431 7.1834 11.9186 7.1834C11.1378 7.1834 10.4051 7.62071 10.0027 8.3197C9.95453 8.40573 9.86166 8.45233 9.76878 8.43799C9.67591 8.42723 9.5968 8.35554 9.57272 8.26234L9.35602 7.48808C9.34914 7.46657 9.3457 7.44148 9.3457 7.41998V4.73873C9.3457 4.60252 9.45233 4.4914 9.58304 4.4914H15.5646C15.6954 4.4914 15.802 4.60252 15.802 4.73873V7.25509C15.802 7.69957 16.1494 8.06161 16.5759 8.06161H19.3724C19.5925 8.06161 19.7989 7.96841 19.9468 7.79635C20.0947 7.62429 20.1635 7.40564 20.1429 7.17623L19.6991 2.64536C19.6888 2.5414 19.7439 2.44104 19.8333 2.39802C19.9262 2.35501 20.0328 2.37651 20.1016 2.45179C20.3148 2.6812 20.5969 2.81024 20.903 2.81024H20.9821C21.6391 2.81024 22.2307 3.19021 22.5266 3.79958L24.0228 6.88588C24.0641 6.97191 24.0538 7.07227 23.9987 7.14755C23.9437 7.22283 23.8508 7.25867 23.7614 7.23716C23.6101 7.2049 23.4518 7.18698 23.297 7.18698C22.0691 7.18698 21.0716 8.2265 21.0716 9.50618V9.56712C21.075 9.63523 21.0509 9.70692 21.0062 9.7571C20.9615 9.80728 20.8996 9.84313 20.8377 9.84313L20.8411 9.83596ZM14.605 9.34488H20.6072C20.6898 7.8322 21.9315 6.64213 23.4037 6.6959L22.1069 4.01824C21.8902 3.57375 21.4603 3.29774 20.9821 3.29774H20.903C20.6623 3.29774 20.4318 3.24398 20.2185 3.13644L20.6072 7.12604C20.6416 7.49167 20.5281 7.85371 20.2908 8.12613C20.0569 8.39856 19.7198 8.55269 19.3655 8.55269H16.569C15.8811 8.55269 15.3239 7.972 15.3239 7.25509V4.98248H9.8135V7.38055L9.88917 7.64222C10.3982 7.0436 11.1378 6.68514 11.9151 6.68514C13.3529 6.68514 14.5293 7.86087 14.6084 9.33771L14.605 9.34488Z" fill="#263238"/>
<path d="M16.5003 4.98611H13.0194C12.6479 4.98611 12.3486 4.67067 12.3486 4.28712C12.3486 3.90358 12.6513 3.58813 13.0194 3.58813H16.5003C16.8718 3.58813 17.1711 3.90358 17.1711 4.28712C17.1711 4.67067 16.8684 4.98611 16.5003 4.98611ZM13.0194 4.07922C12.9093 4.07922 12.8199 4.17242 12.8199 4.28712C12.8199 4.40183 12.9093 4.49503 13.0194 4.49503H16.5003C16.6104 4.49503 16.6998 4.40183 16.6998 4.28712C16.6998 4.17242 16.6104 4.07922 16.5003 4.07922H13.0194Z" fill="#263238"/>
<path d="M18.3305 2.33717C18.248 2.33717 18.1654 2.29057 18.1242 2.20813C18.0622 2.08984 18.107 1.93929 18.2205 1.87477L19.4725 1.17219C19.586 1.10767 19.7305 1.15069 19.7924 1.27256C19.8543 1.39085 19.8096 1.5414 19.6961 1.60592L18.4441 2.3085C18.4097 2.33 18.3718 2.33717 18.334 2.33717H18.3305Z" fill="#263238"/>
<path d="M21.8251 6.73181C21.7288 6.73181 21.6428 6.67087 21.605 6.57409L20.9549 4.82841C20.9067 4.70295 20.9686 4.55957 21.089 4.50939C21.2094 4.4592 21.347 4.52373 21.3951 4.64918L22.0452 6.39486C22.0934 6.52032 22.0315 6.6637 21.9111 6.71388C21.8836 6.72464 21.8526 6.73181 21.8251 6.73181Z" fill="#263238"/>
<path d="M15.5651 6.11161H12.6895C12.5588 6.11161 12.4521 6.00049 12.4521 5.86428C12.4521 5.72806 12.5588 5.61694 12.6895 5.61694H15.5651C15.6958 5.61694 15.8024 5.72806 15.8024 5.86428C15.8024 6.00049 15.6958 6.11161 15.5651 6.11161Z" fill="#263238"/>
<path d="M11.4817 4.98612H8.04203C7.91132 4.98612 7.80469 4.875 7.80469 4.73879C7.80469 4.60258 7.91132 4.49146 8.04203 4.49146H11.4817C11.6124 4.49146 11.719 4.60258 11.719 4.73879C11.719 4.875 11.6124 4.98612 11.4817 4.98612Z" fill="#263238"/>
<path d="M11.8156 4.98616H7.07913C6.94843 4.98616 6.8418 4.87504 6.8418 4.73883V3.93947C6.8418 3.80326 6.94843 3.69214 7.07913 3.69214H11.8156C11.9463 3.69214 12.0529 3.80326 12.0529 3.93947V4.73883C12.0529 4.87504 11.9463 4.98616 11.8156 4.98616ZM7.31303 4.49508H11.5817V4.18681H7.31303V4.49508Z" fill="#263238"/>
<path d="M12.0324 4.18672H7.29593C7.16522 4.18672 7.05859 4.0756 7.05859 3.93939V3.14003C7.05859 3.00382 7.16522 2.8927 7.29593 2.8927H12.0324C12.1631 2.8927 12.2697 3.00382 12.2697 3.14003V3.93939C12.2697 4.0756 12.1631 4.18672 12.0324 4.18672ZM7.52983 3.69564H11.7985V3.38737H7.52983V3.69564Z" fill="#263238"/>
<path d="M11.8156 3.38741H7.07913C6.94843 3.38741 6.8418 3.27629 6.8418 3.14007V2.34072C6.8418 2.2045 6.94843 2.09338 7.07913 2.09338H11.8156C11.9463 2.09338 12.0529 2.2045 12.0529 2.34072V3.14007C12.0529 3.27629 11.9463 3.38741 11.8156 3.38741ZM7.31303 2.89632H11.5817V2.58805H7.31303V2.89632Z" fill="#263238"/>
<path d="M12.0324 2.58809H7.29593C7.16522 2.58809 7.05859 2.47697 7.05859 2.34076V1.5414C7.05859 1.40519 7.16522 1.29407 7.29593 1.29407H12.0324C12.1631 1.29407 12.2697 1.40519 12.2697 1.5414V2.34076C12.2697 2.47697 12.1631 2.58809 12.0324 2.58809ZM7.52983 2.09701H11.7985V1.78874H7.52983V2.09701Z" fill="#263238"/>
<path d="M11.8156 1.78873H7.07913C6.94843 1.78873 6.8418 1.67761 6.8418 1.54139V0.745625C6.8418 0.609412 6.94843 0.498291 7.07913 0.498291H11.8156C11.9463 0.498291 12.0529 0.609412 12.0529 0.745625V1.54498C12.0529 1.68119 11.9463 1.79231 11.8156 1.79231V1.78873ZM7.31303 1.29765H11.5817V0.989374H7.31303V1.29765Z" fill="#263238"/>
<path d="M25.5194 12.3166H7.29593C7.16522 12.3166 7.05859 12.2054 7.05859 12.0692C7.05859 11.933 7.16522 11.8219 7.29593 11.8219H25.5194C25.6501 11.8219 25.7567 11.933 25.7567 12.0692C25.7567 12.2054 25.6501 12.3166 25.5194 12.3166Z" fill="#263238"/>
</g>
<defs>
<clipPath id="clip0_560_245">
<rect width="19.159" height="12.3165" fill="white" transform="translate(6.8418)"/>
</clipPath>
</defs>
</svg>
