<svg width="15" height="17" viewBox="0 0 15 17" fill="none" xmlns="http://www.w3.org/2000/svg">
<path d="M4.58333 0.520833C4.58333 0.233333 4.81667 0 5.10417 0H9.0625C9.20063 0 9.33311 0.0548734 9.43079 0.152549C9.52846 0.250224 9.58333 0.3827 9.58333 0.520833C9.58333 0.658967 9.52846 0.791443 9.43079 0.889118C9.33311 0.986793 9.20063 1.04167 9.0625 1.04167H5.10417C4.81667 1.04167 4.58333 0.808333 4.58333 0.520833ZM6.5625 9.0625C6.5625 9.20063 6.61737 9.33311 6.71505 9.43079C6.81272 9.52846 6.9452 9.58333 7.08333 9.58333C7.22147 9.58333 7.35394 9.52846 7.45162 9.43079C7.54929 9.33311 7.60417 9.20063 7.60417 9.0625V5.10417C7.60417 4.96603 7.54929 4.83356 7.45162 4.73588C7.35394 4.63821 7.22147 4.58333 7.08333 4.58333C6.9452 4.58333 6.81272 4.63821 6.71505 4.73588C6.61737 4.83356 6.5625 4.96603 6.5625 5.10417V9.0625ZM7.08333 2.08333C3.17125 2.08333 0 5.25458 0 9.16667C0 13.0787 3.17125 16.25 7.08333 16.25C10.9954 16.25 14.1667 13.0787 14.1667 9.16667C14.1667 5.25458 10.9954 2.08333 7.08333 2.08333ZM1.04167 9.16667C1.04167 5.83 3.74667 3.125 7.08333 3.125C10.42 3.125 13.125 5.83 13.125 9.16667C13.125 12.5033 10.42 15.2083 7.08333 15.2083C3.74667 15.2083 1.04167 12.5033 1.04167 9.16667ZM12.9729 2.23542C12.8752 2.13773 12.7427 2.08285 12.6046 2.08285C12.4664 2.08285 12.3339 2.13773 12.2362 2.23542C12.1386 2.3331 12.0837 2.4656 12.0837 2.60375C12.0837 2.7419 12.1386 2.8744 12.2362 2.97208L13.2779 4.01375C13.3263 4.06212 13.3837 4.10049 13.4469 4.12667C13.5101 4.15284 13.5778 4.16632 13.6462 4.16632C13.7147 4.16632 13.7824 4.15284 13.8456 4.12667C13.9088 4.10049 13.9662 4.06212 14.0146 4.01375C14.063 3.96538 14.1013 3.90796 14.1275 3.84476C14.1537 3.78156 14.1672 3.71382 14.1672 3.64542C14.1672 3.57701 14.1537 3.50927 14.1275 3.44608C14.1013 3.38288 14.063 3.32545 14.0146 3.27708L12.9729 2.23542Z" fill="#263238"/>
</svg>
