<svg width="26" height="26" viewBox="0 0 26 26" fill="none" xmlns="http://www.w3.org/2000/svg">
<g clip-path="url(#clip0_560_162)">
<path d="M5.91691 11.2939H20.6724C20.9239 11.2939 21.1274 11.0901 21.1274 10.8389C21.1274 10.5875 20.9239 10.3839 20.6724 10.3839H5.91691C5.66549 10.3839 5.46191 10.5875 5.46191 10.8389C5.46191 11.0901 5.66549 11.2939 5.91691 11.2939Z" fill="#007AFF"/>
<path d="M17.7359 13.6939C17.4902 13.6383 17.2473 13.7937 17.1925 14.0389C16.5602 16.8742 13.6003 17.0289 13.4742 17.0341C13.2238 17.0437 13.0283 17.2546 13.0374 17.5055C13.046 17.751 13.2483 17.9441 13.4919 17.9441C13.4974 17.9441 13.5031 17.9439 13.5085 17.9439C13.5462 17.9423 17.2934 17.766 18.0804 14.2373C18.1355 13.9916 17.9811 13.7485 17.7359 13.6939Z" fill="#007AFF"/>
<path d="M21.5835 13.4937C21.4982 13.4074 21.382 13.3588 21.26 13.3588H20.2931C20.317 13.1235 20.3292 12.8851 20.3292 12.6435L20.3266 12.525C20.3225 12.2769 20.1199 12.0778 19.8716 12.0778H6.7177C6.46888 12.0778 6.26582 12.2777 6.2627 12.5265L6.26166 12.5653C6.26062 12.5913 6.25958 12.617 6.25958 12.6435C6.25958 12.8851 6.2718 13.1235 6.29572 13.3588H5.35738C5.23596 13.3588 5.11922 13.4074 5.03394 13.494C4.94814 13.5803 4.90082 13.6973 4.90238 13.819L4.90654 14.2269C4.90862 14.477 5.11168 14.678 5.36154 14.678C5.36258 14.678 5.36414 14.678 5.36518 14.678C5.5997 14.6759 5.79184 14.4971 5.8142 14.2688H6.45146C6.90854 16.1917 8.15576 17.8102 9.83094 18.7624L6.97822 23.5565C6.84978 23.7723 6.92024 24.0515 7.13656 24.18C7.2091 24.2234 7.28944 24.2442 7.36874 24.2442C7.52422 24.2442 7.67502 24.1646 7.7603 24.0219L10.6523 19.1617C11.4689 19.494 12.36 19.6786 13.2944 19.6786C14.2304 19.6786 15.123 19.4932 15.9407 19.1602L18.8337 24.0219C18.919 24.1649 19.0698 24.2442 19.2253 24.2442C19.3046 24.2442 19.3846 24.2234 19.4574 24.18C19.6738 24.0515 19.7445 23.7723 19.6158 23.5565L16.7618 18.7605C18.4351 17.8084 19.6813 16.1904 20.1376 14.269H20.8035C20.8263 14.4973 21.0177 14.6762 21.2525 14.6783C21.2535 14.6783 21.2551 14.6783 21.2566 14.6783C21.506 14.6783 21.709 14.4773 21.7111 14.2272L21.7153 13.8187C21.7163 13.6973 21.6687 13.58 21.5835 13.4937ZM13.2944 18.7686C10.0327 18.7686 7.35808 16.206 7.1792 12.9883H19.4093C19.2307 16.2058 16.5561 18.7686 13.2944 18.7686Z" fill="#007AFF"/>
<path d="M12.7139 5.47898L13.1491 5.69139C13.2381 5.73663 14.0113 6.15237 13.7539 6.88583C13.4801 7.66505 12.4406 7.62267 12.3985 7.62086C12.1432 7.60655 11.9323 7.79765 11.9175 8.04855C11.9027 8.29919 12.0943 8.51473 12.3452 8.52955C12.3538 8.53008 12.3858 8.53163 12.4373 8.53163C12.8085 8.53163 14.1715 8.44402 14.6127 7.18743C15.0367 5.97921 14.1049 5.14722 13.5519 4.87552L13.1242 4.66673C13.0353 4.61941 12.2605 4.18495 12.5119 3.46865C12.7916 2.67227 13.816 2.73025 13.8615 2.73337C14.1083 2.75001 14.3288 2.56437 14.3475 2.31451C14.3667 2.06387 14.1795 1.84521 13.9286 1.82597C13.3213 1.77839 12.0634 1.99991 11.6536 3.16705C11.2384 4.34953 12.1601 5.19375 12.7139 5.47898Z" fill="#007AFF"/>
<path d="M8.91907 6.23087L9.24303 6.38895C9.33689 6.43705 9.79761 6.69939 9.64109 7.14581C9.46429 7.64865 8.76515 7.62265 8.73811 7.62109C8.48929 7.60523 8.27193 7.79763 8.25711 8.04879C8.24229 8.29969 8.43391 8.51497 8.68481 8.52979C8.71835 8.53161 8.75345 8.53291 8.78985 8.53265C9.32805 8.53265 10.197 8.30827 10.4996 7.44741C10.8433 6.46617 10.093 5.79277 9.64603 5.57333L9.32649 5.41733C9.30361 5.40563 8.76177 5.12015 8.92375 4.65839C9.10341 4.14697 9.78461 4.18025 9.82049 4.18233C10.0683 4.19871 10.2877 4.01307 10.307 3.76347C10.3257 3.51283 10.1385 3.29391 9.88809 3.27493C9.36445 3.23619 8.39517 3.41793 8.06497 4.35679C7.72827 5.31749 8.47057 5.99973 8.91907 6.23087Z" fill="#007AFF"/>
<path d="M16.6485 6.25558C16.8435 6.36478 17.0274 6.46774 17.1467 6.60996C17.3006 6.79248 17.3347 6.97682 17.2478 7.15726C17.1371 7.38814 16.803 7.63046 16.3459 7.62032C16.1012 7.61356 15.8857 7.81298 15.8797 8.0644C15.8737 8.31556 16.0726 8.52408 16.3241 8.53006C16.3404 8.53058 16.3571 8.53084 16.3737 8.53084C17.108 8.53084 17.785 8.14136 18.0684 7.55116C18.3097 7.04858 18.2254 6.47762 17.843 6.02366C17.617 5.75508 17.3391 5.59908 17.0944 5.46154C16.7871 5.28916 16.6095 5.181 16.5339 4.96208C16.4522 4.7247 16.1925 4.59886 15.9554 4.68102C15.7177 4.76318 15.5919 5.0224 15.6741 5.26004C15.8665 5.81618 16.3001 6.0598 16.6485 6.25558Z" fill="#007AFF"/>
<path d="M16.7151 4.32247C16.7865 4.32247 16.8588 4.30583 16.9264 4.27021C17.0767 4.19143 17.1955 4.17193 17.4566 4.18311C17.7038 4.19065 17.9201 3.99929 17.9308 3.74813C17.942 3.49697 17.747 3.28481 17.4961 3.27389C17.1472 3.25907 16.8445 3.28559 16.5034 3.46447C16.2811 3.58121 16.195 3.85655 16.312 4.07885C16.3937 4.23381 16.5515 4.32247 16.7151 4.32247Z" fill="#007AFF"/>
</g>
<defs>
<clipPath id="clip0_560_162">
<rect width="26" height="26" fill="white"/>
</clipPath>
</defs>
</svg>
