<svg width="156" height="107" fill="none" xmlns="http://www.w3.org/2000/svg"><path d="M37.46 87.451h-9.715v2.572h9.716V87.45Z" fill="#EBEBEB"/><path d="M33.353 92.728a.137.137 0 0 1 0-.045v-.64c0-.444 0-1.08-.016-1.884l.03.028-9.715.02.047-.048v2.57l-.048-.049 6.924.022 2.044.014h.704-.683l-2.032.014-6.957.024h-.05V90.14c.098-.1.027-.029.05-.05l9.717.019h.03v.03c0 .811 0 1.455-.016 1.902v.625a.206.206 0 0 1-.029.062Z" fill="#E0E0E0"/><path d="m11.518 93.424-4.294 12.578h12.102l-4.872-12.669 1.245-6.35H9.857l1.662 6.44Z" fill="#EBEBEB"/><path d="M20.772 78.59s0 .016-.035.042l-.117.124-.452.461-.33.338c-.116.123-.238.263-.37.41-.265.3-.578.628-.885 1.025l-.494.613c-.169.214-.328.45-.504.687-.357.475-.69 1.005-1.048 1.56a29.6 29.6 0 0 0-1.973 3.826 30.564 30.564 0 0 0-1.357 4.088c-.148.647-.3 1.257-.392 1.84-.048.29-.107.57-.145.841-.038.271-.07.53-.1.78-.076.494-.098.95-.136 1.345-.014.2-.033.383-.042.554-.01.17-.012.325-.017.475 0 .273-.021.475-.029.647v.168a.176.176 0 0 1 0 .057.157.157 0 0 1 0-.057v-1.29c0-.176.022-.357.034-.556.028-.397.045-.854.114-1.353l.095-.782c.033-.27.09-.554.138-.846.088-.585.237-1.2.382-1.85.35-1.4.803-2.772 1.353-4.106a29.043 29.043 0 0 1 1.99-3.839c.365-.556.712-1.093 1.062-1.561.178-.238.34-.476.513-.685.174-.209.342-.416.501-.61.312-.395.633-.714.901-1.016.138-.145.262-.282.38-.406l.338-.323.475-.445.124-.114c.01-.028.026-.045.026-.043Z" fill="#EBEBEB"/><path d="M24.304 84.566a2.122 2.122 0 0 1-.387-.078 3.705 3.705 0 0 0-.452-.095c-.176-.031-.375-.076-.601-.098-.226-.021-.476-.057-.737-.064a25.113 25.113 0 0 0-.848-.012c-.648.024-1.292.103-1.926.238-.63.148-1.247.351-1.842.608-.27.126-.53.238-.76.376-.23.138-.445.254-.637.378a10.303 10.303 0 0 0-.868.625 2.09 2.09 0 0 1-.316.238c.087-.1.181-.192.283-.276.113-.107.232-.207.357-.3.144-.109.301-.237.496-.366.204-.142.416-.273.635-.392.238-.14.49-.259.763-.392a9.76 9.76 0 0 1 3.803-.865c.302 0 .59 0 .855.024.25.014.498.04.744.08.203.029.405.068.604.117.153.029.304.068.452.116.13.036.258.082.382.138Zm-6.095-9.646a2.356 2.356 0 0 1-.138.366c-.098.238-.238.568-.388.99a24.002 24.002 0 0 0-1.473 6.823c-.031.447-.048.81-.055 1.062a2.06 2.06 0 0 1-.028.385 2.46 2.46 0 0 1-.022-.392c0-.25 0-.615.014-1.065a20.982 20.982 0 0 1 1.479-6.85c.169-.418.316-.75.428-.977.051-.118.112-.233.183-.342Zm3.786-1.455a2.065 2.065 0 0 1-.211.3c-.145.188-.347.461-.59.806a20.57 20.57 0 0 0-2.87 5.882 24.83 24.83 0 0 0-.274.95c-.025.121-.06.239-.107.353a1.73 1.73 0 0 1 .06-.364c.042-.238.123-.563.237-.972a18.097 18.097 0 0 1 2.878-5.902c.252-.337.476-.606.623-.784.077-.097.162-.187.254-.269Zm5.01 1.097a2 2 0 0 1-.302.155c-.197.09-.475.226-.827.4a22.25 22.25 0 0 0-4.991 3.407c-.288.26-.516.476-.673.626a1.715 1.715 0 0 1-.254.223 2.01 2.01 0 0 1 .219-.259c.147-.162.368-.387.649-.656a19.014 19.014 0 0 1 5.012-3.42c.354-.167.642-.29.846-.366.103-.049.21-.085.321-.11Zm.981 2.723c-.093.08-.195.151-.302.212-.197.13-.494.309-.865.513a18.887 18.887 0 0 1-6.265 2.127c-.42.062-.763.103-.998.12a2.285 2.285 0 0 1-.37.016c.118-.034.24-.057.363-.067.237-.03.575-.083.99-.157a21.438 21.438 0 0 0 6.237-2.117c.376-.195.678-.36.882-.476.104-.067.214-.124.328-.17Zm.106 3.081s-.034.023-.1.06l-.297.142c-.257.126-.635.292-1.11.475a25.932 25.932 0 0 1-7.763 1.797c-.508.035-.922.052-1.21.054h-.328a.405.405 0 0 1-.116 0 .415.415 0 0 1 .114-.016l.328-.024c.285-.016.699-.045 1.205-.093a29.495 29.495 0 0 0 7.739-1.78c.475-.18.86-.335 1.122-.444l.304-.124a.33.33 0 0 1 .112-.047Z" fill="#EBEBEB"/><path d="M15.157 77.76a2.3 2.3 0 0 1-.105.34 4.85 4.85 0 0 0-.13.396c-.046.16-.107.328-.155.528a12.424 12.424 0 0 0-.066 6.303c.042.2.1.375.142.532.043.157.086.29.121.397.043.111.076.226.1.343a1.665 1.665 0 0 1-.145-.326 4.107 4.107 0 0 1-.143-.392c-.05-.157-.114-.33-.163-.53a11.793 11.793 0 0 1-.295-1.415 12.443 12.443 0 0 1-.117-1.768c.01-.59.061-1.178.152-1.761.08-.475.188-.945.326-1.407.055-.2.121-.373.176-.528.055-.154.105-.285.15-.39.04-.112.09-.22.152-.323ZM4.584 68.24a.279.279 0 0 1 .06.043l.164.133c.14.123.361.29.615.537a16.88 16.88 0 0 1 2.014 2.227 20.84 20.84 0 0 1 2.288 3.822 27.3 27.3 0 0 1 1.78 5.155 40.17 40.17 0 0 1 .868 5.386 64.96 64.96 0 0 1 .274 4.447c.035 1.267.054 2.29.061 3v1.028a.26.26 0 0 1 0 .074.313.313 0 0 1 0-.074v-.211c0-.195-.014-.476-.026-.816-.021-.713-.05-1.732-.102-2.999a75.38 75.38 0 0 0-.297-4.437 41.52 41.52 0 0 0-.91-5.37 27.65 27.65 0 0 0-1.762-5.133 21.24 21.24 0 0 0-2.246-3.815A17.966 17.966 0 0 0 5.39 68.99c-.237-.252-.475-.423-.599-.554l-.157-.143a.278.278 0 0 1-.05-.054Z" fill="#EBEBEB"/><path d="M4.454 81.859a.541.541 0 0 1 .097-.033c.064-.017.157-.048.28-.072.35-.075.707-.118 1.065-.128a6.36 6.36 0 0 1 5.835 3.394c.17.315.31.645.419.986a2.645 2.645 0 0 1 .097.38 2.57 2.57 0 0 1-.143-.365 7.15 7.15 0 0 0-.451-.951 6.48 6.48 0 0 0-5.747-3.354 7.15 7.15 0 0 0-1.058.086c-.13.03-.262.049-.394.057Zm-1.861-4.145a.42.42 0 0 1 .11-.031c.07-.014.175-.043.313-.062a7.51 7.51 0 0 1 1.188-.097 8.319 8.319 0 0 1 6.767 3.341c.239.315.453.648.64.996.068.121.111.221.142.288.03.066.045.102.04.105a3.63 3.63 0 0 1-.237-.369 8.873 8.873 0 0 0-.666-.965 8.57 8.57 0 0 0-6.695-3.308 9.193 9.193 0 0 0-1.172.059 3.088 3.088 0 0 1-.43.043ZM0 73.531a.532.532 0 0 1 .119-.045c.078-.024.192-.064.342-.102a8.657 8.657 0 0 1 1.303-.238 9.253 9.253 0 0 1 7.867 3.028c.295.329.564.68.805 1.048.088.129.145.238.188.307a.594.594 0 0 1 .057.112 4.828 4.828 0 0 1-.285-.392 9.977 9.977 0 0 0-.832-1.015 9.457 9.457 0 0 0-7.793-2.995c-.437.036-.87.1-1.298.192a4.767 4.767 0 0 1-.473.1Zm15.556.737a.432.432 0 0 1-.069.095l-.216.252a6.28 6.28 0 0 0-.333.402c-.124.164-.273.337-.416.551-.143.214-.309.44-.461.7-.152.258-.311.539-.475.836-.33.656-.606 1.337-.828 2.037a13.59 13.59 0 0 0-.456 2.15c-.033.336-.073.657-.078.951-.005.295-.015.58 0 .837.014.257.021.487.033.69.012.201.03.377.05.52.019.142.028.237.038.33a.54.54 0 0 1 0 .117.43.43 0 0 1-.031-.115l-.06-.325a5.154 5.154 0 0 1-.07-.52c-.02-.205-.053-.436-.055-.695-.003-.259-.02-.54 0-.844.019-.304.035-.627.066-.967a11.92 11.92 0 0 1 1.298-4.226c.166-.3.316-.587.475-.839.16-.252.323-.487.476-.696.152-.21.304-.385.432-.544.11-.137.228-.267.352-.39l.238-.238a.48.48 0 0 1 .09-.069Zm-2.068-4.179c.02.014-.287.352-.713.95a11.384 11.384 0 0 0-1.99 5.289c-.078.725-.068 1.188-.092 1.188a1.498 1.498 0 0 1-.024-.318 8.217 8.217 0 0 1 .029-.872c.039-.433.105-.862.2-1.286a10.67 10.67 0 0 1 1.114-2.964c.215-.377.453-.74.713-1.086.17-.236.353-.462.55-.675.062-.083.134-.159.213-.226Zm-4.323-4.71a1.58 1.58 0 0 1-.055.323c-.045.207-.105.507-.171.875a19.107 19.107 0 0 0-.148 5.847c.048.373.093.675.129.882.024.106.037.216.038.325a1.849 1.849 0 0 1-.088-.316c-.05-.204-.107-.506-.167-.88a16.419 16.419 0 0 1-.19-2.949 16.74 16.74 0 0 1 .338-2.935c.078-.369.15-.666.211-.87a1.68 1.68 0 0 1 .103-.302Zm126.158 10.706h-9.717v2.571h9.717v-2.572Z" fill="#EBEBEB"/><path d="M131.212 81.36a.378.378 0 0 1 0-.048v-.637c0-.444 0-1.081-.016-1.887l.028.031-9.716.02.05-.05v2.566l-.048-.047 6.924.021 2.044.014h.699-.68l-2.032.014-6.959.022h-.048v-2.586c.1-.098.029-.026.05-.048l9.716.02h.031v.028c0 .813-.012 1.457-.017 1.901v.626c0 .033-.023.04-.026.04Z" fill="#E0E0E0"/><path d="M84.84 19.456h-9.717v2.572h9.716v-2.572Z" fill="#EBEBEB"/><path d="M80.729 24.733a.34.34 0 0 1 0-.045v-.64c0-.442 0-1.081-.017-1.884l.029.028-9.716.021.05-.05v2.565l-.048-.047 6.923.021 2.044.014h.749-2.781l-6.959.024h-.047v-2.614l.05-.05 9.716.019h.03v.03c0 .811-.011 1.455-.016 1.902v.625a.358.358 0 0 1-.007.08Zm63.03-9.718a.34.34 0 0 1 0-.045v-.639c0-.442 0-1.082-.016-1.885l.031.029-9.717.021.05-.05v2.565l-.047-.048 6.923.022 2.044.014h.732H141l-6.957.024h-.05v-2.615l.05-.05 9.716.02h.031v.03c0 .81-.014 1.455-.016 1.902v.625a.204.204 0 0 1-.015.08ZM100.72 3.79a.19.19 0 0 1 0-.047v-.637c0-.444 0-1.084-.017-1.887l.031.03-9.74.02c.022-.022-.05.05.048-.05v2.567l-.048-.05 6.926.021 2.044.015h.749-.727l-2.032.014-6.96.052h-.047V1.224c.097-.1.026-.027.05-.05l9.716.019h.026v.03c0 .813-.012 1.458-.017 1.902v.625c0 .033-.002.04-.002.04Zm-73.223 8.43a.378.378 0 0 1 0-.049v-.636c0-.445 0-1.082-.017-1.888l.028.031-9.718.02.05-.05v2.566l-.048-.047 6.924.021 2.044.014h.699-.68l-2.032.015-6.957.05h-.048V9.652l.05-.047 9.716.019h.027v.028c0 .813-.012 1.457-.017 1.902v.627c0 .033-.02.038-.021.038Zm121.119 28.775h-9.717v2.571h9.717v-2.571Z" fill="#E0E0E0"/><path d="M155.6 35.716h-9.716v2.572h9.716v-2.572Z" fill="#EBEBEB"/><path d="M151.493 40.995a.376.376 0 0 1 0-.048v-.637c0-.444 0-1.081-.016-1.887l.031.031-9.717.02c.022-.022-.049.049.048-.05v2.566l-.048-.047 6.924.021 2.044.014h.696-.682l-2.032.014-6.957.022h-.05v-2.577c.098-.097.027-.026.05-.047l9.717.019h.028v.029c0 .812 0 1.456-.017 1.9v.628a.181.181 0 0 1-.019.029Zm-134.026 5.95H7.75v2.572h9.717v-2.572Z" fill="#E0E0E0"/><path d="M24.455 41.667h-9.716v2.571h9.716v-2.571Z" fill="#EBEBEB"/><path d="M20.345 46.944a.34.34 0 0 1 0-.045v-.64c0-.442 0-1.081-.016-1.884l.03.03-9.716.02c.022-.024-.05.047.05-.05v2.564l-.047-.047 6.923.021 2.044.014h.749-.737l-2.034.014-6.962.053h-.05v-2.615l.05-.05 9.716.02h.031v.03c0 .813-.014 1.455-.017 1.902v.625a.197.197 0 0 1-.014.038Z" fill="#E0E0E0"/><path d="M141.663 84.877c-1.105-.57-2.408-.644-3.634-.442-.661.109-1.348.306-1.797.803-.449.497-.535 1.367-.019 1.792a1.72 1.72 0 0 0 1.134.288c.95-.012 2.027-.181 2.795.399.437.328.729.877 1.252 1.038a1.234 1.234 0 0 0 1.362-.606c.25-.48.306-1.04.155-1.561a2.39 2.39 0 0 0-1.248-1.711Zm2.534-4.89c-.675.968-1.989.647-2.6.058-.611-.59-.865-1.443-1.1-2.258-.535-1.861-1.077-3.815-.678-5.705a3.163 3.163 0 0 1 .73-1.552 1.659 1.659 0 0 1 1.571-.523c.661.176 1.074.825 1.371 1.443a13.617 13.617 0 0 1 1.346 5.842c0 .939-.107 1.928-.64 2.703m1.859 1.378c-.735-.872-.875-2.139-.547-3.235.328-1.095 1.065-2.02 1.916-2.778 1-.892 2.165-1.58 3.429-2.025a3.666 3.666 0 0 1 1.543-.261 1.62 1.62 0 0 1 1.293.784c.361.687.017 1.523-.359 2.203a26.151 26.151 0 0 1-2.253 3.432c-.675.87-1.448 1.728-2.477 2.123-1.029.394-2.098.347-2.645-.366" fill="#EBEBEB"/><path d="M144.234 94.555a1.9 1.9 0 0 1-.061-.438c-.031-.32-.072-.713-.117-1.188a17.649 17.649 0 0 0-.271-1.757 13.432 13.432 0 0 0-.637-2.074 7.573 7.573 0 0 0-1.06-1.876 3.936 3.936 0 0 0-1.338-1.112 3.76 3.76 0 0 0-1.127-.352 1.907 1.907 0 0 1-.437-.064 2.06 2.06 0 0 1 .444 0c.412.03.814.132 1.189.304a3.964 3.964 0 0 1 1.412 1.124 7.51 7.51 0 0 1 1.098 1.914c.271.682.483 1.387.632 2.106.115.588.194 1.182.238 1.78.038.508.052.92.057 1.205.007.143 0 .286-.022.428Z" fill="#E0E0E0"/><path d="M144.162 93.634a.875.875 0 0 1-.012-.204v-.583c0-.506 0-1.236-.026-2.139-.046-1.806-.202-3.75-.502-6.49-.285-2.577-.665-5.577-1.069-7.528a32.621 32.621 0 0 0-.255-1.189c-.081-.347-.145-.653-.209-.896l-.135-.568a.68.68 0 0 1-.036-.2c.029.062.052.125.069.19.045.148.102.334.169.56.066.225.152.541.237.89.086.35.188.747.283 1.19a65.905 65.905 0 0 1 1.124 6.982c.3 2.748.438 5.248.45 7.06 0 .905 0 1.637-.034 2.138l-.035.583a.826.826 0 0 1-.019.204Z" fill="#E0E0E0"/><path d="M144.149 88.81a3.833 3.833 0 0 1 0-.605c.022-.392.076-.951.186-1.65.133-.81.312-1.61.534-2.4.262-.975.598-1.929 1.006-2.853a15.091 15.091 0 0 1 2.949-4.591c.218-.23.45-.445.694-.644.105-.09.2-.179.295-.25l.269-.185c.161-.124.333-.234.513-.329.029.039-.713.476-1.678 1.498a15.843 15.843 0 0 0-2.876 4.575 22.465 22.465 0 0 0-1.01 2.814 24.532 24.532 0 0 0-.57 2.377 17.632 17.632 0 0 0-.238 1.633c-.009.205-.033.41-.074.61Zm4.66 8.508-.482 6.621h-8.507l-.482-6.621h9.471Z" fill="#E0E0E0"/><path d="M149.632 94.71h-11.309v2.609h11.309v-2.61Z" fill="#E0E0E0"/><path d="M149.632 103.686v.722h-11.123v-.722h11.123Z" fill="#EBEBEB"/><path d="m148.58 105.684.521-1.274h-10.184l.606 1.274h9.057Z" fill="#E0E0E0"/><path d="M139.495 99.481s.012.024.041.062l.125.169.497.635.022.028.021-.031 1.217-1.682h-.069l1.188 1.696.038.053.043-.05 1.426-1.69h-.083l.079.1 1.271 1.592.043.053.038-.055 1.2-1.697h-.071l1.478 1.68.026.031.019-.033.476-.777.116-.207a.35.35 0 0 0 .038-.074s-.019.022-.05.067l-.13.197-.476.763h.048l-1.455-1.704-.035-.043-.034.045-1.21 1.69h.081l-1.267-1.595-.078-.1-.04-.05-.043.05-1.426 1.695h.081l-1.213-1.688-.045-.042-.033.05-1.188 1.701h.033c-.219-.259-.39-.475-.516-.617l-.138-.16a.405.405 0 0 0-.045-.062Zm-.274-2.205c0 .029 2.139.052 4.753.052 2.615 0 4.754-.023 4.754-.052 0-.028-2.139-.055-4.754-.055-2.614 0-4.753.024-4.753.055Zm-.431 7.205c0 .031 2.317.054 5.174.054s5.172-.023 5.172-.054-2.315-.052-5.172-.052c-2.857 0-5.174.023-5.174.052Z" fill="#F5F5F5"/><path d="m101.238 30.373-1.094 2.041s-7.22 1.678-8.319 2.627c-1.098.948 2.337 18.607 2.337 18.607s-1.902 6.857.218 8.388l22.321-.511-.437-15.316 3.864-10.358-8.606-3.427-1.386-2.553-8.898.502Z" fill="#455A64"/><path d="M91.829 35.04s-3.178 1.652-4.223 7.525c-1.046 5.873-3.245 14.772-3.114 16.208.13 1.435 2.004 3.253 2.004 3.253l6.227-2.93s.696-2.752.278-3.04c-.419-.288.088-1.217.088-1.217l.651-3.458-1.761-16.06m30.23 22.097s.749-13.243.626-17.807c-.091-3.31-3.364-4.04-3.364-4.04l-3.206 10.62.437 15.315s6.491-1.236 6.67-1.773c.178-.537-1.163-2.315-1.163-2.315Z" fill="#455A64"/><path d="m101.069 30.2 3.827 3.918.974 2.096.927-2.398 3.34-3.765-9.068.15Z" fill="#FFBE9D"/><path d="M93.112 42.242a14.5 14.5 0 0 0-3.63 4.685l.714-.447-.193.713.616-.57c-.045.237-.093.46-.138.691a.186.186 0 0 0 .13-.097 8.86 8.86 0 0 0-.52 4.173 27.95 27.95 0 0 0 1.64-3.156c.089.27.102.56.04.837l.578-1.089.076.735c.536-2.073 1.07-4.146 1.602-6.22l-.915-.255Zm4.778-15.984s-1.03 2.24-1.03 3.506c0 0-2.22 2.764-2.334 4.067 0 0-1.704 2.03-1.24 3.486 0 0-1.284 1.721-.079 3.112 1.205 1.39 1.866 1.057 1.866 1.057s3.641-.594 4.171-2.184c0 0 1.248-1.507 1.664-3.044.475-1.757.292-7.312.292-7.312-1.535-.492-2.521-1.468-3.31-2.688Z" fill="#E14942"/><path d="M94.348 41.071c-.188-.114-.212-.237-.35-.406a1.462 1.462 0 0 0-.489-.43.542.542 0 0 0-.61.08c-.215.238-.098.6-.18.901a4.283 4.283 0 0 0-.177.495.7.7 0 0 0 .237.587c.356.27.765.462 1.2.563a.712.712 0 0 0 .62-.197c.098-.11.148-.257.239-.371a2.52 2.52 0 0 1 .432-.323.452.452 0 0 0 .207-.476c-.071-.202-.335-.237-.552-.237-.216 0-.475 0-.589-.186" fill="#263238"/><path d="M97.609 36.775a.684.684 0 0 1-.038.219c-.053.197-.121.39-.205.577a4.29 4.29 0 0 1-3.042 2.448c-.2.043-.402.07-.606.079a.715.715 0 0 1-.223 0c0-.024.316-.031.81-.155a4.515 4.515 0 0 0 2.98-2.4c.226-.457.302-.768.324-.768Z" fill="#fff"/><path d="M97.522 40.592a2.938 2.938 0 0 1-.537-2.536c-.008.436.024.873.095 1.304.11.423.259.835.442 1.232Zm.473-4.205s-.045.062-.14.152a3.32 3.32 0 0 1-.445.352 4.84 4.84 0 0 1-3.575.74 3.402 3.402 0 0 1-.544-.146.764.764 0 0 1-.19-.083c0-.021.285.074.751.143.272.039.546.056.82.052a5.207 5.207 0 0 0 2.69-.78c.4-.25.619-.446.633-.43Z" fill="#263238"/><path d="M99.511 39.2a1.639 1.639 0 0 1-.413-.344 4.193 4.193 0 0 1-1.137-2.303 1.57 1.57 0 0 1-.021-.537 6.94 6.94 0 0 0 .52 1.723c.287.53.64 1.022 1.051 1.462Z" fill="#fff"/><path d="M98.728 33.971s-.046.065-.143.16a3.681 3.681 0 0 1-.442.375 4.97 4.97 0 0 1-2.772.963 4.668 4.668 0 0 1-.858-.055 3.586 3.586 0 0 1-.565-.133.713.713 0 0 1-.197-.078c0-.022.294.069.774.123.28.031.56.04.842.029a5.71 5.71 0 0 0 1.022-.155 5.584 5.584 0 0 0 1.704-.765c.4-.276.618-.48.635-.464Z" fill="#263238"/><path d="M100.543 36.586a1.355 1.355 0 0 1-.454-.174 3.9 3.9 0 0 1-.951-.7c-.277-.28-.509-.6-.687-.952a1.411 1.411 0 0 1-.169-.453c.265.474.584.917.95 1.319.397.371.837.694 1.311.96Z" fill="#263238"/><path d="M99.078 33.357c0 .019-.252-.083-.665-.178a4.913 4.913 0 0 0-3.216.344c-.383.18-.6.333-.613.314-.015-.019.045-.05.142-.121.135-.103.28-.194.43-.271a4.463 4.463 0 0 1 3.278-.352c.163.043.323.102.475.174.103.05.17.08.17.09Z" fill="#fff"/><path d="M100.911 33.873c-.019 0-.076-.147-.238-.354a1.786 1.786 0 0 0-.787-.599 1.763 1.763 0 0 0-.986-.066c-.254.052-.4.13-.409.114a.797.797 0 0 1 .388-.2 1.65 1.65 0 0 1 1.868.713.796.796 0 0 1 .164.392Zm-4.448-3.25c.163-.082.344-.12.526-.111.444-.006.877.142 1.224.42.341.284.572.679.653 1.115.047.175.047.36 0 .535-.023 0 0-.205-.083-.518a1.901 1.901 0 0 0-1.792-1.464c-.323-.007-.528.045-.528.023Zm4.465.836c0 .019-.126-.043-.324-.095a1.761 1.761 0 0 0-1.502.285c-.164.121-.25.221-.264.207-.014-.015.048-.129.207-.276a1.602 1.602 0 0 1 1.588-.302.636.636 0 0 1 .295.18Z" fill="#263238"/><path d="M98.5 28.821c.011 0 .135.086.29.285.402.531.59 1.194.525 1.857a.892.892 0 0 1-.095.392 4.536 4.536 0 0 0-.112-1.336 4.434 4.434 0 0 0-.609-1.198Z" fill="#fff"/><path d="M100.029 28.828a3.38 3.38 0 0 0-.428.733 3.516 3.516 0 0 0-.116.838c-.015 0-.055-.09-.074-.252a1.478 1.478 0 0 1 .404-1.166c.117-.117.214-.165.214-.153Zm-6.552 18.295c.04.13.067.264.083.399.045.259.112.635.178 1.1.138.932.326 2.22.407 3.658.036.678.019 1.358-.052 2.032a17.8 17.8 0 0 1-.276 1.633c-.095.461-.176.81-.238 1.089a2.44 2.44 0 0 1-.104.397 2.54 2.54 0 0 1 .057-.407l.197-1.095c.083-.464.185-1.013.25-1.629.061-.669.075-1.341.04-2.013-.08-1.426-.254-2.719-.369-3.653l-.14-1.105a2.822 2.822 0 0 1-.033-.406Zm23.336-2.741c.034 0-.28 3.34-.713 7.451-.432 4.112-.791 7.442-.827 7.437-.035-.005.281-3.328.713-7.451.433-4.124.792-7.437.827-7.437Zm-11.38 15.134c-.033 0 .048-5.228.179-11.665.13-6.436.266-11.665.301-11.663.036.003-.045 5.23-.178 11.665-.133 6.437-.266 11.663-.302 11.663Zm14.972-22.318c.015.014-.213.238-.556.64a13.252 13.252 0 0 0-1.202 1.642c-.354.58-.66 1.187-.918 1.816-.195.475-.297.791-.316.784a.856.856 0 0 1 .048-.223c.035-.143.099-.345.187-.592a10.206 10.206 0 0 1 2.137-3.484 7.37 7.37 0 0 1 .442-.44.948.948 0 0 1 .178-.143ZM86.286 59.27a.714.714 0 0 1 .074-.193 3.24 3.24 0 0 1 .285-.49 4.27 4.27 0 0 1 .542-.644 4.623 4.623 0 0 1 1.754-1.062c.268-.087.543-.148.822-.183.188-.024.377-.032.566-.024a.603.603 0 0 1 .204.024c0 .024-.294.012-.758.088a4.833 4.833 0 0 0-2.51 1.24c-.199.19-.382.396-.546.616-.285.371-.411.64-.433.628Z" fill="#263238"/><path d="M92.695 56.026c-.392-.215-.8-.4-1.22-.554a5.56 5.56 0 0 0-5.906 1.476 9.022 9.022 0 0 0-.818 1.06.32.32 0 0 1 .038-.086c.029-.054.065-.138.126-.237.17-.284.368-.551.59-.797a5.466 5.466 0 0 1 6.893-1.072c.077.046.151.096.223.15.04.036.076.06.074.06Zm-4.601-2.213a.565.565 0 0 1 .188-.036c.173-.02.348-.028.522-.026 1.165.008 2.3.366 3.259 1.027.145.097.283.204.413.32.093.084.14.131.136.138-.005.007-.238-.154-.597-.387a6.73 6.73 0 0 0-3.213-1.013c-.435-.021-.708-.002-.708-.023Zm26.545-11.235h-7.099v3.915h7.099v-3.915Z" fill="#263238"/><path d="M113.819 43.43h-5.424v.948h5.424v-.948Z" fill="#455A64"/><path d="M106.797 35.15c-.045.272.043.514.195.538.153.024.312-.174.355-.447.042-.273-.041-.51-.193-.535-.152-.023-.311.167-.357.445Zm15.505 22.21c0 .02-.328-.082-.865-.153a5.996 5.996 0 0 0-.951-.047 6.618 6.618 0 0 0-1.15.137 6.9 6.9 0 0 0-1.103.352 6.22 6.22 0 0 0-.842.437c-.458.288-.713.516-.724.497a.931.931 0 0 1 .166-.171c.067-.064.137-.125.211-.18.088-.067.183-.146.3-.22.266-.182.549-.342.844-.475a6.32 6.32 0 0 1 1.121-.368c.387-.08.78-.123 1.175-.13a5.423 5.423 0 0 1 1.312.149c.09.02.18.046.268.076a.815.815 0 0 1 .238.095Zm-1.153-.884a14.468 14.468 0 0 0-1.528-.214 13.555 13.555 0 0 0-1.54.08 1.26 1.26 0 0 1 .442-.128 4.951 4.951 0 0 1 2.198.095c.151.031.296.088.428.167Zm-26.673 6.937s-2.717 4.903-2.724 8.86c-.007 3.958 0 19.323 0 19.323v14.328h29.37s-.63-34.31-1.949-38.742c-1.319-4.433-2.472-5.669-2.472-5.669l-21.942.383-.283 1.517Z" fill="#263238"/><path d="M100.511 71.55h-6.555v9.106h6.555v-9.105Z" fill="#fff"/><path d="M95.037 71.514c-.019 0-.05-.1-.18-.171a.32.32 0 0 0-.238-.026.31.31 0 0 0-.223.339.313.313 0 0 0 .052.136.33.33 0 0 0 .204.133c.148.029.238-.038.25-.019.012.02-.069.112-.26.105a.39.39 0 0 1-.284-.15.411.411 0 0 1 .05-.564.416.416 0 0 1 .183-.094.392.392 0 0 1 .316.064c.152.119.145.252.13.247Z" fill="#455A64"/><path d="M95.588 71.515c-.019 0-.047-.1-.18-.171a.319.319 0 0 0-.365.046.307.307 0 0 0-.08.123.305.305 0 0 0 .038.282.33.33 0 0 0 .205.134c.147.028.237-.038.237-.02 0 .02-.066.112-.259.105a.387.387 0 0 1-.285-.15.418.418 0 0 1 .053-.564.412.412 0 0 1 .347-.096.395.395 0 0 1 .151.066c.157.117.153.25.138.245Z" fill="#455A64"/><path d="M96.14 71.514c-.018 0-.05-.1-.18-.171a.318.318 0 0 0-.364.045.31.31 0 0 0-.045.404.335.335 0 0 0 .205.133c.147.029.237-.038.25-.019.011.019-.067.112-.26.104a.386.386 0 0 1-.285-.15.413.413 0 0 1 .404-.66.399.399 0 0 1 .152.067c.143.118.136.252.124.247Z" fill="#455A64"/><path d="M96.701 71.515c-.016 0-.047-.1-.178-.17a.32.32 0 0 0-.367.044.31.31 0 0 0-.042.406.33.33 0 0 0 .204.134c.148.028.238-.038.238-.02 0 .02-.066.112-.259.105a.391.391 0 0 1-.366-.339.418.418 0 0 1 .134-.375.415.415 0 0 1 .182-.094.392.392 0 0 1 .316.064c.138.117.138.25.138.245Z" fill="#455A64"/><path d="M97.241 71.514c-.019 0-.05-.1-.18-.172a.319.319 0 0 0-.365.046.31.31 0 0 0-.044.404.336.336 0 0 0 .204.133c.148.028.238-.038.25-.02.012.02-.067.112-.26.105a.387.387 0 0 1-.284-.15.414.414 0 0 1 .402-.66.398.398 0 0 1 .151.066c.145.12.138.252.126.248Z" fill="#455A64"/><path d="M97.792 71.514c-.02 0-.05-.1-.181-.171a.311.311 0 0 0-.409.45.33.33 0 0 0 .205.132c.147.029.237-.038.25-.019.011.02-.07.112-.262.105a.388.388 0 0 1-.283-.15.413.413 0 0 1 .403-.66.393.393 0 0 1 .15.066c.146.119.138.252.127.247Z" fill="#455A64"/><path d="M98.34 71.515c-.018 0-.047-.1-.18-.171a.319.319 0 0 0-.365.046.317.317 0 0 0-.082.123.312.312 0 0 0 .04.282.33.33 0 0 0 .205.134c.147.028.238-.038.238-.02 0 .02-.067.112-.26.105a.388.388 0 0 1-.285-.15.413.413 0 0 1 .403-.66.394.394 0 0 1 .151.066c.16.117.16.25.136.245Z" fill="#455A64"/><path d="M98.893 71.514c-.019 0-.05-.1-.18-.171a.318.318 0 0 0-.365.045.312.312 0 0 0-.044.404.33.33 0 0 0 .204.133c.148.029.238-.038.25-.019.012.019-.07.112-.26.104a.386.386 0 0 1-.285-.15.413.413 0 0 1 .404-.66.398.398 0 0 1 .153.067c.142.118.135.252.123.247Z" fill="#455A64"/><path d="M99.441 71.514c-.019 0-.047-.1-.178-.171a.31.31 0 0 0-.406.45.33.33 0 0 0 .204.132c.147.029.238-.038.238-.02 0 .02-.067.113-.26.105a.387.387 0 0 1-.285-.15.418.418 0 0 1 .053-.564.393.393 0 0 1 .498-.03c.155.12.15.253.136.248Z" fill="#455A64"/><path d="M99.994 71.514c-.019 0-.05-.1-.18-.172a.319.319 0 0 0-.365.046.31.31 0 0 0-.044.404.336.336 0 0 0 .204.133c.148.028.238-.038.25-.02.012.02-.067.112-.26.105a.387.387 0 0 1-.285-.15.414.414 0 0 1 .403-.66.398.398 0 0 1 .151.066c.145.12.138.252.126.248Z" fill="#455A64"/><path d="M91.557 72.484a19.517 19.517 0 0 0 11.323 2.318c.095 3.658.189 7.316.281 10.973.035 1.364.059 2.786-.526 4.02-.544 1.154-1.576 2.02-2.707 2.614a7.81 7.81 0 0 1-4.39.931 6.004 6.004 0 0 1-3.962-2.015" fill="#263238"/><path d="M91.576 91.314a.42.42 0 0 1 .074.072c.047.047.111.126.209.216.274.268.575.507.898.713a6.125 6.125 0 0 0 1.664.751 6.61 6.61 0 0 0 2.389.226 8.038 8.038 0 0 0 2.802-.777 6.622 6.622 0 0 0 2.586-2.066 4.618 4.618 0 0 0 .73-1.637 8.446 8.446 0 0 0 .199-1.876c0-.644-.019-1.302-.033-1.97-.014-.668-.036-1.345-.052-2.032a5324.47 5324.47 0 0 1-.202-8.131l.061.055c-2.83.28-5.687-.064-8.37-1.006a19.16 19.16 0 0 1-2.218-.95c-.252-.127-.437-.238-.566-.305l-.142-.08-.048-.03a.16.16 0 0 1 .052.022l.148.074c.13.062.318.166.57.285.727.348 1.472.653 2.234.913a19.769 19.769 0 0 0 8.319.972h.06v.05l.213 8.13c.017.685.034 1.365.053 2.03.019.666.04 1.327.031 1.976a8.684 8.684 0 0 1-.205 1.901 4.815 4.815 0 0 1-.753 1.676 5.73 5.73 0 0 1-1.224 1.243 7.81 7.81 0 0 1-1.412.848c-.89.43-1.853.69-2.838.77a6.56 6.56 0 0 1-2.415-.237 6.058 6.058 0 0 1-1.663-.778 5.186 5.186 0 0 1-.892-.743 3.382 3.382 0 0 1-.259-.305Z" fill="#455A64"/><path d="M119.9 72.484a19.519 19.519 0 0 1-11.328 2.318c-.095 3.658-.189 7.316-.281 10.973-.035 1.364-.059 2.786.526 4.02.544 1.154 1.575 2.02 2.707 2.614a7.815 7.815 0 0 0 4.397.915 6.005 6.005 0 0 0 3.96-2.016" fill="#263238"/><path d="M119.879 91.312c-.082.107-.17.208-.264.305-.268.28-.567.53-.891.743a6.07 6.07 0 0 1-1.664.778 6.573 6.573 0 0 1-2.415.237 8.041 8.041 0 0 1-2.84-.77 7.876 7.876 0 0 1-1.412-.848 5.753 5.753 0 0 1-1.224-1.243 4.815 4.815 0 0 1-.753-1.676 8.872 8.872 0 0 1-.205-1.901c0-.65.017-1.308.034-1.975l.05-2.03.214-8.131v-.062h.059a19.77 19.77 0 0 0 10.546-1.887c.252-.119.439-.224.57-.285l.148-.074a.154.154 0 0 1 .052-.021.276.276 0 0 1-.048.028l-.142.08c-.129.07-.314.18-.564.305-.719.364-1.46.681-2.22.95a19.485 19.485 0 0 1-8.361 1.02l.064-.054-.204 8.13a398.97 398.97 0 0 1-.053 2.033c-.014.668-.04 1.326-.033 1.97-.002.63.065 1.26.2 1.876.133.588.381 1.144.729 1.637a6.637 6.637 0 0 0 2.589 2.066 8.011 8.011 0 0 0 2.802.777 6.593 6.593 0 0 0 2.377-.226 6.127 6.127 0 0 0 1.664-.751 5.56 5.56 0 0 0 .898-.713c.097-.09.162-.169.209-.216a.554.554 0 0 1 .088-.072Zm-13.99-23.786c.034 0 .062 8.544.062 19.083 0 10.538-.028 19.085-.062 19.085-.033 0-.061-8.556-.061-19.085 0-10.53.028-19.083.061-19.083Z" fill="#455A64"/><path d="M114.821 16.762c-.644-2.731-1.794-5.524-4.057-7.185-2.02-1.479-4.963-2.042-7.456-1.857-1.229.093-2.6.713-3.653 1.348-1.44.88-2.008 2.586-2.667 4.14-1.321 3.116-1.005 7.266 0 8.39l13.049 6.358c2.232-1.257 4.651-2.947 5.169-5.466.347-1.697.015-4.017-.385-5.728Z" fill="#E14942"/><path d="m109.88 11.914-8.15-2.12c-2.615-.295-4.373 2.914-4.556 5.535-.202 2.914-.338 6.482 0 8.66.663 4.377 4.012 4.957 4.012 4.957s0 .064.026 1.364l.031.062 8.898-.323 1.106-16.569a1.54 1.54 0 0 0-1.367-1.566Z" fill="#FFBE9D"/><path d="M98.63 18.191a.56.56 0 0 0 .538.568.537.537 0 0 0 .582-.501.56.56 0 0 0-.537-.57.537.537 0 0 0-.582.503Zm-.692-1.001c.069.074.494-.238 1.098-.238.603 0 1.043.312 1.11.238.033-.033-.038-.164-.238-.307a1.564 1.564 0 0 0-.889-.28 1.473 1.473 0 0 0-.875.275c-.178.148-.242.279-.206.312Zm6.506 1.135a.566.566 0 0 0 .538.57.531.531 0 0 0 .527-.295.528.528 0 0 0 .055-.206.56.56 0 0 0-.537-.57.54.54 0 0 0-.527.296.546.546 0 0 0-.056.205Zm-.574-.981c.069.074.496-.237 1.098-.237.601 0 1.046.309 1.11.237.033-.033-.036-.166-.238-.309a1.548 1.548 0 0 0-.889-.278 1.468 1.468 0 0 0-.875.276c-.178.147-.244.28-.206.311Zm-2.223 4.456c0-.036-.371-.103-.979-.186-.155-.017-.3-.047-.326-.152a.784.784 0 0 1 .107-.456l.475-1.172c.644-1.664 1.113-3.038 1.046-3.064-.067-.026-.646 1.307-1.291 2.974-.158.41-.306.806-.444 1.188a.886.886 0 0 0-.083.606.386.386 0 0 0 .252.238c.085.024.173.036.261.038.599.021.979.026.982-.015Z" fill="#263238"/><path d="M101.182 28.948c2.06.045 4.091-.482 5.868-1.524 0 0-1.468 3.052-5.844 2.615l-.024-1.091Zm2.453-6.003a.977.977 0 0 0-.804-.444 1.265 1.265 0 0 0-1.152.56.771.771 0 0 0-.055.566c.04.098 0 .05.083.117.249.259.558.453.899.566a.949.949 0 0 0 1-.362.967.967 0 0 0 .029-1.003Z" fill="#EB996E"/><path d="M103.421 22.237c-.097 0-.102.649-.668 1.11-.566.461-1.26.385-1.267.475 0 .04.155.129.45.138a1.63 1.63 0 0 0 1.057-.361c.286-.231.472-.564.518-.93.026-.273-.045-.434-.09-.432Z" fill="#263238"/><path d="M103.593 15.952c.06.167.663.093 1.369.183s1.281.285 1.377.14c.04-.07-.058-.237-.288-.387a2.397 2.397 0 0 0-2.089-.238c-.252.098-.383.224-.369.302Zm-5.422-.846c.105.138.523 0 1.022 0 .5 0 .922.097 1.022-.045.043-.07-.024-.207-.207-.338a1.477 1.477 0 0 0-1.647.04c-.178.143-.233.276-.19.343Z" fill="#E14942"/><path d="M110.072 18.808c.059-.028 2.433-.782 2.412 1.664-.021 2.446-2.472 1.911-2.472 1.842 0-.069.06-3.506.06-3.506Z" fill="#FFBE9D"/><path d="M110.765 21.396c.012 0 .043.03.114.064a.421.421 0 0 0 .319 0c.259-.093.475-.5.496-.939a1.408 1.408 0 0 0-.114-.61.491.491 0 0 0-.318-.328.214.214 0 0 0-.252.113c-.034.067-.017.117-.031.121-.014.005-.052-.042-.031-.142a.261.261 0 0 1 .097-.152.324.324 0 0 1 .238-.062.603.603 0 0 1 .442.383c.102.212.15.446.14.682-.019.492-.275.95-.629 1.05a.464.464 0 0 1-.388-.069c-.078-.052-.09-.107-.083-.111Z" fill="#EB996E"/><path d="M111.572 22.21s.105.102.09.32a.448.448 0 0 1-.171.343.505.505 0 0 1-.475.033.497.497 0 0 1-.326-.337.52.52 0 0 1 .067-.376c.121-.19.276-.207.273-.195-.002.012-.114.067-.197.238a.451.451 0 0 0-.031.307.381.381 0 0 0 .257.237.405.405 0 0 0 .359 0 .388.388 0 0 0 .152-.259 1.35 1.35 0 0 0 .002-.311Z" fill="#263238"/><path d="M96.98 16.024c.328-.713.967-1.224 1.647-1.611.68-.388 1.412-.666 2.087-1.058a7.341 7.341 0 0 0 3.282-4.105 4.405 4.405 0 0 0-3.91.05 5.984 5.984 0 0 0-2.702 2.919 9.376 9.376 0 0 0-.744 3.955" fill="#E14942"/><path d="M110.631 11.262c-1.806-1.716-5.217-2.662-7.57-1.858.349 2.056 1.901 4.364 3.263 5.942 1.362 1.578 2.204 4.366 5.191 3.42.205-.064.44.124.625.014a.765.765 0 0 0 .29-.451 7 7 0 0 0-1.799-7.066ZM97.115 18.99a.888.888 0 0 1-.428-.024 1.678 1.678 0 0 1-.939-.691 2.56 2.56 0 0 1-.37-1.688 6.3 6.3 0 0 1 .17-1.012 10.78 10.78 0 0 1 2.21-4.4c.251-.298.52-.582.804-.848l.238-.21a.413.413 0 0 1 .09-.066 2.84 2.84 0 0 1-.294.31c-.188.201-.476.474-.77.871a11.32 11.32 0 0 0-1.852 3.328 9.454 9.454 0 0 0-.307 1.046 6.484 6.484 0 0 0-.175.993 2.51 2.51 0 0 0 .328 1.63c.205.325.515.569.879.692.136.035.275.059.416.07Zm18.716 10.436a.968.968 0 0 1-.05.128 1.727 1.727 0 0 1-.221.328 1.797 1.797 0 0 1-.49.392 1.731 1.731 0 0 1-.806.212 1.702 1.702 0 0 1-.965-.297 1.767 1.767 0 0 1-.202-2.75c.177-.168.4-.279.64-.319a.71.71 0 0 1 .687.21.66.66 0 0 1 .069.694.933.933 0 0 1-.488.475 1.805 1.805 0 0 1-.618.142 2.423 2.423 0 0 1-2.586-2.086 2.365 2.365 0 0 1-.019-.395c0-.046.006-.093.017-.138.012 0 0 .19.05.523.087.47.307.903.635 1.25a2.387 2.387 0 0 0 1.901.713c.2-.01.396-.056.58-.135a.813.813 0 0 0 .423-.407.544.544 0 0 0-.052-.568.598.598 0 0 0-.573-.164 1.35 1.35 0 0 0-.951.801 1.613 1.613 0 0 0 .554 2.059 1.603 1.603 0 0 0 1.678.109 1.79 1.79 0 0 0 .487-.364c.112-.129.212-.267.3-.413Z" fill="#E14942"/><path d="M112.485 31.562a.978.978 0 0 1-.221-.116 3.755 3.755 0 0 1-.537-.421 4.133 4.133 0 0 1-1.16-4.14c.059-.22.139-.435.238-.64a.845.845 0 0 1 .128-.214c.022 0-.152.324-.285.875a4.277 4.277 0 0 0 1.136 4.057c.404.402.716.58.701.6Z" fill="#E14942"/><path d="M115.159 21.311c-.017 0-.022-.238-.105-.673a6.324 6.324 0 0 0-.632-1.73 8.89 8.89 0 0 0-1.664-2.163 17.473 17.473 0 0 0-2.669-2.04c-1.005-.646-1.987-1.23-2.852-1.824a14.844 14.844 0 0 1-2.139-1.747 8.603 8.603 0 0 1-1.169-1.45 4.986 4.986 0 0 1-.252-.44.727.727 0 0 1-.076-.16c.011 0 .123.21.368.574a9.3 9.3 0 0 0 1.188 1.426 15.85 15.85 0 0 0 2.139 1.716c.856.584 1.838 1.164 2.853 1.816a16.715 16.715 0 0 1 2.681 2.06 8.76 8.76 0 0 1 1.663 2.204 6.09 6.09 0 0 1 .602 1.763c.027.167.045.335.054.504a1 1 0 0 1 .01.164Z" fill="#fff"/><path d="M113.814 15.275a.547.547 0 0 1-.097-.079l-.266-.237-.19-.176c-.072-.062-.155-.124-.238-.195-.174-.135-.364-.302-.597-.454l-.359-.238c-.126-.085-.263-.164-.401-.252-.276-.175-.585-.34-.906-.52a51.113 51.113 0 0 0-2.139-1.072 33.457 33.457 0 0 1-2.139-1.105c-.316-.195-.623-.366-.891-.561-.136-.093-.269-.18-.392-.271l-.347-.271c-.224-.169-.405-.35-.569-.5-.08-.078-.156-.147-.223-.213l-.171-.197-.238-.274a.53.53 0 0 1-.076-.102.543.543 0 0 1 .095.086l.25.256.178.188c.069.064.15.13.238.205.183.168.375.326.575.475l.347.257c.124.088.257.17.392.263.269.188.575.357.891.545.642.359 1.367.713 2.14 1.093.772.38 1.497.73 2.139 1.084.32.183.629.352.905.535.138.088.273.17.399.256l.357.26c.206.147.403.306.592.475.083.073.164.138.237.202l.183.185.25.262c.057.054.086.088.071.09Z" fill="#263238"/><path d="M97.075 15.384a1.99 1.99 0 0 1 .06-.376 2.94 2.94 0 0 1 .102-.434c.05-.192.109-.38.178-.566.038-.105.078-.212.121-.323.043-.112.1-.224.152-.343.103-.237.238-.475.383-.73a8.607 8.607 0 0 1 2.574-2.737c.23-.155.468-.298.713-.428.114-.06.221-.126.331-.176l.316-.14c.197-.095.387-.152.551-.214a3.57 3.57 0 0 1 .428-.129 2.51 2.51 0 0 1 .373-.083c0 .029-.523.145-1.314.507l-.309.145c-.107.052-.212.118-.324.18a8.004 8.004 0 0 0-.691.43 8.942 8.942 0 0 0-2.539 2.703c-.142.237-.285.475-.39.713-.052.116-.111.223-.156.335l-.126.316c-.33.818-.404 1.35-.433 1.35Z" fill="#fff"/><path d="M113.601 67.08a6.618 6.618 0 0 0 1.699.664c1.138.306 4.991.663 4.991.663l8.207-.651s.675-.628.423-.602c-.252.026-15.32-.073-15.32-.073ZM90.355 56.69s2.377.598 3.565.838c2.218.452 5.077.238 6.441.452l-2.645 4.404s-1.728 1.248-5.614 1.158c-3.803-.079-5.704-1.766-5.704-1.766s-.235-4.885 3.957-5.087Z" fill="#FFBE9D"/><path d="M121.123 66.21c11.259 0 20.386-1.593 20.386-3.556 0-1.964-9.127-3.556-20.386-3.556-11.259 0-20.386 1.592-20.386 3.556 0 1.963 9.127 3.555 20.386 3.555Z" fill="#E0E0E0"/><path d="m101.217 62.945 2.821 2.9s9.674 1.663 17.826 1.68a66.442 66.442 0 0 0 17.417-2.28l1.797-2.593-39.861.293Z" fill="#E0E0E0"/><path d="m140.308 63.87-.095.028-.283.073-1.091.27c-.475.116-1.05.26-1.73.389l-1.089.22-.591.122-.63.105a79.436 79.436 0 0 1-13.548 1.162c-2.662 0-5.196-.117-7.492-.326-2.296-.209-4.356-.475-6.072-.775-3.439-.577-5.521-1.15-5.521-1.15l.097.017.288.06 1.095.237c.238.05.502.114.794.169l.951.178 1.088.207 1.227.2c1.716.287 3.777.537 6.068.746 2.291.209 4.825.309 7.482.316a82.424 82.424 0 0 0 13.547-1.124l.628-.103.594-.114 1.089-.211c.679-.124 1.259-.262 1.735-.371l1.093-.238.285-.062.081-.026Zm-.81-.19c.04-.122.062-.25.064-.378a.752.752 0 0 0-.166-.426 1.599 1.599 0 0 0-.497-.392c-.854-.475-2.263-.687-3.962-1.024a69.323 69.323 0 0 0-6.03-.901 74.581 74.581 0 0 0-7.451-.426 75.638 75.638 0 0 0-7.459.314 79.159 79.159 0 0 0-6.044.803c-.77.128-1.531.301-2.279.521a8.827 8.827 0 0 0-1.628.673 6.559 6.559 0 0 0-.93.613l-.221.188-.078.061a.398.398 0 0 1 .069-.07c.05-.046.119-.115.216-.198a6.21 6.21 0 0 1 .92-.637 8.783 8.783 0 0 1 1.633-.697 18.58 18.58 0 0 1 2.284-.54 74.707 74.707 0 0 1 6.049-.829 73.49 73.49 0 0 1 14.933.11c2.284.252 4.328.594 6.032.93 1.704.334 3.104.593 3.97 1.069.193.102.364.243.501.413a.75.75 0 0 1 .074.822Z" fill="#263238"/><path d="M97.414 61.516v2.498s1.595 1.395 2.258 1.728c.663.333 2.191.63 2.591.364l.237-.33s.73 0 1.063-.2c.333-.2-2.615-2.325-2.615-2.325s-.366-.154-.199-.765c.166-.611 2.079-1.566 2.079-1.566s-.206 1.226.511 2.032c.457.51 1.396.3 1.396.3v-2.159a2.563 2.563 0 0 0-.433-1.495c-.475-.742-.951-1.954-3.218-2.006h-.212c-2.46.02-3.458 3.924-3.458 3.924Z" fill="#FFBE9D"/><path d="M98.767 62.423c-.026.25-.008.503.055.747.08.26.21.502.383.713.216.254.473.47.76.642.609.373 1.224.613 1.633.862.166.094.325.2.475.317.105.085.155.14.15.145-.005.004-.237-.17-.658-.386-.421-.216-1.032-.449-1.664-.834a2.995 2.995 0 0 1-.782-.675 2.021 2.021 0 0 1-.378-.758 1.425 1.425 0 0 1-.03-.57.474.474 0 0 1 .056-.203Zm1.237-2.886a3.622 3.622 0 0 1-.461.35 2.57 2.57 0 0 0-.89 1.015c-.05.119-.085.243-.106.37a.509.509 0 0 1-.214.343 2.798 2.798 0 0 0-.285.17.973.973 0 0 0-.2.196 1.715 1.715 0 0 0-.238.506s-.014-.057 0-.16a1.077 1.077 0 0 1 .376-.622c.09-.068.186-.13.285-.185.188-.105.147-.407.271-.668a2.42 2.42 0 0 1 .95-1.037c.158-.114.33-.207.512-.278Z" fill="#EB996E"/><path d="M126.888 45.829s-.989 7.92 2.83 8.725l.131 6.726s-2.027.476-1.985 1.027c.029.354 4.873.45 4.754-.066-.119-.516-2.07-.984-2.07-.984l.026-6.715a3.496 3.496 0 0 0 2.507-2.902 23.544 23.544 0 0 0-.038-6.053s-3.127-1.54-6.155.242Z" fill="#fff"/><path d="m126.886 45.828.095-.055.288-.157c.064-.033.133-.076.214-.111l.271-.112c.1-.038.202-.088.318-.124l.373-.109a6.589 6.589 0 0 1 1.999-.21c.423.018.844.073 1.258.165.467.1.922.247 1.359.44h.019v.021c.098.67.162 1.393.2 2.16.044.811.044 1.624 0 2.434-.024.428-.062.863-.121 1.305a4.025 4.025 0 0 1-.376 1.32 3.563 3.563 0 0 1-2.196 1.8l.045-.056c0 2.087-.014 4.356-.021 6.714l-.048-.06a8.54 8.54 0 0 1 1.414.476c.169.07.329.16.476.269.08.056.146.13.192.216 0 .026.022.048.031.074a.155.155 0 0 1-.021.109.316.316 0 0 1-.129.102 2.15 2.15 0 0 1-.525.131c-.176.026-.349.04-.523.055a18.15 18.15 0 0 1-2.06.014c-.34-.02-.675-.043-1.008-.09a1.866 1.866 0 0 1-.502-.122.188.188 0 0 1-.066-.047.12.12 0 0 1-.031-.053v-.047a.323.323 0 0 1 .04-.143.672.672 0 0 1 .181-.2c.272-.19.571-.337.886-.439.303-.107.611-.2.923-.276l-.046.057-.118-6.726.038.048a2.877 2.877 0 0 1-1.022-.452 3.178 3.178 0 0 1-.744-.763 5.617 5.617 0 0 1-.792-1.773 13.143 13.143 0 0 1-.399-3.09 19.466 19.466 0 0 1 .109-2.51c.015-.116.026-.175.026-.175v.178c0 .119-.021.294-.035.518a22.124 22.124 0 0 0-.031 1.99 13.05 13.05 0 0 0 .421 3.089 5.46 5.46 0 0 0 .786 1.742c.194.285.435.534.713.737.301.2.637.341.991.414h.038v.04c.043 2.008.088 4.278.138 6.724v.047h-.047a9.878 9.878 0 0 0-.908.274 3.226 3.226 0 0 0-.853.42.55.55 0 0 0-.148.162.2.2 0 0 0-.026.093v.016h-.014.014c.011.01.023.018.036.024.153.057.313.094.475.11.326.045.661.068.996.085.682.034 1.365.03 2.046-.014.341-.01.679-.07 1.003-.174a.2.2 0 0 0 .079-.057.024.024 0 0 0 0-.016l-.022-.046a.54.54 0 0 0-.156-.173 2.351 2.351 0 0 0-.447-.254 8.923 8.923 0 0 0-1.393-.46h-.05v-.051c0-2.36.019-4.628.029-6.715v-.045h.045a3.459 3.459 0 0 0 2.122-1.737 3.89 3.89 0 0 0 .369-1.284c.059-.44.099-.872.126-1.295a24.912 24.912 0 0 0-.174-4.578l.024.031a7.49 7.49 0 0 0-2.589-.618 6.65 6.65 0 0 0-1.984.188l-.373.104c-.117.034-.219.084-.319.12l-.271.104c-.081.033-.149.074-.214.104l-.29.145-.114.048Z" fill="#263238"/><path d="M132.7 50.024a.201.201 0 0 0-.16-.19 1.238 1.238 0 0 0-.575-.076 2.381 2.381 0 0 0-.451.22c-.661.34-1.457.205-2.187.063-.73-.143-1.293-.374-2.056.126.092.781.307 1.543.637 2.258.366.696.991 1.297 1.764 1.44.9.164 1.839-.345 2.341-1.113a4.203 4.203 0 0 0 .687-2.728Z" fill="#E14942"/><path d="M133.043 45.592a1.076 1.076 0 0 1-.238.08 9.468 9.468 0 0 1-.649.171c-.717.176-1.448.292-2.184.35a8.562 8.562 0 0 1-2.211-.117 5.627 5.627 0 0 1-.651-.161 1.09 1.09 0 0 1-.237-.088c0-.022.342.078.896.164a9.9 9.9 0 0 0 2.189.078 17.712 17.712 0 0 0 2.172-.311 8.09 8.09 0 0 1 .913-.166Z" fill="#263238"/><path d="M107.692 46.24s-.989 7.92 2.83 8.726l.131 6.726s-2.027.476-1.984 1.027c.028.354 4.872.45 4.753-.066-.119-.516-2.065-.977-2.065-.977l.028-6.715a3.495 3.495 0 0 0 2.508-2.902 23.589 23.589 0 0 0-.038-6.053s-3.131-1.548-6.163.235Z" fill="#fff"/><path d="m107.692 46.242.095-.055.285-.156c.065-.034.136-.076.217-.112l.271-.112c.099-.035.202-.088.318-.123l.373-.11a6.592 6.592 0 0 1 1.999-.209c.423.018.844.072 1.257.164.467.1.923.247 1.36.44h.019v.021c.097.67.162 1.393.2 2.16.044.811.044 1.624 0 2.434-.024.428-.062.863-.124 1.305a3.97 3.97 0 0 1-.373 1.32 3.561 3.561 0 0 1-2.196 1.801l.045-.057c0 2.087-.014 4.357-.024 6.714l-.047-.06c.488.117.965.276 1.426.476.168.07.328.16.475.269.08.057.145.13.193.216 0 .026.021.048.03.074a.15.15 0 0 1-.021.11.314.314 0 0 1-.128.101c-.169.066-.346.11-.526.131a6.53 6.53 0 0 1-.525.055 18.15 18.15 0 0 1-2.06.014 11.797 11.797 0 0 1-1.006-.088 1.933 1.933 0 0 1-.501-.123.218.218 0 0 1-.067-.046.16.16 0 0 1-.031-.054.127.127 0 0 1 0-.048.313.313 0 0 1 .041-.143.667.667 0 0 1 .18-.2c.272-.19.571-.337.887-.439.302-.107.61-.2.922-.276l-.045.057c-.043-2.45-.083-4.715-.121-6.723l.04.045a2.882 2.882 0 0 1-1.024-.452 3.134 3.134 0 0 1-.742-.763 5.614 5.614 0 0 1-.791-1.773 13.09 13.09 0 0 1-.4-3.09c-.015-.664.004-1.329.057-1.991a10.382 10.382 0 0 1 .079-.694s0 .059-.012.178-.022.295-.036.518a22.124 22.124 0 0 0-.031 1.99 13.1 13.1 0 0 0 .421 3.09 5.5 5.5 0 0 0 .787 1.744c.197.285.442.533.725.734.298.208.634.356.988.435h.038v.04l.138 6.727v.023l-.047.012a9.878 9.878 0 0 0-.908.274 3.32 3.32 0 0 0-.853.42.534.534 0 0 0-.148.164.16.16 0 0 0-.026.09v.017h-.014.014a.19.19 0 0 0 .036.022c.149.056.305.093.463.11.326.047.661.068.996.085.682.034 1.365.03 2.046-.015a3.66 3.66 0 0 0 1.003-.173.185.185 0 0 0 .079-.057.024.024 0 0 0 0-.017l-.022-.045a.528.528 0 0 0-.156-.173 2.37 2.37 0 0 0-.447-.255 8.873 8.873 0 0 0-1.395-.459h-.048v-.047c.012-2.36.021-4.628.031-6.714v-.046l.045-.011a3.45 3.45 0 0 0 2.123-1.738c.196-.403.32-.837.368-1.283.059-.44.1-.873.126-1.296.044-.807.044-1.616 0-2.424a23.049 23.049 0 0 0-.185-2.14l.021.03a6.974 6.974 0 0 0-1.338-.44 7.115 7.115 0 0 0-1.243-.174 6.66 6.66 0 0 0-1.985.188l-.373.105c-.116.033-.219.083-.318.118l-.271.105c-.081.033-.15.074-.214.105l-.293.145-.102.028Z" fill="#263238"/><path d="M113.506 50.438a.204.204 0 0 0-.047-.123.198.198 0 0 0-.113-.068 1.268 1.268 0 0 0-.575-.076 2.387 2.387 0 0 0-.451.221c-.661.34-1.457.205-2.187.062-.73-.142-1.293-.373-2.056.126.092.782.307 1.544.637 2.258.366.696.991 1.298 1.764 1.44.9.167 1.839-.344 2.341-1.112a4.202 4.202 0 0 0 .687-2.728Z" fill="#E14942"/><path d="M113.848 46.006a.968.968 0 0 1-.238.083 10.81 10.81 0 0 1-.646.169 13.79 13.79 0 0 1-2.185.349 8.46 8.46 0 0 1-2.21-.117 5.626 5.626 0 0 1-.651-.161 1.023 1.023 0 0 1-.238-.088c0-.022.342.078.896.164a9.884 9.884 0 0 0 2.187.078 17.656 17.656 0 0 0 2.175-.311c.3-.072.604-.128.91-.166Z" fill="#263238"/><path d="M115.88 47.503s-.989 7.92 2.83 8.725l.131 6.727s-2.027.475-1.984 1.026c.028.354 4.872.45 4.753-.069-.119-.518-2.063-.974-2.063-.974l.026-6.714a3.487 3.487 0 0 0 2.508-2.902 23.589 23.589 0 0 0-.038-6.054s-3.135-1.547-6.163.235Z" fill="#fff"/><path d="M115.879 47.503a.868.868 0 0 1 .095-.054l.287-.157c.064-.034.133-.079.214-.112l.271-.112c.1-.038.202-.088.319-.123l.373-.11a6.518 6.518 0 0 1 2.001-.209c.422.017.842.072 1.255.164.467.099.923.246 1.359.44h.019v.021c.096.67.16 1.393.198 2.16.044.811.044 1.624 0 2.435a16.7 16.7 0 0 1-.122 1.304 4.048 4.048 0 0 1-.375 1.32 3.574 3.574 0 0 1-2.194 1.801l.043-.057c0 2.087-.014 4.354-.021 6.715l-.048-.06a8.56 8.56 0 0 1 1.426.475c.169.07.328.16.475.269.081.056.146.13.193.216 0 .024.021.048.031.074a.15.15 0 0 1-.022.11.282.282 0 0 1-.128.1 2.053 2.053 0 0 1-.525.132c-.176.024-.35.04-.523.055-.686.044-1.374.049-2.061.014-.34-.019-.675-.043-1.007-.09a1.85 1.85 0 0 1-.509-.117.245.245 0 0 1-.067-.047.126.126 0 0 1-.031-.055v-.045a.34.34 0 0 1 .041-.145.713.713 0 0 1 .181-.2c.272-.188.571-.335.886-.437.303-.107.61-.2.922-.276l-.045.057-.119-6.726.038.048a2.877 2.877 0 0 1-1.022-.452 3.2 3.2 0 0 1-.744-.763 5.641 5.641 0 0 1-.791-1.773 13.143 13.143 0 0 1-.399-3.09 19.185 19.185 0 0 1 .109-2.51c.014-.116.026-.176.026-.176s0 .06-.012.176c-.012.117-.021.297-.035.52a21.358 21.358 0 0 0-.031 1.988c.016 1.043.157 2.08.42 3.09.158.622.424 1.212.787 1.742.194.285.435.534.713.737.298.208.634.355.989.435h.038v.038c.043 2.01.088 4.278.138 6.726v.047l-.048.012c-.307.076-.61.167-.908.274a3.25 3.25 0 0 0-.853.42.547.547 0 0 0-.147.162.19.19 0 0 0-.027.093v.016h-.009.014a.218.218 0 0 0 .036.024c.149.055.305.092.463.11.326.044.661.068.996.085.682.034 1.365.03 2.047-.014.34-.011.678-.07 1.003-.174a.203.203 0 0 0 .078-.057.024.024 0 0 0 0-.017l-.021-.047a.558.558 0 0 0-.157-.171 2.241 2.241 0 0 0-.447-.255 8.923 8.923 0 0 0-1.393-.458l-.05-.012v-.048c0-2.36.019-4.63.029-6.714V56.2l.045-.012a3.45 3.45 0 0 0 2.122-1.738 3.89 3.89 0 0 0 .369-1.283c.059-.44.1-.872.126-1.295.047-.808.052-1.617.014-2.425a24.524 24.524 0 0 0-.188-2.153l.024.03a6.912 6.912 0 0 0-1.34-.439 7.103 7.103 0 0 0-1.244-.173 6.65 6.65 0 0 0-1.984.188l-.373.104c-.117.033-.219.083-.319.119l-.271.105c-.081.033-.149.073-.214.104l-.29.145-.099.026Z" fill="#263238"/><path d="M121.694 51.699a.204.204 0 0 0-.047-.123.198.198 0 0 0-.113-.068 1.238 1.238 0 0 0-.575-.076 2.3 2.3 0 0 0-.451.221c-.661.34-1.457.205-2.187.062-.73-.142-1.293-.373-2.056.126.092.782.307 1.544.637 2.258.366.697.991 1.298 1.764 1.44.9.164 1.839-.346 2.341-1.112a4.203 4.203 0 0 0 .687-2.728Z" fill="#E14942"/><path d="M122.035 47.266a1.076 1.076 0 0 1-.238.081c-.152.047-.373.105-.649.171-.717.174-1.448.29-2.184.35a8.552 8.552 0 0 1-2.21-.117 5.622 5.622 0 0 1-.652-.162 1.096 1.096 0 0 1-.237-.087c0-.022.342.075.896.163.724.106 1.458.133 2.189.079.73-.059 1.455-.163 2.172-.311.301-.073.606-.128.913-.167Z" fill="#263238"/><path d="M111.64 18.08a1.36 1.36 0 0 1-.167.277c-.16.247-.345.478-.551.689a2.056 2.056 0 0 1-1.148.613c-.267.041-.539 0-.782-.116a1.854 1.854 0 0 1-.635-.559 14.753 14.753 0 0 1-1.407-2.54 11.74 11.74 0 0 1-.321-.818 1.584 1.584 0 0 1-.092-.31c.054.094.1.192.137.293.081.188.2.475.357.799.403.872.88 1.71 1.426 2.5.154.218.355.398.589.525.221.109.47.148.714.112.42-.066.809-.264 1.109-.566.206-.202.396-.42.569-.65.06-.089.127-.172.202-.248Z" fill="#E14942"/><path d="M63.203 9.793a7.563 7.563 0 0 0-7.23-7.273l-.39-.017c-4.23.062-6.538 3.691-6.358 7.917l.031 16.913s6.605 3.898 6.857 4.029l2.947 2.115-.033-9.507s4.083-.454 4.31-4.516c.106-1.949.002-5.999-.134-9.661Z" fill="#FFBE9D"/><path d="M59.058 23.966a9.854 9.854 0 0 1-5.245-1.785s1.124 2.973 5.186 2.783l.059-.998Z" fill="#EB996E"/><path d="M61.525 12.663a.58.58 0 0 1-.582.558.553.553 0 0 1-.575-.546.58.58 0 0 1 .582-.561.554.554 0 0 1 .575.549Zm.714-.924c-.076.073-.5-.271-1.124-.297-.625-.027-1.094.266-1.158.187-.03-.035.048-.168.255-.304.278-.172.602-.255.929-.237.324.014.636.129.891.33.193.161.25.287.207.32Zm-6.684.924a.58.58 0 0 1-.582.558.55.55 0 0 1-.578-.546.58.58 0 0 1 .583-.561.553.553 0 0 1 .577.549Zm.561-1.083c-.076.075-.501-.27-1.124-.294-.623-.024-1.093.266-1.157.186-.031-.034.047-.167.252-.305a1.6 1.6 0 0 1 .931-.237c.324.012.636.128.89.33.185.16.244.3.208.32Zm2.06 4.73c0-.036.39-.086 1.02-.14.16 0 .311-.034.345-.14a.839.839 0 0 0-.088-.476c-.133-.39-.272-.8-.416-1.231-.58-1.754-.991-3.192-.92-3.216.071-.023.597 1.381 1.174 3.135l.4 1.238a.913.913 0 0 1 .054.628.402.402 0 0 1-.27.221c-.09.02-.18.028-.272.026-.635.005-1.027-.01-1.027-.045Zm-1.852.352c.1 0 .071.675.63 1.188.559.513 1.281.475 1.283.556 0 .045-.166.126-.475.121a1.68 1.68 0 0 1-1.072-.428 1.462 1.462 0 0 1-.487-.986c-.01-.304.074-.459.121-.451Zm.058-7.506c-.069.166-.687.06-1.426.117-.739.057-1.333.237-1.426.073-.04-.076.07-.237.314-.382a2.48 2.48 0 0 1 2.17-.145c.268.118.397.259.368.337Zm5.711.759c-.114.138-.537-.028-1.052-.057-.516-.028-.951.052-1.053-.1-.04-.073.033-.211.237-.337a1.528 1.528 0 0 1 1.697.126c.17.164.224.311.172.368Z" fill="#263238"/><path d="M49.705 13.449c-.067-.034-2.75-.951-2.78 1.83-.032 2.78 2.76 2.236 2.766 2.155.004-.08.014-3.985.014-3.985Z" fill="#FFBE9D"/><path d="M49.1 16.385c-.012 0-.048.033-.131.068a.476.476 0 0 1-.361 0c-.293-.111-.535-.58-.542-1.08a1.602 1.602 0 0 1 .142-.69.569.569 0 0 1 .369-.369.25.25 0 0 1 .285.136c.036.078.017.133.03.14.015.007.063-.047.041-.162a.32.32 0 0 0-.107-.175.368.368 0 0 0-.266-.074.677.677 0 0 0-.51.425c-.12.24-.181.505-.177.773.012.558.293 1.086.692 1.205a.51.51 0 0 0 .442-.067c.088-.064.102-.126.093-.13Z" fill="#EB996E"/><path d="m51.864 5.281 11.563.732a5.26 5.26 0 0 0-1.63-2.039 9.032 9.032 0 0 0-5.156-2.101c-1.885-.107-5.811 2.032-7.237 3.275-1.136.996-1.167 1.902-1.167 1.902-.238 1.492.532 3.23.805 4.715.14.768.378 3.078.378 3.078.637.024.894-.475.823-1.108l-.017-2.476s2.23-1.45 1.32-4.31c-.153-.237-.462-1.28.318-1.668Z" fill="#263238"/><path d="M49.32 5.306a3.423 3.423 0 0 1 3.59-4.11c.538.045 1.07.219 1.61.183C55.523 1.31 56.328.54 57.272.191a3.52 3.52 0 0 1 4.105 1.426c.33.54.535 1.188 1.06 1.55.454.304 1.04.306 1.559.475a2.574 2.574 0 0 1 1.623 2.614 3.031 3.031 0 0 1-1.956 2.472 3.698 3.698 0 0 1-3.185-.356c-.853-.52-1.6-1.381-2.597-1.393-1.037-.014-1.98.925-2.986.68-.527-.129-.92-.554-1.293-.951-.373-.397-.8-.787-1.347-.832-.547-.045-.854.678-.68 1.189l-2.263-1.752" fill="#263238"/><path d="M63.25 4.534s0 .014-.02.04a.742.742 0 0 1-.072.11c-.1.136-.216.258-.347.364a2.091 2.091 0 0 1-.713.368 1.949 1.949 0 0 1-1.05.019 2.063 2.063 0 0 1-1.082-.675c-.302-.359-.475-.832-.746-1.25a1.5 1.5 0 0 0-1.29-.725 1.761 1.761 0 0 0-.795.178c-.25.13-.458.326-.6.568a9.148 9.148 0 0 1-.44.763.951.951 0 0 1-.759.42 1.452 1.452 0 0 1-.803-.265 3.048 3.048 0 0 1-.592-.535c-.342-.373-.68-.746-1.112-.863a1.45 1.45 0 0 0-1.172.238 1.999 1.999 0 0 0-.673.763c-.117.233-.207.48-.268.734a6.9 6.9 0 0 0-.098.487.956.956 0 0 1-.03.171v-.173c.016-.167.041-.333.075-.497a3.34 3.34 0 0 1 .257-.75c.154-.323.39-.599.682-.802a1.533 1.533 0 0 1 1.241-.237c.475.123.822.515 1.165.884.168.195.361.368.575.513.217.15.473.233.737.238a.856.856 0 0 0 .672-.378c.167-.224.278-.497.433-.754a1.57 1.57 0 0 1 .651-.613c.262-.131.553-.197.846-.19a1.604 1.604 0 0 1 1.383.782c.283.437.447.903.733 1.25a2.001 2.001 0 0 0 2.043.656c.252-.07.487-.186.694-.344.18-.143.34-.31.476-.495Zm2.095.13a.69.69 0 0 1 .038.238c.008.209-.021.417-.086.616-.098.297-.26.57-.475.798a2.51 2.51 0 0 1-.951.628 3.746 3.746 0 0 1-2.027.145 5.523 5.523 0 0 1-.602-.145.793.793 0 0 1-.211-.081c0-.02.316.074.827.147.661.114 1.34.055 1.973-.17.34-.13.65-.332.905-.593.209-.215.37-.472.475-.753.09-.267.136-.548.134-.83Zm-8.121 7.746c-.017 0 0-.216-.1-.587a2.422 2.422 0 0 0-1.97-1.763 2.376 2.376 0 0 0-1.769.446c-.193.14-.361.31-.5.504a2.356 2.356 0 0 0 0 2.8c.277.38.66.667 1.101.827a2.377 2.377 0 0 0 2.251-.33 2.43 2.43 0 0 0 .887-1.3c.095-.371.083-.59.1-.588.014.202-.003.404-.053.6a2.427 2.427 0 0 1-.874 1.357 2.457 2.457 0 0 1-2.344.368 2.335 2.335 0 0 1-.63-.335 2.269 2.269 0 0 1-.527-.528 2.469 2.469 0 0 1 0-2.945c.147-.202.325-.379.527-.525.191-.145.404-.259.63-.337.418-.15.869-.185 1.305-.103a2.46 2.46 0 0 1 1.039.476c.441.342.75.827.874 1.371.049.193.067.393.053.592Zm6.603 0a4.794 4.794 0 0 0-.098-.587 2.421 2.421 0 0 0-1.97-1.764 2.377 2.377 0 0 0-2.267.951 2.355 2.355 0 0 0 0 2.8 2.362 2.362 0 0 0 2.075.967 2.4 2.4 0 0 0 2.162-1.77c.045-.194.077-.39.098-.588.015.202-.003.404-.053.6a2.407 2.407 0 0 1-.879 1.366 2.457 2.457 0 0 1-2.344.369 2.332 2.332 0 0 1-.63-.336 2.268 2.268 0 0 1-.534-.537 2.47 2.47 0 0 1 0-2.945c.146-.202.324-.38.527-.525.191-.145.404-.259.63-.337a2.5 2.5 0 0 1 1.305-.103c.38.075.735.238 1.039.476.443.339.755.822.88 1.367.051.194.071.395.059.596Z" fill="#455A64"/><path d="M58.947 12.24c-.014.014-.095-.06-.238-.14a1.165 1.165 0 0 0-1.24.068c-.143.095-.217.176-.238.164-.022-.012.038-.111.176-.237a1.084 1.084 0 0 1 1.34-.074c.15.112.21.21.2.219Zm-6.554.218c-.5.204-1.014.37-1.54.495-.514.163-1.04.288-1.573.373a10.47 10.47 0 0 1 1.55-.495 10.762 10.762 0 0 1 1.563-.373Z" fill="#455A64"/><path d="M67.094 63.615H41.9s-1.442 6.527-1.711 9.83c-.133 1.646-1.685 25.062-1.262 32.563h31.278s.352-32.412-3.111-42.392Z" fill="#263238"/><path d="M48.474 74.341h-6.346v8.813h6.346v-8.813Z" fill="#fff"/><path d="M43.176 74.305c-.02 0-.048-.095-.176-.164a.319.319 0 0 0-.238-.026.302.302 0 0 0-.164.462.323.323 0 0 0 .197.128c.143.026.238-.036.238-.02 0 .017-.064.112-.252.105a.37.37 0 0 1-.275-.147.399.399 0 0 1 .237-.637.378.378 0 0 1 .307.06c.145.114.14.244.126.24Z" fill="#455A64"/><path d="M43.7 74.305c-.02 0-.048-.095-.174-.164a.323.323 0 0 0-.238-.026.303.303 0 0 0-.215.33.301.301 0 0 0 .051.132.323.323 0 0 0 .197.128c.143.026.238-.036.238-.02 0 .017-.064.112-.252.105a.37.37 0 0 1-.276-.147.399.399 0 0 1 .238-.637.379.379 0 0 1 .307.06c.152.114.147.244.123.24Z" fill="#455A64"/><path d="M44.241 74.305c-.016 0-.047-.095-.173-.164a.324.324 0 0 0-.238-.026.3.3 0 0 0-.161.462.314.314 0 0 0 .194.128c.143.026.238-.036.238-.02 0 .017-.064.112-.25.105a.37.37 0 0 1-.277-.147.399.399 0 0 1 .237-.637.379.379 0 0 1 .307.06c.145.114.138.244.123.24Z" fill="#455A64"/><path d="M44.776 74.305c-.02 0-.05-.095-.176-.164a.319.319 0 0 0-.238-.026.298.298 0 0 0-.164.462.314.314 0 0 0 .195.128c.143.026.238-.036.238-.02 0 .017-.065.112-.238.105a.37.37 0 0 1-.278-.147.399.399 0 0 1 .238-.637.379.379 0 0 1 .306.06c.136.114.129.244.117.24Z" fill="#455A64"/><path d="M45.31 74.305c-.02 0-.05-.095-.176-.164a.319.319 0 0 0-.238-.026.299.299 0 0 0-.164.461.319.319 0 0 0 .195.129c.142.026.237-.036.237-.02 0 .017-.066.112-.251.105a.375.375 0 0 1-.278-.147.399.399 0 0 1 .237-.637.386.386 0 0 1 .31.06c.146.114.14.244.127.24Z" fill="#455A64"/><path d="M45.84 74.305c-.02 0-.05-.095-.177-.164a.319.319 0 0 0-.237-.026.3.3 0 0 0-.164.461.318.318 0 0 0 .197.129c.14.026.237-.036.237-.02 0 .017-.064.112-.251.105a.366.366 0 0 1-.276-.147.4.4 0 0 1 .387-.64c.053.01.103.031.148.062.157.115.15.245.135.24Z" fill="#455A64"/><path d="M46.373 74.306c-.018 0-.047-.096-.175-.164a.318.318 0 0 0-.238-.026.3.3 0 0 0-.164.46.319.319 0 0 0 .197.129c.14.026.238-.036.238-.02 0 .017-.064.113-.252.105a.365.365 0 0 1-.276-.147.402.402 0 0 1 .226-.637.386.386 0 0 1 .309.06c.154.114.147.244.136.24Z" fill="#455A64"/><path d="M46.906 74.305c-.02 0-.048-.095-.176-.164a.316.316 0 0 0-.238-.026.302.302 0 0 0-.164.462.323.323 0 0 0 .197.128c.143.026.238-.036.238-.02 0 .017-.064.112-.252.105a.37.37 0 0 1-.275-.147.399.399 0 0 1 .237-.637.379.379 0 0 1 .307.06c.145.114.14.244.126.24Z" fill="#455A64"/><path d="M47.438 74.305c-.019 0-.047-.095-.173-.164a.324.324 0 0 0-.238-.026.303.303 0 0 0-.164.462.323.323 0 0 0 .197.128c.143.026.238-.036.238-.02 0 .017-.064.112-.252.105a.37.37 0 0 1-.276-.147.4.4 0 0 1 .398-.64.38.38 0 0 1 .147.063c.142.114.137.244.123.24Z" fill="#455A64"/><path d="M47.978 74.305c-.017 0-.047-.095-.173-.164a.319.319 0 0 0-.238-.026.299.299 0 0 0-.164.462.313.313 0 0 0 .195.128c.142.026.238-.036.238-.02 0 .017-.065.112-.25.105a.37.37 0 0 1-.278-.147.4.4 0 0 1 .397-.64.38.38 0 0 1 .147.063c.14.114.126.244.126.24Z" fill="#455A64"/><path d="M40.044 75.373c2.788 1.97 6.959 2.5 10.729 2.12l.27 10.62c.034 1.32.058 2.697-.508 3.89-.528 1.117-1.526 1.956-2.614 2.531a7.607 7.607 0 0 1-4.257.887c-1.462-.152-3.803-1.141-4.54-2.539" fill="#263238"/><path d="M39.12 92.882s.068.119.223.325c.232.302.507.567.817.787a7.077 7.077 0 0 0 1.571.87 6.886 6.886 0 0 0 2.308.537 7.71 7.71 0 0 0 5.602-2.208c.411-.428.734-.933.95-1.485a6.04 6.04 0 0 0 .374-1.816c.043-.632.026-1.281 0-1.94-.026-.658-.033-1.328-.05-2.003l-.211-8.454.061.052c-3.303.323-6.13-.112-7.979-.773a10.932 10.932 0 0 1-2.077-.95 7.93 7.93 0 0 1-.677-.45l.047.024.131.084c.119.066.283.19.516.313.667.37 1.368.674 2.094.908 1.846.637 4.658 1.055 7.945.713h.062v.06l.224 8.454c.015.678.032 1.346.05 2.003.016.661.035 1.312 0 1.954a6.233 6.233 0 0 1-.383 1.85 4.7 4.7 0 0 1-.989 1.52 7.771 7.771 0 0 1-5.695 2.223 6.828 6.828 0 0 1-2.329-.564 7.286 7.286 0 0 1-1.576-.89 3.774 3.774 0 0 1-.805-.811 2.058 2.058 0 0 1-.16-.255.434.434 0 0 1-.045-.078Zm15.948 13.042c-.036 0-.062-8.81-.062-19.677 0-10.867.026-19.68.062-19.68.035 0 .061 8.808.061 19.68 0 10.871-.02 19.677-.061 19.677Zm6.335-39.679a1.045 1.045 0 0 1-.202.014l-.582.022-2.139.05c-1.806.03-4.304.06-7.064.014-2.76-.045-5.257-.171-7.059-.319a59.795 59.795 0 0 1-2.139-.202l-.58-.07a1.071 1.071 0 0 1-.2-.034 1.84 1.84 0 0 1 .203 0l.582.047a91.9 91.9 0 0 0 2.139.162c1.804.126 4.297.238 7.057.283 2.759.045 5.252.03 7.061.021h2.721a1.13 1.13 0 0 1 .202.012Z" fill="#455A64"/><path d="M34.193 51.174s.95-13.474 2.001-15.29c1.574-2.681 4.257-3.976 4.257-3.976l2.436 13.94s-.841 14.79-1.122 15.983c-.28 1.193-2.595 3.646-4.416 3.646-1.82 0-3.997-1.683-4.138-2.876a12.25 12.25 0 0 0-.7-2.593l1.682-8.834Z" fill="#E0E0E0"/><path d="m40.446 31.91 7.086-4.052 1.205-2.98 6.783 3.514 4.501-4.15 1.353 2.337 9.659 5.105-2.377 26.732s-.254 4.82-2.156 5.645c-1.9.825-24.005.394-24.6-.445-.593-.839-1.442-2.916-1.442-2.916l-.012-28.79Z" fill="#E0E0E0"/><path d="M55.237 64.484c-.034 0-.062-7.97-.062-17.797 0-9.828.028-17.8.062-17.8.033 0 .061 7.967.061 17.8 0 9.833-.028 17.797-.061 17.797Zm12.299-26.259h-7.252v3.998h7.252v-3.998Z" fill="#263238"/><path d="M66.7 39.097h-5.54v.97h5.54v-.97Z" fill="#455A64"/><path d="M42.625 39.925c.004.02.004.04 0 .06v.833c0 .572-.038 1.404-.073 2.431a419.736 419.736 0 0 1-.383 8.017c-.176 3.13-.354 5.96-.494 8.01a746.79 746.79 0 0 1-.174 2.426c-.021.278-.04.5-.055.661 0 .07-.011.124-.016.171a.218.218 0 0 1 0 .057.227.227 0 0 1 0-.06v-.17c0-.162.016-.383.03-.661.034-.585.08-1.412.136-2.429l.457-8.012c.178-3.126.323-5.963.42-8.015.045-1.017.083-1.844.112-2.429l.033-.66v-.172c0-.02.002-.04.007-.059ZM54.61 28.17c-.04.101-.09.2-.147.294-.1.188-.237.475-.41.815a24.481 24.481 0 0 0-1.165 2.876l-.022.069-.064-.036a20.368 20.368 0 0 1-4.14-2.973 17.595 17.595 0 0 1-.844-.84l-.216-.237a.504.504 0 0 1-.07-.09s.034.021.089.071l.237.226c.205.193.495.475.868.808.973.867 2.018 1.65 3.123 2.341a28 28 0 0 0 1.017.597l-.085.033c.332-.986.736-1.947 1.21-2.873.178-.347.33-.618.444-.801.054-.09.1-.16.13-.207.032-.048.043-.076.046-.074Zm6.646-1.27c-.04.117-.09.231-.15.34-.107.211-.266.518-.476.884-.57.956-1.238 1.85-1.994 2.667-.114.119-.22.238-.335.35l-.166.168a.475.475 0 0 1-.221.143.318.318 0 0 1-.26-.077.84.84 0 0 1-.158-.175 2.703 2.703 0 0 1-.238-.369 11.703 11.703 0 0 1-.62-1.366 14.31 14.31 0 0 0-.4-.923c-.104-.209-.18-.323-.18-.323a.5.5 0 0 0 .061.074c.053.076.101.156.145.238.12.206.267.52.438.91.189.458.401.907.637 1.343.07.123.15.242.237.354.084.111.193.237.3.204.107-.033.214-.173.326-.278.111-.104.22-.238.33-.347a18.002 18.002 0 0 0 2.013-2.629c.226-.358.397-.656.516-.862.054-.115.119-.224.195-.326Z" fill="#263238"/><path d="M42.375 46.544a4.897 4.897 0 0 1-.238-.684 26.06 26.06 0 0 0-.565-1.635 25.817 25.817 0 0 0-.68-1.593 5.366 5.366 0 0 1-.292-.658c.144.193.268.401.37.62a15.15 15.15 0 0 1 1.25 3.242c.076.23.128.468.155.708Zm20.538 2.992c.019.028-2.869 1.756-6.446 3.86-3.577 2.103-6.493 3.783-6.512 3.755-.02-.029 2.869-1.759 6.448-3.862 3.58-2.104 6.493-3.784 6.51-3.753Z" fill="#263238"/><path d="M54.758 28.889s-2.244-1.131-2.655-.85c-.411.28-.894 2.932-.32 3.253.572.32 2.975-1.072 2.975-1.072v-1.331Zm1.478 0s2.242-1.131 2.655-.85c.414.28.892 2.932.319 3.253-.573.32-2.974-1.072-2.974-1.072v-1.331Z" fill="#E14942"/><path d="M55.904 28.59H54.84a.475.475 0 0 0-.475.475v1.195c0 .263.212.475.475.475h1.063a.475.475 0 0 0 .475-.475v-1.195a.475.475 0 0 0-.475-.476Z" fill="#E14942"/><path d="M56.332 28.818a.626.626 0 0 1 .067.206c.046.192.076.386.09.583 0 .123.014.261.012.409a1.05 1.05 0 0 1-.1.475.57.57 0 0 1-.463.285 2.952 2.952 0 0 1-.561 0c-.19-.019-.371-.021-.554-.05a.712.712 0 0 1-.269-.097.449.449 0 0 1-.173-.221 1.39 1.39 0 0 1-.055-.476c0-.147 0-.285.017-.408.016-.196.045-.39.088-.583a.668.668 0 0 1 .064-.206c.021 0-.045.304-.064.793v.402a1.36 1.36 0 0 0 .06.437.396.396 0 0 0 .353.238c.171.026.36.03.544.048.179.021.358.027.538.016a.46.46 0 0 0 .378-.223 1 1 0 0 0 .097-.423v-.4c-.017-.501-.09-.8-.069-.805Z" fill="#263238"/><path d="M56.26 30.531a3.713 3.713 0 0 0-.596-1.053 3.654 3.654 0 0 0-.98-.713.775.775 0 0 1 .357.1 2.183 2.183 0 0 1 1.16 1.303c.049.114.07.24.06.363Zm1.746-1.536c-.245.1-.496.179-.754.238a5.176 5.176 0 0 1-.753.238c.209-.168.452-.287.713-.348a1.74 1.74 0 0 1 .794-.128Zm.141.74a2.655 2.655 0 0 1-.822-.03 2.817 2.817 0 0 1-.81-.153c.274-.032.552-.022.824.031.275.01.548.062.808.152Zm-3.834-.305a1.729 1.729 0 0 1-.62-.129 1.605 1.605 0 0 1-.583-.238c.213.005.423.048.62.129.208.041.405.122.583.237Zm.083.308c-.22.1-.45.18-.684.237a4.027 4.027 0 0 1-.68.26 2.14 2.14 0 0 1 1.364-.507v.01Z" fill="#263238"/><path opacity=".3" d="M53.405 29.154c-.102-.027-.238-.04-.297.042a.292.292 0 0 0-.029.202l.038.404a.293.293 0 0 0 .098.238.286.286 0 0 0 .252-.014l.886-.335.021-.238a9.857 9.857 0 0 0-.97-.3Zm4.77.617a.794.794 0 0 0-.44-.256l.345-.155c.038-.017.079-.038.088-.076a.09.09 0 0 0-.047-.097.237.237 0 0 0-.117-.027 3.584 3.584 0 0 0-1.556.338l-.027.288c.528.169 1.08.249 1.633.237a.19.19 0 0 0 .171-.064c.038-.055-.002-.133-.05-.188Z" fill="#000"/><path d="M70.652 36.512c.006.067.006.135 0 .202l-.047.57-.188 2.1c-.16 1.772-.354 4.223-.566 6.93-.211 2.707-.42 5.16-.601 6.933-.09.884-.166 1.602-.238 2.094-.028.238-.052.428-.071.57a1.063 1.063 0 0 1-.033.198 1.255 1.255 0 0 1 0-.2c0-.143.028-.333.047-.573l.188-2.099c.16-1.773.354-4.223.566-6.933.211-2.71.43-5.157.61-6.916.09-.887.167-1.602.238-2.096.029-.238.052-.428.072-.57 0-.071.008-.141.023-.21Z" fill="#263238"/><path d="M38.352 53.471c.291-.165.616-.261.95-.283a.763.763 0 0 1 .754.552c.057.337-.197.639-.433.886l-1.316 1.379" fill="#FFBE9D"/><path d="M33.332 40.352v.276l-.107.147v.57l.107.169.22 4.932a5.098 5.098 0 0 0-1.839 4.086c.074 1.794.984 14.26.984 14.26l6.377-.29-.753-11.993-.17-2.614s.043-2.567-2.286-3.59l-.316-4.886.105-.147-.04-.713-.19-.126-.022-.212-2.07.13Z" fill="#263238"/><path d="M38.813 60.368h-3.922l-.37-7.18h3.843l.449 7.18Z" fill="#E14942"/><path d="M33.391 54.426s-.865-1.134-1.188-1.177c-.323-.042-1.683-.114-1.82 0-.139.115-.738.647-.476 1.177.237.459.498.904.782 1.336-.013.23-.068.457-.162.668-.114.138-.874.691-.805 1.15.07.327.211.634.415.898 0 0-.539.692-.42 1.084.112.29.278.555.49.782 0 0 0 .968.206 1.36.207.392 2.165 1.307 2.165 1.307l2.303-.547s.623-.622.117-.898-2.538-.136-2.538-.136l-.737-.6s3.55.275 3.85.137c.3-.138.853-.368.644-.806-.209-.437-.475-.784-1.773-.76-1.297.023-3.018-.692-3.018-.692v-.238s3.042.554 3.48.509c.437-.045.95-.3.829-.692-.121-.392-.117-.877-.806-.95-.69-.074-2.821-.763-2.821-.763l-.093-1.308s.563.297.968.114c.404-.182.568-.755.408-.955Z" fill="#FFBE9D"/><path d="m35.55 41.43.107-.148-.043-.718-.19-.126-.022-.212-2.07.127v.275l-.107.148v.57l.107.169.071 1.6 2.244-.167-.097-1.519ZM66.254 58.7s.045 4.304.083 7.113c.038 2.81-.09 9.593-.09 9.593l10.655-2.781-2.467-19.668-8.18 5.742Z" fill="#E14942"/><path opacity=".3" d="M66.254 58.7s.045 4.304.083 7.113c.038 2.81-.09 9.593-.09 9.593l10.655-2.781-2.467-19.668-8.18 5.742Z" fill="#000"/><path d="M67.795 64.792s10.291-4.178 10.978-7.743c.687-3.566.133-6.917-1.343-12.676s-4.04-12.939-7.187-12.81l-2.448 18.113 2.122 6.612-3.58 2.339 1.458 6.165Z" fill="#E0E0E0"/><path d="m66.338 58.627 6.134-4.164s4.302-1.36 5.407 2.082c1.106 3.441.873 17.395.873 17.395l-8.585 5.194s.627-21.805-3.83-20.507Z" fill="#E14942"/><path d="M78.163 68.068c-.014.031-1.858-.789-4.116-1.83-2.258-1.041-4.081-1.913-4.067-1.944.014-.031 1.856.789 4.119 1.83s4.064 1.913 4.064 1.944Zm.273-7.93a2.52 2.52 0 0 1-.062-.397l-.128-1.088c-.052-.445-.117-1.005-.238-1.6a4.152 4.152 0 0 0-.867-1.735 3.09 3.09 0 0 0-1.664-.95 5.704 5.704 0 0 0-1.602-.1 4.43 4.43 0 0 0-1.072.17 3.063 3.063 0 0 1-.388.103s.031-.019.093-.045.16-.062.28-.105c.35-.118.714-.188 1.082-.209a5.49 5.49 0 0 1 1.63.074 3.16 3.16 0 0 1 1.73.99c.438.517.742 1.132.887 1.793.102.534.175 1.072.221 1.614.043.46.072.837.088 1.093.014.13.017.262.01.392Zm.307 11.668c.017.029-1.863 1.136-4.2 2.472-2.336 1.336-4.245 2.396-4.264 2.377-.019-.02 1.864-1.136 4.203-2.475 2.338-1.338 4.245-2.405 4.261-2.374Zm-8.539 7.442a.176.176 0 0 1 0-.057v-.167c0-.157 0-.37-.011-.641 0-.57-.015-1.377-.022-2.365-.021-1.997-.026-4.754-.268-7.791a44.301 44.301 0 0 0-.538-4.253c-.111-.648-.25-1.261-.375-1.832-.11-.53-.262-1.052-.452-1.56a7.726 7.726 0 0 0-.606-1.188 1.99 1.99 0 0 0-.713-.694 1.02 1.02 0 0 0-.606-.137c-.145.016-.216.052-.219.045a.596.596 0 0 1 .214-.072c.219-.028.44.015.633.122a2 2 0 0 1 .746.698 7.8 7.8 0 0 1 .627 1.189c.198.51.357 1.036.476 1.57.13.574.273 1.19.387 1.836a42.41 42.41 0 0 1 .55 4.264c.237 3.042.237 5.804.237 7.8 0 .989-.012 1.795-.017 2.365 0 .271 0 .476-.012.642v.166a.177.177 0 0 1-.03.06Z" fill="#263238"/><path d="m61.31 58.617 2.456-.801L67.2 58.9s1.388 1.663 1.415 2.835c.026 1.172-.82 3.057-.82 3.057l-3.074 2.015s-2.636.283-2.92.181c-.286-.102-.49-1.112-.49-1.112a2.612 2.612 0 0 1-.673-.713c-.207-.388-.102-.828.128-.982 0 0-.568-.361-.49-.827a.963.963 0 0 1 .75-.801.714.714 0 0 1-.476-.775c.052-.62.157-1.06.647-1.136.49-.076 2.376-.544 2.376-.544l-.774-.181s-1.693.932-2.539.827c-.846-.104-.535-.903-.535-.903l1.586-1.224Z" fill="#FFBE9D"/><path d="M63.762 62.543a6.738 6.738 0 0 1-2.836-.03c0-.037.637.035 1.426.042.79.007 1.405-.048 1.41-.012Zm-.221 1.935a3.566 3.566 0 0 1-2.783-.323c.45.14.909.248 1.374.323.47.034.94.034 1.41 0Zm-.141 1.767a2.654 2.654 0 0 1-1.078.029 2.616 2.616 0 0 1-1.039-.297c0-.034.476.102 1.053.173.578.071 1.063.047 1.065.095Z" fill="#EB996E"/><path d="M72.27 40.08c-.012.1-.033.198-.064.294-.047.188-.12.459-.216.792-.19.663-.463 1.58-.806 2.578a31.095 31.095 0 0 1-.981 2.52c-.143.316-.262.57-.352.741-.04.093-.09.181-.147.264.025-.097.06-.192.104-.283.083-.202.188-.456.314-.755.261-.64.604-1.531.95-2.527.348-.996.628-1.901.84-2.565.102-.309.185-.57.254-.78.023-.096.059-.19.105-.28ZM153 106.25c0 .144-29.545.25-65.996.25-36.451 0-66.004-.106-66.004-.25 0-.144 29.545-.25 66.004-.25s65.996.115 65.996.25Z" fill="#263238"/></svg>