<svg width="43" height="18" viewBox="0 0 43 18" fill="none" xmlns="http://www.w3.org/2000/svg">
<path d="M8.12166 2.75393C7.62784 3.3169 6.84116 3.76301 6.05578 3.69767C5.95203 2.93866 6.3434 2.12562 6.79519 1.62171C7.28769 1.04742 8.14924 0.635247 8.84793 0.601318C8.93067 1.39425 8.60759 2.17337 8.12297 2.75393H8.12166ZM8.84005 3.8472C7.69876 3.7806 6.71902 4.47426 6.17792 4.47426C5.62501 4.47426 4.7963 3.87988 3.89404 3.89998C2.72386 3.91381 1.62985 4.55343 1.03491 5.58262C-0.203564 7.62967 0.713143 10.6607 1.90302 12.3295C2.48483 13.1538 3.1809 14.0574 4.09892 14.0322C4.96703 13.9983 5.31638 13.4831 6.3631 13.4831C7.42296 13.4831 7.72372 14.0322 8.6483 14.0121C9.59784 13.9983 10.1994 13.1878 10.7812 12.3634C11.4444 11.4272 11.7176 10.5099 11.732 10.4646C11.7176 10.4445 9.89203 9.77098 9.8789 7.74151C9.86445 6.03877 11.3144 5.22824 11.3761 5.18175C10.5618 4.00428 9.27608 3.87988 8.83874 3.84846L8.84005 3.8472ZM15.4277 1.54254V13.9267H17.4174V9.69307H20.1689C22.6786 9.69307 24.4438 8.02426 24.4438 5.61529C24.4438 3.20129 22.7141 1.54379 20.2372 1.54379L15.4277 1.54254ZM17.4174 3.16611H19.7092C21.4323 3.16611 22.4186 4.05581 22.4186 5.62031C22.4186 7.18482 21.4323 8.08206 19.6961 8.08206H17.4174V3.16611ZM28.0673 14.0184C29.3189 14.0184 30.4746 13.4102 31.0026 12.4401H31.0446V13.9267H32.8832V7.76036C32.8832 5.98097 31.4071 4.82361 29.1284 4.82361C27.0218 4.82361 25.4616 5.99479 25.4078 7.59826H27.1926C27.3436 6.83297 28.0686 6.33534 29.0746 6.33534C30.292 6.33534 30.9697 6.88449 30.9697 7.89357V8.5734L28.4941 8.71792C26.1813 8.85489 24.9363 9.76469 24.9363 11.3556C24.9363 12.9591 26.2233 14.0197 28.0686 14.0197L28.0673 14.0184ZM28.6083 12.5519C27.5472 12.5519 26.8708 12.0606 26.8708 11.3091C26.8708 10.53 27.5209 10.0713 28.7581 9.99843L30.9684 9.86774V10.5677C30.9684 11.7276 29.9493 12.5519 28.6005 12.5519H28.6083ZM35.3392 17.297C37.2737 17.297 38.1852 16.5769 38.9784 14.4105L42.4666 4.94676H40.4494L38.1103 12.2566H38.0683L35.7292 4.94676H33.6502L37.0163 13.9593L36.8377 14.5085C36.5291 15.4321 36.0379 15.7903 35.1619 15.7903C35.0043 15.7903 34.7035 15.7714 34.5801 15.7588V17.2454C34.6956 17.2769 35.1895 17.2907 35.3326 17.2907L35.3392 17.297Z" fill="black"/>
</svg>
