<svg width="27" height="26" viewBox="0 0 27 26" fill="none" xmlns="http://www.w3.org/2000/svg">
<g clip-path="url(#clip0_86_727)">
<path d="M22.1933 18.5738C22.1933 23.1354 18.3321 23.1354 13.5253 23.1354C8.7185 23.1354 4.8573 23.1354 4.8573 18.5738C4.8573 14.0123 8.7579 6.54785 13.5253 6.54785C18.2927 6.54785 22.1933 13.9746 22.1933 18.5738Z" fill="#DBB471"/>
<path opacity="0.5" d="M22.1934 18.5739C22.1934 17.0282 21.76 15.1433 20.972 13.3337C21.1296 14.5024 20.8144 16.5759 17.0714 17.3675C11.7524 18.4608 14.5104 19.8934 12.4222 20.0819C10.6492 20.2327 5.92119 19.5541 4.97559 16.9905C4.89679 17.556 4.81799 18.0838 4.81799 18.6116C4.85739 23.1355 8.75799 23.1355 13.5254 23.1355C18.2928 23.1355 22.1934 23.1355 22.1934 18.5739Z" fill="#89664C"/>
<path d="M15.85 16.3873C15.6924 15.6333 15.0226 15.4071 14.3134 15.3694V14.3138C14.5104 14.3892 14.7468 14.5023 14.9044 14.6154C15.2196 14.8039 15.5348 14.3138 15.2196 14.1253C14.9438 13.9745 14.6286 13.8237 14.3134 13.7106V12.4666C14.3134 12.0896 13.7224 12.0896 13.7224 12.4666V13.5599C13.4072 13.5222 13.092 13.5222 12.7768 13.5599C12.7374 13.296 12.6586 13.0321 12.5798 12.7682C12.501 12.3912 11.91 12.542 12.0282 12.919C12.107 13.1829 12.1464 13.4468 12.2252 13.7106C12.1858 13.7106 12.1858 13.7106 12.1464 13.7483C11.3584 14.0499 10.8462 14.8039 11.4372 15.5202C11.713 15.8595 12.0676 15.9726 12.4616 16.048C12.501 16.5381 12.501 17.0282 12.501 17.5182C12.2252 17.3675 11.9888 17.1413 11.7918 16.9528C11.516 16.6889 11.122 17.1036 11.3584 17.3675C11.713 17.7444 12.107 18.0083 12.501 18.1968C12.501 18.6115 12.5404 19.0262 12.5798 19.4409C12.6192 19.8179 13.2102 19.8179 13.1708 19.4409C13.1314 19.0639 13.092 18.7246 13.092 18.3476C13.3284 18.3853 13.5648 18.3853 13.8012 18.3853C13.8406 18.7623 13.88 19.1393 13.9194 19.554C13.9588 19.931 14.5498 19.931 14.5104 19.554C14.471 19.1393 14.4316 18.7246 14.3922 18.2722C15.259 17.9706 16.047 17.3298 15.85 16.3873ZM13.7224 14.1253V15.3694C13.5254 15.3694 13.3678 15.4071 13.2102 15.4071H13.0132L12.895 14.0499C13.1708 14.0499 13.4466 14.0876 13.7224 14.1253ZM12.304 15.3317C12.1464 15.294 11.9888 15.1809 11.8312 15.0678C11.4766 14.7285 11.9888 14.4269 12.304 14.2761C12.3434 14.6531 12.3828 14.9924 12.4222 15.3694C12.3828 15.3694 12.3434 15.3694 12.304 15.3317ZM13.6042 17.7444C13.4072 17.7821 13.2496 17.7444 13.092 17.7067C13.0526 17.1413 13.0526 16.5758 13.0526 15.9726C13.289 15.9726 13.5254 15.9349 13.7618 15.9349C13.7618 16.5381 13.8012 17.1036 13.8012 17.7067C13.7224 17.7444 13.683 17.7444 13.6042 17.7444ZM14.9044 17.3298C14.7468 17.4429 14.5498 17.5182 14.3922 17.5936C14.3528 17.0282 14.3528 16.5004 14.3528 15.9349H14.5498C15.2984 16.0857 15.4954 16.8774 14.9044 17.3298Z" fill="#89664C"/>
<path d="M14.3133 21.6276H13.4071V23.1356L17.0713 25.0206L25.3453 22.5701V21.2507L22.3115 19.5542L14.3133 21.6276Z" fill="#699635"/>
<path d="M13.5254 20.7605C13.5254 20.7605 14.471 22.2307 17.1502 23.5125C17.1502 23.5125 21.3266 23.324 25.3454 20.7605C25.3454 20.7605 23.0208 19.6672 22.351 18.2346C22.351 18.2346 20.775 20.3458 13.5254 20.7605Z" fill="#83BF4F"/>
<path d="M11.7524 21.5898L12.6192 21.5521L12.7374 22.947L9.30959 25.0204L1.07499 23.324L0.956787 22.0799L3.75419 20.2327L11.7524 21.5898Z" fill="#699635"/>
<path d="M12.4222 20.7227C12.4222 20.7227 11.5948 22.1929 9.11256 23.5878C9.11256 23.5878 5.05436 23.7009 0.917358 21.6275C0.917358 21.6275 3.12376 20.4211 3.63596 18.9885C3.63596 18.9885 5.36956 20.8735 12.4222 20.7227Z" fill="#83BF4F"/>
<path d="M10.4522 21.1375C10.4522 21.1375 10.334 21.4391 10.8856 21.4767L9.42775 22.6454C9.42775 22.6454 8.56095 22.57 8.36395 23.1355C8.36395 23.1355 4.81795 22.7585 2.53275 21.7783C2.53275 21.7783 3.00555 21.4391 2.41455 21.2129C2.41455 21.2129 3.08435 20.7605 3.24195 20.3458C3.24195 20.3458 3.87235 20.4212 4.06935 19.9688C4.14815 19.9311 6.51215 21.2883 10.4522 21.1375V21.1375Z" stroke="#699635" stroke-miterlimit="10"/>
<path d="M4.38459 21.6652C4.79803 21.6652 5.13319 21.4458 5.13319 21.1751C5.13319 20.9045 4.79803 20.6851 4.38459 20.6851C3.97115 20.6851 3.63599 20.9045 3.63599 21.1751C3.63599 21.4458 3.97115 21.6652 4.38459 21.6652Z" fill="#699635"/>
<path d="M8.4033 20.5719C8.4033 20.5719 7.4971 21.7029 5.5271 23.2485L5.6453 24.2664L4.2663 23.9648L4.1875 22.8715C4.1875 22.8715 6.1969 21.0997 6.6303 20.2326C6.5909 20.2326 7.3001 20.4588 8.4033 20.5719ZM17.5047 20.308C17.5047 20.308 17.8593 21.2128 20.5385 22.8715V23.9648L22.0751 23.5124V22.3814C22.0751 22.3814 20.2233 21.1374 19.1201 19.8933L17.5047 20.308Z" fill="#F9F3D9"/>
<path d="M15.259 19.1017L14.3922 19.064L14.3134 20.6096L17.82 22.7585L26.0546 20.6096L26.094 19.2525L23.2178 17.3298L15.259 19.1017Z" fill="#699635"/>
<path d="M14.5498 18.1592C14.5498 18.1592 15.4166 19.7426 17.9776 21.1751C17.9776 21.1751 22.0752 21.1751 26.1334 18.7624C26.1334 18.7624 23.8876 17.5183 23.336 15.9727C23.336 15.9727 21.6418 18.0838 14.5498 18.1592Z" fill="#83BF4F"/>
<path d="M16.3228 18.5739C16.3228 18.5739 16.5198 18.8755 15.8894 18.9886L17.5442 20.2327C17.5442 20.2327 18.4898 20.0065 18.805 20.5343C18.805 20.5343 22.745 19.8557 24.5574 18.9509C24.5574 18.9509 23.9664 18.687 24.5574 18.3477C24.5574 18.3477 23.8482 17.7822 23.5724 17.4053C23.5724 17.4053 22.9026 17.5937 22.548 17.1414C22.548 17.1791 21.1296 18.3854 16.3228 18.5739V18.5739Z" stroke="#699635" stroke-miterlimit="10"/>
<path d="M19.3566 19.5163C19.199 19.7048 18.6868 19.7802 18.2534 19.6671C17.82 19.554 17.623 19.2901 17.7806 19.1016C17.9382 18.9131 18.4504 18.8377 18.8838 18.9508C19.3172 19.0639 19.5142 19.2901 19.3566 19.5163Z" fill="#699635"/>
<path d="M18.5686 17.8576C18.5686 17.8576 19.5142 19.0639 21.5236 20.685L21.4842 21.816L22.8632 21.439L22.9026 20.2326C22.9026 20.2326 20.8538 18.3476 20.3416 17.4429C20.381 17.4429 19.7112 17.7068 18.5686 17.8576Z" fill="#F9F3D9"/>
<path d="M19.0414 1.64705C19.0414 3.94669 15.9288 7.67889 13.5254 7.67889C11.122 7.67889 8.0094 4.32368 8.0094 2.02404C8.0094 -0.275603 8.364 2.02404 10.7674 2.02404C11.122 2.02404 12.7768 0.893066 13.5254 0.893066C14.0376 0.893066 15.4954 2.02404 16.2834 2.02404C18.3716 2.02404 19.0414 -0.087108 19.0414 1.64705Z" fill="#DBB471"/>
<path d="M12.8162 5.90699C12.5798 6.05779 11.4372 5.94469 11.0826 6.20858C10.6098 6.54787 11.2796 7.33955 10.8068 7.82964C9.86115 8.73442 9.11255 9.75229 9.34895 10.3178C9.74295 11.2979 10.4916 8.50822 11.1614 9.5638C11.8312 10.6194 11.713 8.84751 12.7374 9.75229C13.7618 10.6571 12.895 8.13123 13.88 9.2245C14.865 10.3178 14.9044 11.5618 15.6136 11.5618C16.441 11.5618 14.7468 8.58362 15.85 9.2999C16.9532 10.0162 18.1746 9.75229 17.0714 8.65902C16.7168 8.31973 16.244 7.71654 15.6924 7.18876C15.4954 7.00026 15.653 6.02009 15.456 5.86929C15.2196 5.6808 14.6286 6.28398 14.3922 6.17088C13.9194 5.94469 14.077 6.35938 13.3678 6.47248C12.895 6.62327 13.289 5.6054 12.8162 5.90699Z" fill="#89664C"/>
<path d="M8.28516 8.1312C9.82176 6.73633 12.6192 7.52801 14.274 8.20659C15.8894 8.88518 16.8744 6.73633 15.85 5.64306C15.259 5.00218 14.3134 5.75616 13.9588 6.20855C13.5648 6.66093 13.2496 7.15102 12.8162 7.60341C12.1858 8.28199 10.6492 7.71651 11.122 6.77403C11.6342 5.79386 13.8012 6.92483 14.5104 7.11332C15.8894 7.49031 17.3472 7.64111 18.7262 7.15102C19.199 7.00023 19.002 6.24625 18.5292 6.43474C16.9926 6.96253 15.456 6.62324 13.9982 6.17085C13.2496 5.94465 12.0676 5.34147 11.2796 5.68076C9.03376 6.69863 11.122 9.60146 13.0132 8.47049C13.4466 8.20659 13.7224 7.7919 14.0376 7.41491C14.2346 7.18872 15.2196 5.75616 15.456 6.47244C15.5742 6.84943 15.456 7.52801 15.0226 7.64111C14.7468 7.75421 14.1952 7.37722 13.9194 7.30182C13.4072 7.11332 12.895 6.96253 12.3434 6.84943C10.8856 6.54784 8.91556 6.62324 7.77296 7.64111C7.37896 7.9427 7.93056 8.47049 8.28516 8.1312Z" fill="#E8E8E8"/>
<path d="M18.5685 1.08156C18.1745 1.38315 17.4653 2.02404 16.2833 2.02404C15.4953 2.02404 14.0375 0.893066 13.5253 0.893066C12.7767 0.893066 11.1219 2.02404 10.7673 2.02404C9.46712 2.02404 8.75792 1.38315 8.40332 1.11926C8.40332 1.11926 8.83672 2.81572 10.1763 3.68279C11.1613 4.28598 11.0431 3.5697 11.5553 2.89111C12.0675 2.21253 12.4221 1.87324 13.3283 3.5697C13.8011 4.51217 14.7073 1.00616 15.4165 2.13713C16.7167 4.21058 17.1895 3.07961 18.5685 1.08156Z" fill="#89664C"/>
<path d="M21.5629 20.6475L21.5235 21.7784L22.9025 21.4014L22.9419 20.1951C22.9419 20.2328 22.1145 20.5344 21.5629 20.6475ZM20.5385 22.9094V24.0027L22.0751 23.5503V22.4193C22.0357 22.3816 21.6417 22.6078 20.5385 22.9094ZM5.52713 23.211L5.64533 24.2666L4.26633 23.965L4.18753 22.8717C4.14813 22.8717 4.69973 23.0602 5.52713 23.211Z" fill="#DBB471"/>
</g>
<defs>
<clipPath id="clip0_86_727">
<rect width="25.216" height="24.1274" fill="white" transform="translate(0.917358 0.893066)"/>
</clipPath>
</defs>
</svg>
