<svg width="22" height="21" viewBox="0 0 22 21" fill="none" xmlns="http://www.w3.org/2000/svg">
<path d="M10.8757 11.9985H14.1149C14.7048 11.9985 15.1683 11.568 15.1683 11.0531V7.00222C15.1683 6.48727 14.7048 6.05683 14.1149 6.05683H7.00445C6.41455 6.05683 5.95105 6.48727 5.95105 7.00222V11.0531C5.95105 11.568 6.41455 11.9985 7.00445 11.9985H8.05785V13.905H8.05982L8.06114 13.9043L10.8764 11.9985H10.8757ZM8.45287 14.3897C8.31272 14.4845 8.13761 14.5249 7.96522 14.5025C7.79284 14.48 7.63696 14.3964 7.53115 14.2696C7.44633 14.1671 7.40032 14.042 7.40013 13.9134V12.6022H7.00511C6.05968 12.6022 5.29334 11.9085 5.29334 11.0531V7.00222C5.29268 6.14678 6.05902 5.45312 7.00445 5.45312H14.1149C15.0603 5.45312 15.8267 6.14678 15.8267 7.00222V11.0531C15.8267 11.9091 15.0603 12.6022 14.1149 12.6022H11.093L8.45222 14.3897H8.45287Z" fill="#E14942"/>
<rect x="0.526672" y="0.922363" width="20.0667" height="19.1232" rx="4.5" stroke="#DADADA"/>
</svg>
