<svg width="20" height="19" viewBox="0 0 20 19" fill="none" xmlns="http://www.w3.org/2000/svg">
<g clip-path="url(#clip0_86_701)">
<path d="M4.61581 1.9978V17.0774H0.997314V1.9978H4.61581ZM13.6463 1.9978C13.6463 5.16 12.3989 8.10881 10.1673 10.3429L9.94821 10.5562L14.9465 17.0774H10.4801L5.04842 9.98999L6.45027 8.98569C8.70238 7.37217 10.0239 4.93079 10.1042 2.25717L10.1082 1.9978H13.6463Z" fill="#89664C"/>
<path d="M17.9394 13.3074C18.4618 13.3074 18.9629 13.506 19.3324 13.8595C19.7018 14.213 19.9094 14.6924 19.9094 15.1923C19.9094 15.6922 19.7018 16.1717 19.3324 16.5252C18.9629 16.8787 18.4618 17.0773 17.9394 17.0773C17.4169 17.0773 16.9158 16.8787 16.5464 16.5252C16.1769 16.1717 15.9694 15.6922 15.9694 15.1923C15.9694 14.6924 16.1769 14.213 16.5464 13.8595C16.9158 13.506 17.4169 13.3074 17.9394 13.3074Z" fill="#89664C"/>
</g>
<defs>
<clipPath id="clip0_86_701">
<rect width="18.912" height="18.0955" fill="white" transform="translate(0.997314 0.489746)"/>
</clipPath>
</defs>
</svg>
