<svg width="17" height="22" viewBox="0 0 17 22" fill="none" xmlns="http://www.w3.org/2000/svg">
<g clip-path="url(#clip0_86_681)">
<path d="M14.3008 2.47944C13.3858 1.42207 11.7318 0.96875 9.61577 0.96875H3.47463C3.26527 0.968758 3.06279 1.04448 2.90357 1.18231C2.74436 1.32014 2.63886 1.51103 2.60605 1.72067L0.048994 18.1629C-0.00183199 18.4871 0.245797 18.7807 0.569928 18.7807H4.36126L5.31343 12.6576L5.28388 12.8493C5.35171 12.4165 5.71682 12.0973 6.14916 12.0973H7.9508C11.4901 12.0973 14.2614 10.6398 15.071 6.42357C15.095 6.29887 15.1158 6.17751 15.1338 6.05893C15.0316 6.00407 15.0316 6.00407 15.1338 6.05893C15.3749 4.50057 15.1322 3.43981 14.3008 2.47944Z" fill="#27346A"/>
<path d="M6.76413 5.49756C6.86778 5.44752 6.98115 5.42159 7.09595 5.42166H11.9105C12.4806 5.42166 13.0124 5.45928 13.4983 5.53857C13.6343 5.56055 13.7696 5.58679 13.9039 5.61726C14.0944 5.65987 14.2827 5.71202 14.468 5.77352C14.7069 5.85441 14.9294 5.94862 15.1339 6.05893C15.3749 4.49997 15.1322 3.43981 14.3008 2.47944C13.3852 1.42207 11.7318 0.96875 9.61577 0.96875H3.4741C3.04169 0.96875 2.67382 1.28792 2.60605 1.72067L0.0489944 18.1623C-0.00183163 18.4871 0.245797 18.7803 0.569403 18.7803H4.36126L6.33671 6.07944C6.35613 5.9546 6.40518 5.83641 6.47964 5.73505C6.55409 5.63369 6.65173 5.55219 6.76413 5.49756Z" fill="#27346A"/>
<path d="M15.071 6.42348C14.2614 10.6391 11.4902 12.0972 7.9508 12.0972H6.14865C5.7163 12.0972 5.35113 12.4164 5.28395 12.8493L4.09939 20.4626C4.05513 20.7464 4.27157 21.0035 4.55472 21.0035H7.75072C7.93379 21.0034 8.11085 20.9372 8.25003 20.8166C8.38922 20.696 8.48141 20.529 8.51002 20.3457L8.54115 20.1806L9.14351 16.3101L9.18232 16.0962C9.21093 15.9129 9.3031 15.7459 9.44228 15.6253C9.58145 15.5048 9.75849 15.4385 9.94155 15.4384H10.4199C13.5159 15.4384 15.9401 14.1632 16.6485 10.4751C16.9442 8.93388 16.7912 7.64709 16.009 6.74325C15.7717 6.46948 15.4771 6.24339 15.1338 6.05884C15.1152 6.17801 15.0951 6.29878 15.071 6.42348Z" fill="#2790C3"/>
<path d="M14.2866 5.71626C14.1604 5.67889 14.033 5.6458 13.9046 5.61706C13.7701 5.58709 13.6348 5.56102 13.4989 5.5389C13.0125 5.45907 12.4811 5.42139 11.9105 5.42139H7.0965C6.98161 5.42112 6.86816 5.44728 6.76468 5.49789C6.65215 5.55235 6.55441 5.6338 6.47992 5.73519C6.40543 5.83658 6.35644 5.95485 6.33719 6.07976L5.31397 12.6574L5.28442 12.8491C5.35173 12.4163 5.71684 12.0971 6.14925 12.0971H7.95141C11.4907 12.0971 14.262 10.6396 15.0715 6.42337C15.0956 6.29867 15.1158 6.17783 15.1344 6.05873C14.9294 5.94901 14.7075 5.8542 14.4686 5.77385C14.4083 5.75358 14.3476 5.73438 14.2867 5.71626" fill="#1F264F"/>
</g>
<defs>
<clipPath id="clip0_86_681">
<rect width="16.8107" height="20.1061" fill="white" transform="translate(0.0400391 0.914307)"/>
</clipPath>
</defs>
</svg>
