<svg width="39" height="37" viewBox="0 0 39 37" fill="none" xmlns="http://www.w3.org/2000/svg">
<path opacity="0.5" d="M24.7555 28.6886C22.6584 28.6889 20.6083 28.0941 18.8644 26.9796C17.1205 25.865 15.7612 24.2807 14.9584 22.427C14.1555 20.5732 13.9452 18.5333 14.3541 16.5652C14.7629 14.5971 15.7725 12.7892 17.2552 11.3701C18.7379 9.951 20.627 8.98447 22.6838 8.5927C24.7406 8.20094 26.8726 8.40156 28.8102 9.16917C30.7479 9.93679 32.4041 11.2369 33.5694 12.9052C34.7348 14.5735 35.357 16.5349 35.3573 18.5415V18.543C35.3544 21.2327 34.2365 23.8114 32.249 25.7134C30.2614 27.6154 27.5666 28.6854 24.7555 28.6886Z" fill="#F79F1A"/>
<path d="M14.439 28.6886C12.3419 28.6886 10.2918 28.0936 8.54813 26.9787C6.80442 25.8639 5.44537 24.2794 4.64283 22.4256C3.84029 20.5717 3.63031 18.5318 4.03944 16.5637C4.44857 14.5957 5.45844 12.7879 6.94134 11.369C8.42424 9.95015 10.3136 8.98388 12.3704 8.59241C14.4273 8.20094 16.5592 8.40186 18.4967 9.16975C20.4343 9.93764 22.0903 11.238 23.2554 12.9065C24.4205 14.5749 25.0424 16.5364 25.0424 18.543C25.0394 21.2329 23.9214 23.8119 21.9335 25.7139C19.9456 27.616 17.2503 28.6858 14.439 28.6886Z" fill="#EA001B"/>
</svg>
