<svg width="47" height="14" viewBox="0 0 47 14" fill="none" xmlns="http://www.w3.org/2000/svg">
<path d="M24.3193 4.66679C24.293 6.48008 26.1727 7.4919 27.5886 8.09355C29.0434 8.71078 29.5321 9.10663 29.5263 9.65868C29.5154 10.5034 28.3658 10.8763 27.2901 10.8908C25.4133 10.9161 24.322 10.449 23.4545 10.0956L22.7784 12.8541C23.6488 13.2038 25.2605 13.5088 26.9318 13.5222C30.855 13.5222 33.4216 11.8336 33.4355 9.21559C33.4509 5.89292 28.1647 5.70901 28.2008 4.22386C28.2133 3.77354 28.7061 3.29298 29.786 3.17079C30.3205 3.10906 31.796 3.06183 33.4689 3.73354L34.1256 1.06463C33.2259 0.779005 32.0696 0.505501 30.63 0.505501C26.9374 0.505501 24.3403 2.21707 24.3193 4.66679ZM40.4348 0.735389C39.7184 0.735389 39.1147 1.09975 38.8453 1.65888L33.2412 13.3262H37.1615L37.9416 11.4463H42.7322L43.1847 13.3262H46.64L43.6248 0.735389H40.4348ZM40.9832 4.13663L42.1146 8.86462H39.0161L40.9832 4.13663ZM19.5662 0.735546L16.4761 13.326H20.2118L23.3005 0.735231H19.5662V0.735546ZM14.0398 0.735231L10.1515 9.30518L8.57861 2.01851C8.39405 1.20509 7.66522 0.735389 6.85584 0.735389H0.499672L0.410645 1.10101C1.71554 1.3479 3.19813 1.74611 4.09635 2.17219C4.64605 2.43247 4.80279 2.66 4.98338 3.27849L7.96246 13.3262H11.9102L17.9626 0.735389H14.0398" fill="url(#paint0_linear_86_726)"/>
<defs>
<linearGradient id="paint0_linear_86_726" x1="21.6641" y1="13.7833" x2="21.9927" y2="0.41243" gradientUnits="userSpaceOnUse">
<stop stop-color="#222357"/>
<stop offset="1" stop-color="#254AA5"/>
</linearGradient>
</defs>
</svg>
