<svg xmlns="http://www.w3.org/2000/svg" xmlns:xlink="http://www.w3.org/1999/xlink" width="1125" height="1258" viewBox="0 0 1125 1258">
  <defs>
    <clipPath id="clip-path">
      <rect id="Rectangle_1009" data-name="Rectangle 1009" width="1125" height="1258" fill="#fff"/>
    </clipPath>
    <filter id="Path_7670" x="-44.562" y="561.262" width="793.516" height="666.392" filterUnits="userSpaceOnUse">
      <feOffset dy="13" input="SourceAlpha"/>
      <feGaussianBlur stdDeviation="49.5" result="blur"/>
      <feFlood flood-opacity="0.051"/>
      <feComposite operator="in" in2="blur"/>
      <feComposite in="SourceGraphic"/>
    </filter>
    <radialGradient id="radial-gradient" cx="0.5" cy="0.5" r="0.5" gradientTransform="translate(0)" gradientUnits="objectBoundingBox">
      <stop offset="0"/>
      <stop offset="0.302" stop-color="#040404"/>
      <stop offset="0.657" stop-color="#131312"/>
      <stop offset="1" stop-color="#282826"/>
    </radialGradient>
    <linearGradient id="linear-gradient" y1="0.5" x2="1" y2="0.5" gradientUnits="objectBoundingBox">
      <stop offset="0.005" stop-color="#a8a8a8"/>
      <stop offset="1" stop-color="#959591"/>
    </linearGradient>
  </defs>
  <g id="Mask_Group_22" data-name="Mask Group 22" clip-path="url(#clip-path)">
    <g id="Group_1105" data-name="Group 1105">
      <path id="Path_7193" data-name="Path 7193" d="M93.809,1229.668s536.26,176.693,1132.088,0,1.338-1051.426,1.338-1051.426L0,0Z" transform="translate(-561.611 -37.021) rotate(-8)" fill="#f9f9fb"/>
      <g id="Group_1102" data-name="Group 1102">
        <g id="Group_996" data-name="Group 996" transform="translate(340 179.594)">
          <g id="Group_995" data-name="Group 995" transform="translate(0 0)">
            <g id="Group_994" data-name="Group 994" transform="translate(4.991)">
              <rect id="Rectangle_897" data-name="Rectangle 897" width="325.236" height="611.794" rx="29.264" transform="translate(0.008)" fill="#101928"/>
              <rect id="Rectangle_898" data-name="Rectangle 898" width="291.833" height="553.779" rx="18.494" transform="translate(16.701 29.007)" fill="#fff"/>
              <g id="Group_1001" data-name="Group 1001" transform="translate(11.595 1)">
                <rect id="Rectangle_899" data-name="Rectangle 899" width="38.328" height="7.93" rx="3" transform="translate(137.109 9.79)" fill="#fff"/>
                <rect id="Rectangle_900" data-name="Rectangle 900" width="6.814" height="6.814" rx="3" transform="translate(126.414 9.79)" fill="#fff"/>
              </g>
              <rect id="Rectangle_901" data-name="Rectangle 901" width="15.326" height="15.326" rx="7.663" transform="translate(155.009 590.426)" fill="#fff"/>
            </g>
            <path id="Rectangle_902" data-name="Rectangle 902" d="M1.866,0H4.991a0,0,0,0,1,0,0V45.5a0,0,0,0,1,0,0H1.866A1.866,1.866,0,0,1,0,43.631V1.866A1.866,1.866,0,0,1,1.866,0Z" transform="translate(0 112.62)" fill="#101928"/>
          </g>
        </g>
        <g id="Group_1003" data-name="Group 1003" transform="translate(-745.051 -231.957)">
          <g transform="matrix(1, 0, 0, 1, 745.05, 231.96)" filter="url(#Path_7670)">
            <path id="Path_7670-2" data-name="Path 7670" d="M12.6,0H483.92c6.957,0,12.6,5.238,12.6,11.7V357.693c0,6.461-5.639,11.7-12.6,11.7H12.6c-6.957,0-12.6-5.238-12.6-11.7V11.7C0,5.238,5.639,0,12.6,0Z" transform="translate(103.94 696.76)" fill="#fff"/>
          </g>
          <path id="Path_7606" data-name="Path 7606" d="M1345.381,913.8l.02,27.742-496.515.361-.02-27.744a28.885,28.885,0,0,1,28.854-28.9l438.763-.318A28.888,28.888,0,0,1,1345.381,913.8Z" transform="translate(0 15.295)" fill="#faba5f"/>
          <path id="Path_7607" data-name="Path 7607" d="M968.193,956.706l.013,18.41-5.2,0L963,960.733l-3.421,0,0-4.022Z" transform="translate(130.378 99.809)" fill="#101928" stroke="#fff" stroke-width="1"/>
          <path id="Path_7608" data-name="Path 7608" d="M1006.552,971.156l0,4.133-14.331.011,0-3.26,6.884-6.448a6.77,6.77,0,0,0,1.344-1.625,3,3,0,0,0,.34-1.352,1.712,1.712,0,0,0-.605-1.394,2.706,2.706,0,0,0-1.762-.5,3.917,3.917,0,0,0-1.888.46,3.77,3.77,0,0,0-1.4,1.333l-3.872-2.156a7.6,7.6,0,0,1,3.02-2.818,9.817,9.817,0,0,1,4.606-1.03,9.451,9.451,0,0,1,3.719.684,5.739,5.739,0,0,1,2.526,1.962,4.917,4.917,0,0,1,.91,2.955,6.421,6.421,0,0,1-.642,2.829,10.964,10.964,0,0,1-2.48,3.014l-3.467,3.205Z" transform="translate(167.703 99.579)" fill="#101928" stroke="#fff" stroke-width="1"/>
          <path id="Path_7609" data-name="Path 7609" d="M1036.777,965.9A5,5,0,0,1,1038,969.3a5.59,5.59,0,0,1-.871,3.025,6.306,6.306,0,0,1-2.683,2.256,10.348,10.348,0,0,1-4.46.856,16.114,16.114,0,0,1-3.859-.468,11.458,11.458,0,0,1-3.295-1.344l1.89-3.92a8.487,8.487,0,0,0,2.43,1.128,9.528,9.528,0,0,0,2.676.394,3.956,3.956,0,0,0,2.123-.5,1.585,1.585,0,0,0,.788-1.424c0-1.191-.937-1.781-2.818-1.779h-2.178l0-3.286,3.286-3.554-7.256,0,0-4.022,13.3-.011,0,3.26-3.813,4.1A6.129,6.129,0,0,1,1036.777,965.9Z" transform="translate(204.881 99.752)" fill="#101928" stroke="#fff" stroke-width="1"/>
          <path id="Path_7610" data-name="Path 7610" d="M1072.432,971.52l-2.742,0,0,3.521-5.072,0,0-3.523-9.732.009,0-3.393,8.247-11.5,5.4,0-7.491,10.758,3.739,0,0-3.129,4.911,0,0,3.129,2.74,0Z" transform="translate(242.63 99.725)" fill="#101928" stroke="#fff" stroke-width="1"/>
          <path id="Path_7611" data-name="Path 7611" d="M878.592,985.183a5.241,5.241,0,0,1,1.862,4.209,5.863,5.863,0,0,1-.878,3.142,6.128,6.128,0,0,1-2.683,2.293,10.422,10.422,0,0,1-4.453.856,15.793,15.793,0,0,1-3.857-.468,10.9,10.9,0,0,1-3.275-1.337l1.862-3.92a8.951,8.951,0,0,0,2.437,1.128,9.3,9.3,0,0,0,2.663.394,3.973,3.973,0,0,0,2.149-.516,1.635,1.635,0,0,0,.8-1.435,1.531,1.531,0,0,0-.791-1.394,5.855,5.855,0,0,0-2.79-.47l-5,0,.915-10.76,11.731-.009,0,4.022-7.415.007-.235,2.685,1.237,0C875.456,983.61,877.357,984.138,878.592,985.183Z" transform="translate(19.364 123.593)" fill="#ff3c3c"/>
          <path id="Path_7612" data-name="Path 7612" d="M909.819,984.478a5.79,5.79,0,0,1,2.3,2.051,5.516,5.516,0,0,1,.856,3.038,5.812,5.812,0,0,1-.956,3.3,6.272,6.272,0,0,1-2.6,2.206,8.442,8.442,0,0,1-3.676.779,8.32,8.32,0,0,1-6.232-2.332q-2.29-2.339-2.293-6.734a11.276,11.276,0,0,1,1.217-5.433,8.227,8.227,0,0,1,3.43-3.456A10.7,10.7,0,0,1,907,976.71a12.692,12.692,0,0,1,3,.337,7.7,7.7,0,0,1,2.428,1l-1.9,3.742a5.726,5.726,0,0,0-3.386-.95,4.333,4.333,0,0,0-4.658,4.292,6.145,6.145,0,0,1,4.162-1.37A7.024,7.024,0,0,1,909.819,984.478Zm-2.589,7.043a2.183,2.183,0,0,0,.7-1.714,2.129,2.129,0,0,0-.7-1.679,2.59,2.59,0,0,0-1.825-.629,2.634,2.634,0,0,0-1.838.64,2.382,2.382,0,0,0-.013,3.371,2.656,2.656,0,0,0,1.882.642A2.578,2.578,0,0,0,907.23,991.52Z" transform="translate(56.95 123.368)" fill="#101928" stroke="#fff" stroke-width="1"/>
          <path id="Path_7613" data-name="Path 7613" d="M943.846,976.854l0,3.26-6.481,15.157-5.682,0,6.2-14.286-4.841,0,0,2.844-4.447,0,0-6.973Z" transform="translate(93.895 123.537)" fill="#101928" stroke="#fff" stroke-width="1"/>
          <path id="Path_7614" data-name="Path 7614" d="M975.591,987.552a4.5,4.5,0,0,1,.688,2.469,4.906,4.906,0,0,1-1,3.051,6.321,6.321,0,0,1-2.809,2.03,12.715,12.715,0,0,1-8.365,0,6.31,6.31,0,0,1-2.818-2.023,4.909,4.909,0,0,1-1-3.051,4.482,4.482,0,0,1,.679-2.469,5.613,5.613,0,0,1,1.947-1.82,4.639,4.639,0,0,1-1.464-1.6,4.349,4.349,0,0,1-.516-2.108,4.509,4.509,0,0,1,.928-2.824,5.747,5.747,0,0,1,2.578-1.882,11.442,11.442,0,0,1,7.659,0,5.815,5.815,0,0,1,2.6,1.877,4.575,4.575,0,0,1,.917,2.822,4.248,4.248,0,0,1-.512,2.108,4.58,4.58,0,0,1-1.455,1.6A5.486,5.486,0,0,1,975.591,987.552Zm-5.3,3.985a2.23,2.23,0,0,0,0-3.336,3.584,3.584,0,0,0-4.022,0,2.23,2.23,0,0,0,0,3.336,3.584,3.584,0,0,0,4.022,0Zm-3.593-10.7a1.776,1.776,0,0,0-.6,1.437,1.744,1.744,0,0,0,.592,1.4,2.314,2.314,0,0,0,1.588.512,2.388,2.388,0,0,0,1.609-.514,1.739,1.739,0,0,0,.6-1.4,1.774,1.774,0,0,0-.6-1.435,2.409,2.409,0,0,0-1.609-.512A2.362,2.362,0,0,0,966.7,980.835Z" transform="translate(131.222 123.315)" fill="#101928" stroke="#fff" stroke-width="1"/>
          <path id="Path_7615" data-name="Path 7615" d="M1005.08,978.975q2.29,2.339,2.3,6.734a11.375,11.375,0,0,1-1.219,5.433,8.289,8.289,0,0,1-3.445,3.465,10.867,10.867,0,0,1-5.139,1.182,12.287,12.287,0,0,1-2.975-.353,8.138,8.138,0,0,1-2.422-.982l1.9-3.735a5.71,5.71,0,0,0,3.386.941,4.6,4.6,0,0,0,3.2-1.091,4.711,4.711,0,0,0,1.433-3.171,6.152,6.152,0,0,1-4.133,1.342,7.034,7.034,0,0,1-3.177-.719,5.7,5.7,0,0,1-2.3-2.052,5.461,5.461,0,0,1-.862-3.038,5.821,5.821,0,0,1,.962-3.3,6.307,6.307,0,0,1,2.6-2.208,9.331,9.331,0,0,1,9.906,1.553Zm-4.048,5.386a2.374,2.374,0,0,0,.011-3.371,2.7,2.7,0,0,0-1.879-.636,2.566,2.566,0,0,0-1.8.631,2.406,2.406,0,0,0,0,3.393,2.649,2.649,0,0,0,1.825.629A2.618,2.618,0,0,0,1001.032,984.361Z" transform="translate(168.111 123.289)" fill="#101928" stroke="#fff" stroke-width="1"/>
          <path id="Path_7616" data-name="Path 7616" d="M1028.105,976.791l.013,18.41-5.211,0-.009-14.388-3.421,0,0-4.022Z" transform="translate(200.926 123.463)" fill="#101928" stroke="#fff" stroke-width="1"/>
          <path id="Path_7617" data-name="Path 7617" d="M1028.634,994.635a7.555,7.555,0,0,1-2.881-3.3,13.2,13.2,0,0,1-.006-10.281,7.6,7.6,0,0,1,2.875-3.3,7.844,7.844,0,0,1,4.209-1.132,7.763,7.763,0,0,1,4.177,1.126,7.569,7.569,0,0,1,2.89,3.3,13.22,13.22,0,0,1,.007,10.279,7.531,7.531,0,0,1-2.883,3.3,7.764,7.764,0,0,1-4.175,1.134A7.843,7.843,0,0,1,1028.634,994.635Zm6.3-4.408a10.888,10.888,0,0,0-.006-8.075,2.373,2.373,0,0,0-4.21,0,10.873,10.873,0,0,0,0,8.075,2.377,2.377,0,0,0,4.212,0Z" transform="translate(207.089 123.26)" fill="#101928" stroke="#fff" stroke-width="1"/>
          <path id="Path_7618" data-name="Path 7618" d="M1063.2,976.765l.013,18.41-5.209,0-.011-14.386-3.419,0,0-4.024Z" transform="translate(242.259 123.432)" fill="#101928" stroke="#fff" stroke-width="1"/>
          <path id="Path_7619" data-name="Path 7619" d="M1068.093,976.762l.013,18.41-5.216,0-.011-14.388-3.412,0,0-4.022Z" transform="translate(248.02 123.429)" fill="#101928" stroke="#fff" stroke-width="1"/>
          <path id="Path_7620" data-name="Path 7620" d="M870.3,997.037l.013,18.411-5.216,0-.011-14.388-3.415,0,0-4.022Z" transform="translate(15.074 147.307)" fill="#ff3c3c"/>
          <path id="Path_7621" data-name="Path 7621" d="M881.695,1011.507l0,4.134-14.331.011,0-3.26,6.89-6.45a6.508,6.508,0,0,0,1.337-1.622,2.9,2.9,0,0,0,.338-1.354,1.691,1.691,0,0,0-.6-1.394,2.7,2.7,0,0,0-1.762-.5,3.776,3.776,0,0,0-3.288,1.79l-3.863-2.154a7.537,7.537,0,0,1,3.02-2.818,9.771,9.771,0,0,1,4.606-1.03,9.428,9.428,0,0,1,3.719.684,5.79,5.79,0,0,1,2.526,1.96,4.962,4.962,0,0,1,.9,2.955,6.417,6.417,0,0,1-.636,2.831,10.977,10.977,0,0,1-2.482,3.012l-3.471,3.208Z" transform="translate(20.666 147.101)" fill="#ff3c3c"/>
          <path id="Path_7622" data-name="Path 7622" d="M901.83,997.014l.013,18.41-5.209,0-.011-14.388-3.412,0,0-4.022Z" transform="translate(52.222 147.28)" fill="#101928" stroke="#fff" stroke-width="1"/>
          <path id="Path_7623" data-name="Path 7623" d="M911.926,1006.249a4.993,4.993,0,0,1,1.224,3.4,5.587,5.587,0,0,1-.871,3.027,6.292,6.292,0,0,1-2.683,2.256,10.413,10.413,0,0,1-4.46.856,16.351,16.351,0,0,1-3.859-.468,11.481,11.481,0,0,1-3.295-1.344l1.89-3.92a8.552,8.552,0,0,0,2.43,1.128,9.457,9.457,0,0,0,2.676.392,3.916,3.916,0,0,0,2.123-.5,1.585,1.585,0,0,0,.791-1.422c0-1.194-.939-1.781-2.818-1.781l-2.18,0,0-3.288,3.286-3.554-7.256.007,0-4.024,13.3-.009,0,3.26-3.813,4.1A6.131,6.131,0,0,1,911.926,1006.249Z" transform="translate(57.844 147.274)" fill="#101928" stroke="#fff" stroke-width="1"/>
          <path id="Path_7624" data-name="Path 7624" d="M933.52,996.991l.013,18.41-5.218,0-.011-14.388-3.412,0,0-4.022Z" transform="translate(89.533 147.253)" fill="#101928" stroke="#fff" stroke-width="1"/>
          <path id="Path_7625" data-name="Path 7625" d="M947.584,1011.868l-2.733,0,0,3.524-5.079,0,0-3.524-9.732.007,0-3.393,8.253-11.5,5.39,0-7.491,10.758,3.733,0,0-3.127,4.924,0,0,3.129,2.735,0Z" transform="translate(95.596 147.247)" fill="#101928" stroke="#fff" stroke-width="1"/>
          <path id="Path_7626" data-name="Path 7626" d="M964.9,996.968l.013,18.41-5.2,0L959.705,1001l-3.421,0,0-4.024Z" transform="translate(126.504 147.226)" fill="#101928" stroke="#fff" stroke-width="1"/>
          <path id="Path_7627" data-name="Path 7627" d="M974.487,1005.247a5.243,5.243,0,0,1,1.862,4.207,5.877,5.877,0,0,1-.88,3.145,6.162,6.162,0,0,1-2.681,2.291,10.4,10.4,0,0,1-4.453.856,16.041,16.041,0,0,1-3.859-.468,10.925,10.925,0,0,1-3.273-1.344l1.862-3.92a8.9,8.9,0,0,0,2.437,1.128,9.311,9.311,0,0,0,2.663.394,3.915,3.915,0,0,0,2.149-.516,1.624,1.624,0,0,0,.8-1.428,1.52,1.52,0,0,0-.791-1.394,5.794,5.794,0,0,0-2.79-.477l-5,0,.917-10.754,11.729-.008,0,4.022-7.415.007-.233,2.679,1.233,0C971.351,1003.666,973.252,1004.193,974.487,1005.247Z" transform="translate(132.299 147.219)" fill="#101928" stroke="#fff" stroke-width="1"/>
          <path id="Path_7628" data-name="Path 7628" d="M996.514,996.945l.013,18.41-5.209,0-.011-14.386-3.421,0,0-4.024Z" transform="translate(163.721 147.198)" fill="#101928" stroke="#fff" stroke-width="1"/>
          <path id="Path_7629" data-name="Path 7629" d="M1005.714,1004.543a5.706,5.706,0,0,1,2.3,2.052,5.5,5.5,0,0,1,.856,3.038,5.791,5.791,0,0,1-.956,3.3,6.351,6.351,0,0,1-2.6,2.215,8.491,8.491,0,0,1-3.676.78,8.32,8.32,0,0,1-6.23-2.341q-2.29-2.339-2.293-6.727a11.243,11.243,0,0,1,1.217-5.433,8.245,8.245,0,0,1,3.43-3.463,10.7,10.7,0,0,1,5.126-1.191,12.8,12.8,0,0,1,3,.344,7.7,7.7,0,0,1,2.428,1l-1.9,3.735a5.707,5.707,0,0,0-3.386-.941,4.683,4.683,0,0,0-3.238,1.1,4.628,4.628,0,0,0-1.42,3.186,6.113,6.113,0,0,1,4.159-1.37A7,7,0,0,1,1005.714,1004.543Zm-2.589,7.036a2.169,2.169,0,0,0,.7-1.707,2.147,2.147,0,0,0-.7-1.685,2.947,2.947,0,0,0-3.663.017,2.369,2.369,0,0,0-.013,3.364,2.654,2.654,0,0,0,1.882.643A2.556,2.556,0,0,0,1003.125,1011.58Z" transform="translate(169.885 146.991)" fill="#101928" stroke="#fff" stroke-width="1"/>
          <path id="Path_7630" data-name="Path 7630" d="M1028.017,996.923l.013,18.41-5.211,0-.009-14.386-3.415,0,0-4.025Z" transform="translate(200.831 147.172)" fill="#101928" stroke="#fff" stroke-width="1"/>
          <path id="Path_7631" data-name="Path 7631" d="M1039.742,996.917l0,3.26-6.481,15.155-5.682,0,6.2-14.288-4.841,0,0,2.838-4.447,0-.006-6.964Z" transform="translate(206.829 147.165)" fill="#101928" stroke="#fff" stroke-width="1"/>
          <path id="Path_7632" data-name="Path 7632" d="M1060.62,996.9l.013,18.41-5.2,0-.011-14.388-3.419,0,0-4.022Z" transform="translate(239.226 147.144)" fill="#101928" stroke="#fff" stroke-width="1"/>
          <path id="Path_7633" data-name="Path 7633" d="M1072.484,1007.609a4.5,4.5,0,0,1,.682,2.476,4.894,4.894,0,0,1-1,3.047,6.282,6.282,0,0,1-2.809,2.028,12.622,12.622,0,0,1-8.365.006,6.227,6.227,0,0,1-2.811-2.025,4.851,4.851,0,0,1-1-3.044,4.547,4.547,0,0,1,.677-2.476,5.6,5.6,0,0,1,1.943-1.812,4.821,4.821,0,0,1-1.459-1.609,4.288,4.288,0,0,1-.514-2.1,4.582,4.582,0,0,1,.921-2.831,5.836,5.836,0,0,1,2.585-1.882,11.447,11.447,0,0,1,7.659,0,5.862,5.862,0,0,1,2.589,1.877,4.563,4.563,0,0,1,.923,2.829,4.371,4.371,0,0,1-.511,2.1,4.8,4.8,0,0,1-1.455,1.61A5.553,5.553,0,0,1,1072.484,1007.609Zm-5.3,3.992a2.242,2.242,0,0,0,0-3.343,3.587,3.587,0,0,0-4.024,0,2.244,2.244,0,0,0,0,3.345,3.582,3.582,0,0,0,4.025,0Zm-3.6-10.708a1.8,1.8,0,0,0-.6,1.437,1.774,1.774,0,0,0,.59,1.407,2.738,2.738,0,0,0,3.2,0,1.719,1.719,0,0,0,.6-1.407,1.775,1.775,0,0,0-.605-1.437,2.408,2.408,0,0,0-1.6-.505A2.369,2.369,0,0,0,1063.588,1000.893Z" transform="translate(245.335 146.937)" fill="#101928" stroke="#fff" stroke-width="1"/>
          <path id="Path_7634" data-name="Path 7634" d="M870.379,1017.165l.015,18.41-5.218,0-.011-14.388-3.412,0,0-4.024Z" transform="translate(15.175 171.011)" fill="#ff3c3c"/>
          <path id="Path_7635" data-name="Path 7635" d="M880.226,1019.331c1.527,1.56,2.291,3.8,2.293,6.734a11.277,11.277,0,0,1-1.217,5.433,8.294,8.294,0,0,1-3.436,3.456,10.8,10.8,0,0,1-5.146,1.191,12.26,12.26,0,0,1-2.97-.353,8.167,8.167,0,0,1-2.422-.991l1.892-3.732a5.71,5.71,0,0,0,3.391.947,4.63,4.63,0,0,0,3.2-1.1,4.715,4.715,0,0,0,1.427-3.171,6.169,6.169,0,0,1-4.127,1.348,7,7,0,0,1-3.184-.725,5.732,5.732,0,0,1-2.306-2.045,5.535,5.535,0,0,1-.856-3.038,5.812,5.812,0,0,1,.963-3.3,6.29,6.29,0,0,1,2.6-2.215,8.5,8.5,0,0,1,3.641-.78A8.339,8.339,0,0,1,880.226,1019.331Zm-4.048,5.379a2.353,2.353,0,0,0,.013-3.365,2.641,2.641,0,0,0-1.875-.645,2.552,2.552,0,0,0-1.8.634,2.183,2.183,0,0,0-.7,1.714,2.131,2.131,0,0,0,.7,1.679,2.59,2.59,0,0,0,1.823.629A2.628,2.628,0,0,0,876.177,1024.71Z" transform="translate(21.077 170.805)" fill="#ff3c3c"/>
          <path id="Path_7636" data-name="Path 7636" d="M908.807,1031.616l0,4.133-14.331.011,0-3.26,6.884-6.45a6.679,6.679,0,0,0,1.344-1.624,3,3,0,0,0,.34-1.352,1.709,1.709,0,0,0-.605-1.394,2.692,2.692,0,0,0-1.762-.5,3.937,3.937,0,0,0-1.886.457,3.8,3.8,0,0,0-1.4,1.333l-3.872-2.154A7.587,7.587,0,0,1,896.54,1018a9.774,9.774,0,0,1,4.6-1.03,9.4,9.4,0,0,1,3.72.684,5.743,5.743,0,0,1,2.526,1.96,4.907,4.907,0,0,1,.91,2.955,6.4,6.4,0,0,1-.642,2.831,10.891,10.891,0,0,1-2.48,3.012l-3.467,3.208Z" transform="translate(52.585 170.783)" fill="#101928" stroke="#fff" stroke-width="1"/>
          <path id="Path_7637" data-name="Path 7637" d="M905.161,1034.99a7.661,7.661,0,0,1-2.888-3.3,13.318,13.318,0,0,1-.006-10.287,7.585,7.585,0,0,1,2.883-3.3,8.306,8.306,0,0,1,8.393-.006,7.568,7.568,0,0,1,2.875,3.292,13.242,13.242,0,0,1,.007,10.288,7.627,7.627,0,0,1-2.868,3.3,8.352,8.352,0,0,1-8.395.006Zm6.3-4.41a10.873,10.873,0,0,0,0-8.075,2.37,2.37,0,0,0-4.205,0,10.887,10.887,0,0,0,.006,8.075,2.368,2.368,0,0,0,4.2,0Z" transform="translate(61.677 170.776)" fill="#101928" stroke="#fff" stroke-width="1"/>
          <path id="Path_7638" data-name="Path 7638" d="M939.9,1031.593l0,4.136-14.331.009,0-3.26,6.883-6.448a6.772,6.772,0,0,0,1.344-1.625,3,3,0,0,0,.34-1.352,1.705,1.705,0,0,0-.606-1.394,2.7,2.7,0,0,0-1.762-.5,3.912,3.912,0,0,0-1.886.459,3.764,3.764,0,0,0-1.4,1.333l-3.872-2.156a7.6,7.6,0,0,1,3.023-2.818,9.8,9.8,0,0,1,4.6-1.03,9.443,9.443,0,0,1,3.72.684,5.729,5.729,0,0,1,2.526,1.962,4.9,4.9,0,0,1,.91,2.955,6.418,6.418,0,0,1-.642,2.829,10.9,10.9,0,0,1-2.483,3.014l-3.465,3.208Z" transform="translate(89.207 170.756)" fill="#101928" stroke="#fff" stroke-width="1"/>
          <path id="Path_7639" data-name="Path 7639" d="M940.614,1017.114l.015,18.41-5.2,0-.009-14.386-3.421,0,0-4.024Z" transform="translate(97.897 170.951)" fill="#101928" stroke="#fff" stroke-width="1"/>
          <path id="Path_7640" data-name="Path 7640" d="M971.735,1031.57l0,4.135-14.332.009,0-3.26,6.89-6.448a6.555,6.555,0,0,0,1.337-1.625,2.921,2.921,0,0,0,.34-1.352,1.687,1.687,0,0,0-.606-1.394,2.705,2.705,0,0,0-1.762-.5,3.884,3.884,0,0,0-1.879.459,3.833,3.833,0,0,0-1.407,1.333l-3.865-2.156a7.558,7.558,0,0,1,3.023-2.818,9.783,9.783,0,0,1,4.6-1.03,9.469,9.469,0,0,1,3.72.684,5.777,5.777,0,0,1,2.526,1.962,4.937,4.937,0,0,1,.9,2.955,6.387,6.387,0,0,1-.636,2.829,11.057,11.057,0,0,1-2.48,3.014l-3.474,3.205Z" transform="translate(126.706 170.729)" fill="#101928" stroke="#fff" stroke-width="1"/>
          <path id="Path_7641" data-name="Path 7641" d="M978.982,1031.565l0,4.133-14.332.011,0-3.26,6.875-6.45a6.592,6.592,0,0,0,1.346-1.622,2.933,2.933,0,0,0,.346-1.355,1.713,1.713,0,0,0-.612-1.394,2.693,2.693,0,0,0-1.762-.5,3.775,3.775,0,0,0-3.288,1.79l-3.872-2.154a7.638,7.638,0,0,1,3.031-2.818,9.75,9.75,0,0,1,4.6-1.03,9.438,9.438,0,0,1,3.726.684,5.787,5.787,0,0,1,2.526,1.96,4.952,4.952,0,0,1,.91,2.955,6.486,6.486,0,0,1-.643,2.831,10.8,10.8,0,0,1-2.489,3.012l-3.465,3.208Z" transform="translate(135.221 170.723)" fill="#101928" stroke="#fff" stroke-width="1"/>
          <path id="Path_7642" data-name="Path 7642" d="M1003.285,1031.547l0,4.136-14.331.011,0-3.262,6.877-6.448a6.517,6.517,0,0,0,1.344-1.625,2.875,2.875,0,0,0,.347-1.352,1.7,1.7,0,0,0-.612-1.394,2.687,2.687,0,0,0-1.76-.5,3.906,3.906,0,0,0-1.881.46,3.844,3.844,0,0,0-1.407,1.333l-3.872-2.156a7.632,7.632,0,0,1,3.029-2.818,9.82,9.82,0,0,1,4.6-1.03,9.474,9.474,0,0,1,3.724.684,5.784,5.784,0,0,1,2.528,1.962,4.972,4.972,0,0,1,.91,2.955,6.494,6.494,0,0,1-.645,2.831,10.834,10.834,0,0,1-2.487,3.012l-3.467,3.208Z" transform="translate(163.845 170.702)" fill="#101928" stroke="#fff" stroke-width="1"/>
          <path id="Path_7643" data-name="Path 7643" d="M1009.2,1026.307a5.025,5.025,0,0,1,1.224,3.4,5.538,5.538,0,0,1-.878,3.027,6.271,6.271,0,0,1-2.676,2.256,10.463,10.463,0,0,1-4.466.856,16.036,16.036,0,0,1-3.85-.468,11.458,11.458,0,0,1-3.3-1.344l1.884-3.92a8.622,8.622,0,0,0,2.437,1.128,9.523,9.523,0,0,0,2.67.392,3.948,3.948,0,0,0,2.13-.5,1.591,1.591,0,0,0,.791-1.424c0-1.193-.939-1.781-2.818-1.781l-2.186,0,0-3.288,3.286-3.554-7.256.007,0-4.024,13.3-.009,0,3.26-3.811,4.1A6.144,6.144,0,0,1,1009.2,1026.307Z" transform="translate(172.403 170.896)" fill="#101928" stroke="#fff" stroke-width="1"/>
          <path id="Path_7644" data-name="Path 7644" d="M1034.967,1031.524l0,4.136-14.332.011,0-3.262,6.877-6.448a6.56,6.56,0,0,0,1.344-1.625,2.878,2.878,0,0,0,.346-1.352,1.7,1.7,0,0,0-.612-1.394,2.686,2.686,0,0,0-1.762-.5,3.776,3.776,0,0,0-3.286,1.792l-3.872-2.156a7.636,7.636,0,0,1,3.029-2.818,9.8,9.8,0,0,1,4.6-1.03,9.516,9.516,0,0,1,3.726.684,5.786,5.786,0,0,1,2.528,1.962,4.975,4.975,0,0,1,.91,2.955,6.517,6.517,0,0,1-.643,2.831,10.933,10.933,0,0,1-2.489,3.012l-3.467,3.208Z" transform="translate(201.157 170.675)" fill="#101928" stroke="#fff" stroke-width="1"/>
          <path id="Path_7645" data-name="Path 7645" d="M1044.855,1031.926l-2.733,0,0,3.523-5.078,0,0-3.524-9.732.006,0-3.391,8.253-11.5,5.39,0-7.491,10.758,3.733,0,0-3.127,4.926,0,0,3.129,2.733,0Z" transform="translate(210.152 170.869)" fill="#101928" stroke="#fff" stroke-width="1"/>
          <path id="Path_7646" data-name="Path 7646" d="M1066.362,1031.5l0,4.133-14.332.011,0-3.26,6.879-6.45a6.616,6.616,0,0,0,1.344-1.624,2.931,2.931,0,0,0,.346-1.352,1.713,1.713,0,0,0-.612-1.394,2.7,2.7,0,0,0-1.762-.5,3.974,3.974,0,0,0-1.881.459,3.9,3.9,0,0,0-1.407,1.333l-3.872-2.154a7.623,7.623,0,0,1,3.029-2.82,9.791,9.791,0,0,1,4.6-1.028,9.445,9.445,0,0,1,3.726.684,5.773,5.773,0,0,1,2.526,1.96,4.966,4.966,0,0,1,.91,2.955,6.515,6.515,0,0,1-.642,2.831,10.86,10.86,0,0,1-2.489,3.012l-3.465,3.208Z" transform="translate(238.131 170.648)" fill="#101928" stroke="#fff" stroke-width="1"/>
          <path id="Path_7647" data-name="Path 7647" d="M1071.768,1025.305a5.249,5.249,0,0,1,1.855,4.21,5.952,5.952,0,0,1-.878,3.142,6.164,6.164,0,0,1-2.685,2.291,10.369,10.369,0,0,1-4.458.856,16.045,16.045,0,0,1-3.85-.468,11.007,11.007,0,0,1-3.275-1.344l1.862-3.92a8.9,8.9,0,0,0,2.437,1.128,9.253,9.253,0,0,0,2.67.394,3.868,3.868,0,0,0,2.136-.516,1.594,1.594,0,0,0,.8-1.429,1.52,1.52,0,0,0-.79-1.394,5.818,5.818,0,0,0-2.79-.477l-4.994,0,.912-10.753,11.731-.009,0,4.022-7.415.007-.24,2.679,1.242,0C1068.617,1023.724,1070.533,1024.251,1071.768,1025.305Z" transform="translate(246.859 170.842)" fill="#101928" stroke="#fff" stroke-width="1"/>
          <path id="Path_7648" data-name="Path 7648" d="M877.209,1051.77l0,4.127-14.331.011,0-3.26,6.89-6.448a6.659,6.659,0,0,0,1.337-1.618,2.961,2.961,0,0,0,.34-1.352,1.694,1.694,0,0,0-.605-1.4,2.713,2.713,0,0,0-1.762-.5,3.886,3.886,0,0,0-1.879.46,3.763,3.763,0,0,0-1.407,1.326l-3.865-2.149a7.514,7.514,0,0,1,3.023-2.818,9.7,9.7,0,0,1,4.606-1.03,9.5,9.5,0,0,1,3.717.684,5.7,5.7,0,0,1,2.526,1.955,4.981,4.981,0,0,1,.9,2.962,6.333,6.333,0,0,1-.636,2.822,10.854,10.854,0,0,1-2.48,3.014l-3.474,3.215Z" transform="translate(15.381 194.518)" fill="#ff3c3c"/>
          <path id="Path_7649" data-name="Path 7649" d="M882.239,1044.887a5.741,5.741,0,0,1,2.3,2.051,5.51,5.51,0,0,1,.862,3.037,5.815,5.815,0,0,1-.954,3.3,6.3,6.3,0,0,1-2.607,2.208,8.446,8.446,0,0,1-3.669.78,8.325,8.325,0,0,1-6.239-2.333q-2.29-2.342-2.293-6.736a11.367,11.367,0,0,1,1.217-5.431,8.258,8.258,0,0,1,3.436-3.458,10.684,10.684,0,0,1,5.126-1.189,12.748,12.748,0,0,1,3,.338,7.61,7.61,0,0,1,2.422,1l-1.89,3.739a5.765,5.765,0,0,0-3.393-.947,4.644,4.644,0,0,0-3.232,1.113,4.566,4.566,0,0,0-1.42,3.177,6.122,6.122,0,0,1,4.153-1.368A7.012,7.012,0,0,1,882.239,1044.887Zm-2.583,7.042a2.208,2.208,0,0,0,.7-1.714,2.15,2.15,0,0,0-.7-1.679,2.612,2.612,0,0,0-1.825-.63,2.656,2.656,0,0,0-1.844.64,2.377,2.377,0,0,0-.013,3.372,2.694,2.694,0,0,0,1.888.642A2.591,2.591,0,0,0,879.656,1051.929Z" transform="translate(24.469 194.511)" fill="#ff3c3c"/>
          <path id="Path_7650" data-name="Path 7650" d="M908.724,1051.749l0,4.127-14.331.009,0-3.26,6.884-6.448a6.529,6.529,0,0,0,1.337-1.618,2.894,2.894,0,0,0,.346-1.352,1.7,1.7,0,0,0-.612-1.394,2.7,2.7,0,0,0-1.762-.5,3.9,3.9,0,0,0-1.873.46,3.825,3.825,0,0,0-1.413,1.326l-3.868-2.147a7.544,7.544,0,0,1,3.031-2.82,9.7,9.7,0,0,1,4.6-1.03,9.54,9.54,0,0,1,3.726.684,5.744,5.744,0,0,1,2.526,1.955,5.042,5.042,0,0,1,.9,2.962,6.431,6.431,0,0,1-.636,2.824,10.754,10.754,0,0,1-2.489,3.012l-3.471,3.214Z" transform="translate(52.485 194.491)" fill="#101928" stroke="#fff" stroke-width="1"/>
          <path id="Path_7651" data-name="Path 7651" d="M916.277,1037.263l0,3.26-6.49,15.155-5.682,0L910.3,1041.4l-4.834,0,0,2.844-4.447,0,0-6.973Z" transform="translate(61.417 194.681)" fill="#101928" stroke="#fff" stroke-width="1"/>
          <path id="Path_7652" data-name="Path 7652" d="M940.331,1051.725l0,4.127-14.329.011,0-3.262,6.875-6.448a6.759,6.759,0,0,0,1.346-1.618,2.974,2.974,0,0,0,.344-1.353,1.72,1.72,0,0,0-.61-1.394,2.7,2.7,0,0,0-1.764-.5,3.928,3.928,0,0,0-1.88.46,3.8,3.8,0,0,0-1.407,1.326l-3.872-2.147a7.558,7.558,0,0,1,3.029-2.818,9.676,9.676,0,0,1,4.6-1.03,9.471,9.471,0,0,1,3.726.682,5.708,5.708,0,0,1,2.526,1.956,4.986,4.986,0,0,1,.91,2.962,6.4,6.4,0,0,1-.642,2.825,10.664,10.664,0,0,1-2.487,3.012l-3.467,3.214Z" transform="translate(89.704 194.465)" fill="#101928" stroke="#fff" stroke-width="1"/>
          <path id="Path_7653" data-name="Path 7653" d="M948.016,1047.96a4.534,4.534,0,0,1,.688,2.467,4.9,4.9,0,0,1-1,3.053,6.334,6.334,0,0,1-2.814,2.027,12.7,12.7,0,0,1-8.367.007,6.353,6.353,0,0,1-2.818-2.023,4.9,4.9,0,0,1-1-3.051,4.478,4.478,0,0,1,.684-2.472,5.514,5.514,0,0,1,1.947-1.819,4.514,4.514,0,0,1-1.464-1.6,4.379,4.379,0,0,1-.516-2.108,4.544,4.544,0,0,1,.921-2.824,5.722,5.722,0,0,1,2.587-1.881,11.432,11.432,0,0,1,7.65-.007,5.763,5.763,0,0,1,2.6,1.88,4.58,4.58,0,0,1,.926,2.822,4.4,4.4,0,0,1-.512,2.108,4.545,4.545,0,0,1-1.464,1.605A5.446,5.446,0,0,1,948.016,1047.96Zm-5.3,3.985a2.23,2.23,0,0,0,0-3.336,3.585,3.585,0,0,0-4.022,0,2.23,2.23,0,0,0,0,3.337,3.585,3.585,0,0,0,4.022,0Zm-3.593-10.7a1.778,1.778,0,0,0-.61,1.435,1.73,1.73,0,0,0,.6,1.4,2.3,2.3,0,0,0,1.587.512,2.371,2.371,0,0,0,1.6-.514,1.741,1.741,0,0,0,.61-1.4,1.776,1.776,0,0,0-.612-1.435,2.39,2.39,0,0,0-1.6-.512A2.365,2.365,0,0,0,939.125,1041.244Z" transform="translate(98.742 194.458)" fill="#101928" stroke="#fff" stroke-width="1"/>
          <path id="Path_7654" data-name="Path 7654" d="M971.828,1051.7l0,4.127-14.334.011,0-3.26,6.877-6.45a6.693,6.693,0,0,0,1.346-1.616,3.011,3.011,0,0,0,.344-1.354,1.717,1.717,0,0,0-.61-1.394,2.7,2.7,0,0,0-1.762-.5,3.936,3.936,0,0,0-1.882.46,3.811,3.811,0,0,0-1.407,1.326l-3.872-2.147a7.574,7.574,0,0,1,3.029-2.818,9.671,9.671,0,0,1,4.6-1.03,9.458,9.458,0,0,1,3.726.683,5.712,5.712,0,0,1,2.524,1.953,5,5,0,0,1,.912,2.962,6.5,6.5,0,0,1-.642,2.824,10.653,10.653,0,0,1-2.489,3.012l-3.467,3.214Z" transform="translate(126.798 194.438)" fill="#101928" stroke="#fff" stroke-width="1"/>
          <path id="Path_7655" data-name="Path 7655" d="M977.5,1039.384q2.29,2.339,2.293,6.734a11.278,11.278,0,0,1-1.217,5.433,8.29,8.29,0,0,1-3.437,3.465,10.908,10.908,0,0,1-5.146,1.183,12.255,12.255,0,0,1-2.97-.353,8.155,8.155,0,0,1-2.421-.982l1.89-3.735a5.717,5.717,0,0,0,3.393.941,4.624,4.624,0,0,0,3.2-1.091,4.718,4.718,0,0,0,1.429-3.171,6.154,6.154,0,0,1-4.127,1.342,7.077,7.077,0,0,1-3.184-.719,5.733,5.733,0,0,1-2.306-2.052,5.5,5.5,0,0,1-.856-3.038,5.833,5.833,0,0,1,.963-3.3,6.281,6.281,0,0,1,2.6-2.208,9.327,9.327,0,0,1,9.9,1.555Zm-4.048,5.386a2.361,2.361,0,0,0,.013-3.371,2.676,2.676,0,0,0-1.875-.638,2.566,2.566,0,0,0-1.8.634,2.4,2.4,0,0,0,0,3.391,2.945,2.945,0,0,0,3.663-.015Z" transform="translate(135.633 194.432)" fill="#101928" stroke="#fff" stroke-width="1"/>
          <path id="Path_7656" data-name="Path 7656" d="M1002.118,1046.449a5.032,5.032,0,0,1,1.224,3.4,5.539,5.539,0,0,1-.88,3.027,6.2,6.2,0,0,1-2.676,2.247,10.427,10.427,0,0,1-4.466.858,15.844,15.844,0,0,1-3.85-.47,11.385,11.385,0,0,1-3.295-1.335l1.883-3.922a8.526,8.526,0,0,0,2.435,1.13,9.512,9.512,0,0,0,2.672.392,3.939,3.939,0,0,0,2.128-.5,1.59,1.59,0,0,0,.79-1.422c0-1.193-.936-1.79-2.818-1.788l-2.184,0,0-3.288,3.286-3.554-7.256,0,0-4.022,13.306-.011,0,3.262-3.813,4.107A6.122,6.122,0,0,1,1002.118,1046.449Z" transform="translate(164.063 194.606)" fill="#101928" stroke="#fff" stroke-width="1"/>
          <path id="Path_7657" data-name="Path 7657" d="M999.836,1055.047a7.575,7.575,0,0,1-2.881-3.3,13.224,13.224,0,0,1-.007-10.281,7.61,7.61,0,0,1,2.877-3.306,8.343,8.343,0,0,1,8.386,0,7.582,7.582,0,0,1,2.888,3.3,13.2,13.2,0,0,1,.006,10.281,7.524,7.524,0,0,1-2.883,3.3,7.782,7.782,0,0,1-4.175,1.135A7.865,7.865,0,0,1,999.836,1055.047Zm6.3-4.41a10.859,10.859,0,0,0-.007-8.075,2.374,2.374,0,0,0-4.209,0,10.857,10.857,0,0,0,.006,8.075,2.374,2.374,0,0,0,4.21,0Z" transform="translate(173.176 194.404)" fill="#101928" stroke="#fff" stroke-width="1"/>
          <path id="Path_7658" data-name="Path 7658" d="M1033.214,1046.424a5.024,5.024,0,0,1,1.222,3.406,5.525,5.525,0,0,1-.877,3.025,6.205,6.205,0,0,1-2.676,2.25,10.432,10.432,0,0,1-4.467.856,15.731,15.731,0,0,1-3.85-.468,11.351,11.351,0,0,1-3.295-1.337l1.884-3.92a8.508,8.508,0,0,0,2.435,1.128,9.519,9.519,0,0,0,2.67.394,3.94,3.94,0,0,0,2.13-.5,1.594,1.594,0,0,0,.79-1.422q0-1.79-2.818-1.788h-2.184l0-3.288,3.284-3.554-7.256.007,0-4.025,13.306-.009,0,3.26-3.813,4.109A6.116,6.116,0,0,1,1033.214,1046.424Z" transform="translate(200.685 194.581)" fill="#101928" stroke="#fff" stroke-width="1"/>
          <path id="Path_7659" data-name="Path 7659" d="M1035.3,1037.174l.013,18.41-5.215,0-.011-14.386-3.412,0,0-4.024Z" transform="translate(209.396 194.576)" fill="#101928" stroke="#fff" stroke-width="1"/>
          <path id="Path_7660" data-name="Path 7660" d="M903.494,904.7a15.647,15.647,0,1,1-15.658-15.634A15.646,15.646,0,0,1,903.494,904.7Z" transform="translate(27.48 20.152)" fill="#fff"/>
          <path id="Path_7661" data-name="Path 7661" d="M945.231,904.673a15.647,15.647,0,1,1-15.657-15.636A15.647,15.647,0,0,1,945.231,904.673Z" transform="translate(76.634 20.115)" fill="#fff"/>
          <path id="Path_7662" data-name="Path 7662" d="M986.965,904.643a15.646,15.646,0,1,1-15.658-15.636A15.645,15.645,0,0,1,986.965,904.643Z" transform="translate(125.788 20.08)" fill="#fff"/>
          <path id="Path_7663" data-name="Path 7663" d="M1028.7,904.611a15.647,15.647,0,1,1-15.657-15.634A15.645,15.645,0,0,1,1028.7,904.611Z" transform="translate(174.94 20.045)" fill="#fff"/>
          <path id="Path_7664" data-name="Path 7664" d="M1070.438,904.581a15.646,15.646,0,1,1-15.655-15.633A15.645,15.645,0,0,1,1070.438,904.581Z" transform="translate(224.094 20.009)" fill="#fff"/>
          <g id="Group_1002" data-name="Group 1002" transform="translate(908.555 871.957)">
            <path id="Path_7665" data-name="Path 7665" d="M883.039,928.7h0a6.727,6.727,0,0,1-6.734-6.72l-.03-43.166A6.727,6.727,0,0,1,883,872.078h0a6.724,6.724,0,0,1,6.731,6.72l.03,43.167A6.724,6.724,0,0,1,883.039,928.7Z" transform="translate(-876.275 -871.814)" fill="#101928"/>
            <path id="Path_7666" data-name="Path 7666" d="M924.78,928.667h0a6.726,6.726,0,0,1-6.731-6.722l-.03-43.164a6.727,6.727,0,0,1,6.72-6.734h0a6.729,6.729,0,0,1,6.734,6.723l.031,43.166A6.727,6.727,0,0,1,924.78,928.667Z" transform="translate(-827.114 -871.851)" fill="#101928"/>
            <path id="Path_7667" data-name="Path 7667" d="M966.524,928.637h0a6.731,6.731,0,0,1-6.734-6.723l-.03-43.166a6.726,6.726,0,0,1,6.723-6.731h0a6.727,6.727,0,0,1,6.731,6.722l.033,43.166A6.727,6.727,0,0,1,966.524,928.637Z" transform="translate(-777.955 -871.886)" fill="#101928"/>
            <path id="Path_7668" data-name="Path 7668" d="M1008.265,928.607h0a6.727,6.727,0,0,1-6.731-6.722l-.031-43.167a6.726,6.726,0,0,1,6.723-6.731h0a6.727,6.727,0,0,1,6.731,6.723l.03,43.164A6.728,6.728,0,0,1,1008.265,928.607Z" transform="translate(-728.794 -871.922)" fill="#101928"/>
            <path id="Path_7669" data-name="Path 7669" d="M1050.009,928.577h0a6.726,6.726,0,0,1-6.731-6.722l-.033-43.166a6.727,6.727,0,0,1,6.722-6.731h0a6.725,6.725,0,0,1,6.731,6.723l.032,43.164A6.73,6.73,0,0,1,1050.009,928.577Z" transform="translate(-679.635 -871.957)" fill="#101928"/>
          </g>
          <text id="SEPTEMBER" transform="translate(873.076 1008.661) rotate(-0.296)" fill="#db8a8a" font-size="23" font-family="Montserrat-Bold, Montserrat" font-weight="700" letter-spacing="0.3em"><tspan x="0" y="0">SEPTEMBER</tspan></text>
        </g>
        <g id="Group_1048" data-name="Group 1048" transform="translate(346.096 651.466)">
          <g id="Group_1025" data-name="Group 1025" transform="translate(377.41 102.121)">
            <g id="Group_1024" data-name="Group 1024" transform="translate(0 0)" style="mix-blend-mode: multiply;isolation: isolate">
              <g id="Group_1010" data-name="Group 1010" transform="translate(23.438 29.26)">
                <g id="Group_1004" data-name="Group 1004" transform="translate(125.936)">
                  <rect id="Rectangle_911" data-name="Rectangle 911" width="1.178" height="13.753" fill="#d9d9d9"/>
                  <rect id="Rectangle_912" data-name="Rectangle 912" width="1.178" height="13.753" transform="translate(0 239.297)" fill="#d9d9d9"/>
                </g>
                <g id="Group_1005" data-name="Group 1005" transform="translate(62.752 16.657)">
                  <rect id="Rectangle_913" data-name="Rectangle 913" width="1.177" height="13.753" transform="matrix(0.866, -0.5, 0.5, 0.866, 0, 0.589)" fill="#d9d9d9"/>
                  <rect id="Rectangle_914" data-name="Rectangle 914" width="1.178" height="13.753" transform="matrix(0.866, -0.5, 0.5, 0.866, 119.649, 207.826)" fill="#d9d9d9"/>
                </g>
                <g id="Group_1006" data-name="Group 1006" transform="translate(16.657 62.753)">
                  <rect id="Rectangle_915" data-name="Rectangle 915" width="1.177" height="13.753" transform="translate(0 1.02) rotate(-60)" fill="#d9d9d9"/>
                  <rect id="Rectangle_916" data-name="Rectangle 916" width="1.178" height="13.753" transform="matrix(0.5, -0.866, 0.866, 0.5, 207.237, 120.668)" fill="#d9d9d9"/>
                </g>
                <g id="Group_1007" data-name="Group 1007" transform="translate(0 125.936)">
                  <rect id="Rectangle_917" data-name="Rectangle 917" width="1.178" height="13.753" transform="translate(0 1.178) rotate(-90)" fill="#d9d9d9"/>
                  <rect id="Rectangle_918" data-name="Rectangle 918" width="1.178" height="13.753" transform="translate(239.297 1.178) rotate(-90)" fill="#d9d9d9"/>
                </g>
                <g id="Group_1008" data-name="Group 1008" transform="translate(16.657 62.753)">
                  <rect id="Rectangle_919" data-name="Rectangle 919" width="1.178" height="13.753" transform="translate(0.589 127.545) rotate(-119.997)" fill="#d9d9d9"/>
                  <rect id="Rectangle_920" data-name="Rectangle 920" width="1.177" height="13.753" transform="matrix(-0.5, -0.866, 0.866, -0.5, 207.826, 7.897)" fill="#d9d9d9"/>
                </g>
                <g id="Group_1009" data-name="Group 1009" transform="translate(62.752 16.657)">
                  <rect id="Rectangle_921" data-name="Rectangle 921" width="1.177" height="13.753" transform="translate(1.02 219.737) rotate(-149.998)" fill="#d9d9d9"/>
                  <rect id="Rectangle_922" data-name="Rectangle 922" width="1.178" height="13.753" transform="translate(120.669 12.499) rotate(-150.002)" fill="#d9d9d9"/>
                </g>
              </g>
              <g id="Group_1013" data-name="Group 1013" transform="translate(136.589)">
                <g id="Group_1011" data-name="Group 1011">
                  <path id="Path_7671" data-name="Path 7671" d="M805.061,125.867v-2.635h3.352V110.24a31.163,31.163,0,0,1-3.8,1.487v-3a23.931,23.931,0,0,0,4.174-1.852h2.935v16.409h3.417v2.583Z" transform="translate(-804.617 -106.549)" fill="#d9d9d9"/>
                  <path id="Path_7672" data-name="Path 7672" d="M856.944,105.862a5.672,5.672,0,0,1,4.207,1.591,6.21,6.21,0,0,1,1.584,4.578,6.687,6.687,0,0,1-.11,1.226,8.937,8.937,0,0,1-.255,1.057,5.01,5.01,0,0,1-.451.991c-.2.357-.373.644-.508.861a7.185,7.185,0,0,1-.64.835c-.291.339-.505.585-.645.737s-.374.4-.7.75l-3.784,3.978h6.953v2.713H851.583v-2.387l5.492-6.1q.663-.744.912-1.024t.659-.823a4.707,4.707,0,0,0,.555-.867,5.4,5.4,0,0,0,.266-.8,3.827,3.827,0,0,0,.124-.978,8.2,8.2,0,0,0-.091-1.043,3.906,3.906,0,0,0-.384-1.22,2.139,2.139,0,0,0-.651-.769,2.654,2.654,0,0,0-.824-.385,3.786,3.786,0,0,0-.983-.117,5,5,0,0,0-.758.059,6.406,6.406,0,0,0-.755.156c-.244.064-.489.139-.73.221s-.47.17-.679.261-.41.183-.607.275-.367.178-.515.261-.279.156-.391.221-.2.12-.261.163l-.091.052-1.109-2.6q.1-.078.294-.2t.828-.45a12.2,12.2,0,0,1,1.311-.574,11.356,11.356,0,0,1,1.7-.45A10.608,10.608,0,0,1,856.944,105.862Z" transform="translate(-835.905 -105.862)" fill="#d9d9d9"/>
                </g>
                <g id="Group_1012" data-name="Group 1012" transform="translate(5.634 292.908)">
                  <path id="Path_7673" data-name="Path 7673" d="M829.1,1035.266a6.29,6.29,0,0,1-3.874-1.188,6.883,6.883,0,0,1-2.348-3.28,14.521,14.521,0,0,1-.757-4.937,15.077,15.077,0,0,1,.5-3.972,10.849,10.849,0,0,1,1.447-3.247,6.863,6.863,0,0,1,2.42-2.211,6.736,6.736,0,0,1,3.3-.809,6.811,6.811,0,0,1,4.826,1.7l-1.1,2.464a5.873,5.873,0,0,0-3.7-1.33,3.462,3.462,0,0,0-2.948,1.7,7.949,7.949,0,0,0-1.265,4.253,4.393,4.393,0,0,1,3.783-1.983,6.018,6.018,0,0,1,4.507,1.715,6.335,6.335,0,0,1,1.676,4.624,6.45,6.45,0,0,1-1.774,4.677A6.238,6.238,0,0,1,829.1,1035.266Zm-.091-2.831a2.844,2.844,0,0,0,2.283-1.037,3.9,3.9,0,0,0,.874-2.6,4.263,4.263,0,0,0-.775-2.635,2.58,2.58,0,0,0-2.186-1.031,3.153,3.153,0,0,0-2.484,1.037,4.271,4.271,0,0,0-.633,4.188,3.219,3.219,0,0,0,.757,1.141,3.612,3.612,0,0,0,1.03.692A2.79,2.79,0,0,0,829,1032.435Z" transform="translate(-822.117 -1015.622)" fill="#d9d9d9"/>
                </g>
              </g>
              <g id="Group_1014" data-name="Group 1014" transform="translate(0 145.355)">
                <path id="Path_7674" data-name="Path 7674" d="M386.233,577.01a11.319,11.319,0,0,1-4.918-1.343l1.2-2.687a6.175,6.175,0,0,0,3.444,1.134,4.131,4.131,0,0,0,1.63-.32,4.02,4.02,0,0,0,1.37-.971,4.535,4.535,0,0,0,.965-1.768,8.6,8.6,0,0,0,.352-2.588v-.339a4.227,4.227,0,0,1-3.809,1.8,5.894,5.894,0,0,1-4.428-1.709,6.136,6.136,0,0,1-1.664-4.473,6.171,6.171,0,0,1,6.522-6.417,5.763,5.763,0,0,1,4.937,2.367q1.742,2.367,1.742,6.92a15.74,15.74,0,0,1-.848,5.386,8.1,8.1,0,0,1-2.523,3.671A6.172,6.172,0,0,1,386.233,577.01Zm.561-9.835a3.305,3.305,0,0,0,2.472-.965,3.826,3.826,0,0,0,.945-2.791,3.3,3.3,0,0,0-.867-2.315,2.976,2.976,0,0,0-2.3-.946,3.149,3.149,0,0,0-2.419.972,3.588,3.588,0,0,0-.907,2.55,3.874,3.874,0,0,0,.789,2.524A2.778,2.778,0,0,0,386.794,567.175Z" transform="translate(-380.376 -557.328)" fill="#d9d9d9"/>
              </g>
              <g id="Group_1015" data-name="Group 1015" transform="translate(288.604 145.511)">
                <path id="Path_7675" data-name="Path 7675" d="M1282.935,577.458a13.149,13.149,0,0,1-2.094-.164,9.76,9.76,0,0,1-1.675-.4,12.493,12.493,0,0,1-1.181-.477,4.8,4.8,0,0,1-.75-.41l-.236-.157,1-2.491a6.859,6.859,0,0,0,.685.371,10.851,10.851,0,0,0,1.591.568,7.388,7.388,0,0,0,2.093.325,4.045,4.045,0,0,0,2.7-.8,2.739,2.739,0,0,0,.939-2.2,2.409,2.409,0,0,0-1.272-2.224,7.073,7.073,0,0,0-3.528-.737h-.418l-.835.026-.026-2.8h.939a6.972,6.972,0,0,0,3.567-.665,2.6,2.6,0,0,0,1.038-2.374,1.8,1.8,0,0,0-.979-1.624,4.334,4.334,0,0,0-2.255-.581,6.46,6.46,0,0,0-1.176.1,5.075,5.075,0,0,0-1.016.294q-.457.188-.744.339t-.64.372c-.233.148-.378.24-.43.274l-1.473-2.387a12.116,12.116,0,0,1,2.706-1.422,10.254,10.254,0,0,1,3.214-.4,8.1,8.1,0,0,1,2.276.313,6.752,6.752,0,0,1,1.944.907,4.328,4.328,0,0,1,1.383,1.558,4.558,4.558,0,0,1,.515,2.178,5.266,5.266,0,0,1-.346,1.9,4.032,4.032,0,0,1-1.174,1.611,3.949,3.949,0,0,1-2.028.893,4.785,4.785,0,0,1,2.929,1.611,4.5,4.5,0,0,1,1.063,2.98,5.524,5.524,0,0,1-.515,2.394,5.123,5.123,0,0,1-1.382,1.8,6.437,6.437,0,0,1-2.009,1.1A7.369,7.369,0,0,1,1282.935,577.458Z" transform="translate(-1276.766 -557.814)" fill="#d9d9d9"/>
              </g>
              <g id="Group_1016" data-name="Group 1016" transform="translate(219.586 23.027)">
                <path id="Path_7676" data-name="Path 7676" d="M1062.843,196.376v-2.635h3.353V180.749a31.313,31.313,0,0,1-3.8,1.487v-3a23.97,23.97,0,0,0,4.174-1.852h2.936v16.409h3.417v2.582Z" transform="translate(-1062.399 -177.384)" fill="#d9d9d9"/>
              </g>
              <g id="Group_1017" data-name="Group 1017" transform="translate(265.025 68.121)">
                <path id="Path_7677" data-name="Path 7677" d="M1209.716,317.443a5.676,5.676,0,0,1,4.207,1.591,6.216,6.216,0,0,1,1.585,4.578,6.736,6.736,0,0,1-.111,1.226,8.893,8.893,0,0,1-.254,1.056,5.073,5.073,0,0,1-.45.991q-.306.535-.508.861a7.427,7.427,0,0,1-.64.835q-.437.508-.645.737t-.7.75l-3.783,3.979h6.953v2.713h-11.009v-2.387l5.491-6.1q.665-.743.913-1.024t.659-.822a4.79,4.79,0,0,0,.554-.867,5.533,5.533,0,0,0,.266-.8,3.821,3.821,0,0,0,.124-.978,8.224,8.224,0,0,0-.091-1.044,3.986,3.986,0,0,0-.385-1.22,2.141,2.141,0,0,0-.652-.769,2.627,2.627,0,0,0-.823-.385,3.794,3.794,0,0,0-.984-.117,5.044,5.044,0,0,0-.756.059,6.632,6.632,0,0,0-.756.156c-.243.065-.487.139-.731.221s-.469.17-.678.261-.411.182-.607.275-.367.178-.515.261-.279.157-.391.221-.2.12-.261.164l-.092.052-1.108-2.6c.07-.052.168-.119.294-.2s.4-.232.828-.45a12.108,12.108,0,0,1,1.311-.574,11.3,11.3,0,0,1,1.7-.449A10.572,10.572,0,0,1,1209.716,317.443Z" transform="translate(-1203.533 -317.443)" fill="#d9d9d9"/>
              </g>
              <g id="Group_1018" data-name="Group 1018" transform="translate(265.687 224.056)">
                <path id="Path_7678" data-name="Path 7678" d="M1213.637,820.761v-4.97h-8.048v-2.464l7.618-11.557h3.73V813.2h2.986v2.6H1217v4.97Zm-4.369-7.565h4.421v-7.227Q1213.4,806.427,1209.268,813.2Z" transform="translate(-1205.589 -801.769)" fill="#d9d9d9"/>
              </g>
              <g id="Group_1019" data-name="Group 1019" transform="translate(218.875 269.982)">
                <path id="Path_7679" data-name="Path 7679" d="M1066.2,963.705a8.36,8.36,0,0,1-6.013-2.609l1.735-2.479a6.472,6.472,0,0,0,2.022,1.677,4.753,4.753,0,0,0,2.191.58,3.5,3.5,0,0,0,2.478-.951,3.535,3.535,0,0,0,1.017-2.714,4.12,4.12,0,0,0-.685-2.393,2.119,2.119,0,0,0-1.832-1,2.472,2.472,0,0,0-2.178.847l-3.3-.444v-9.809h10.553v2.831h-7.63l-.157,4.866q.926-1.226,3.378-1.227a4.723,4.723,0,0,1,3.711,1.839,7.325,7.325,0,0,1,1.174,6.862,5.583,5.583,0,0,1-1.043,1.819,6.459,6.459,0,0,1-1.539,1.279,6.854,6.854,0,0,1-1.865.776A8.241,8.241,0,0,1,1066.2,963.705Z" transform="translate(-1060.191 -944.413)" fill="#d9d9d9"/>
              </g>
              <g id="Group_1020" data-name="Group 1020" transform="translate(66.146 269.981)">
                <path id="Path_7680" data-name="Path 7680" d="M588.013,963.4l7.187-16.279h-9.378v-2.713h13.213v2.53L591.561,963.4Z" transform="translate(-585.822 -944.411)" fill="#d9d9d9"/>
              </g>
              <g id="Group_1021" data-name="Group 1021" transform="translate(21.761 224.052)">
                <path id="Path_7681" data-name="Path 7681" d="M454.488,821.4a8.364,8.364,0,0,1-3.326-.626,5.309,5.309,0,0,1-2.328-1.878,5.044,5.044,0,0,1-.867-2.946,4.875,4.875,0,0,1,.854-2.824,6.008,6.008,0,0,1,2.367-1.99,4.887,4.887,0,0,1-2.843-4.369,4.431,4.431,0,0,1,1.689-3.666,7.872,7.872,0,0,1,8.844.033,4.669,4.669,0,0,1,1.637,3.776,4.489,4.489,0,0,1-2.8,4.265A5.96,5.96,0,0,1,460,813.2a4.984,4.984,0,0,1,.907,2.85,4.774,4.774,0,0,1-.913,2.908,5.5,5.5,0,0,1-2.354,1.84A8.127,8.127,0,0,1,454.488,821.4Zm-.052-2.894a3.466,3.466,0,0,0,2.289-.692,2.582,2.582,0,0,0,.828-2.1,3.084,3.084,0,0,0-.88-2.087,2.561,2.561,0,0,0-4.441-.064,3.1,3.1,0,0,0-.887,2.2,2.529,2.529,0,0,0,.828,2.029A3.363,3.363,0,0,0,454.435,818.507Zm-.013-8.6a4.264,4.264,0,0,0,2.009-1.167,2.76,2.76,0,0,0,.717-1.923,1.854,1.854,0,0,0-.783-1.572,3.193,3.193,0,0,0-1.957-.581,3.121,3.121,0,0,0-2,.581,2.072,2.072,0,0,0-.731,1.729,2.582,2.582,0,0,0,.723,1.826A4.146,4.146,0,0,0,454.423,809.91Z" transform="translate(-447.966 -801.759)" fill="#d9d9d9"/>
              </g>
              <g id="Group_1022" data-name="Group 1022" transform="translate(9.979 68.973)">
                <path id="Path_7682" data-name="Path 7682" d="M411.814,340.175v-2.634h3.352V324.549a31.15,31.15,0,0,1-3.8,1.487v-3a24,24,0,0,0,4.174-1.852h2.935v16.409H421.9v2.582Z" transform="translate(-411.371 -320.831)" fill="#d9d9d9"/>
                <path id="Path_7683" data-name="Path 7683" d="M464.112,339.733a5.551,5.551,0,0,1-4.924-2.707,13.2,13.2,0,0,1-1.755-7.259,12.589,12.589,0,0,1,1.729-7.141,5.656,5.656,0,0,1,4.976-2.537,5.571,5.571,0,0,1,4.924,2.6,12.645,12.645,0,0,1,1.728,7.083,16.455,16.455,0,0,1-.743,5.211,7.5,7.5,0,0,1-2.263,3.49A5.548,5.548,0,0,1,464.112,339.733Zm.052-2.831q3.248,0,3.248-7.122a17.974,17.974,0,0,0-.17-2.556,11.107,11.107,0,0,0-.529-2.172,3.69,3.69,0,0,0-1-1.565,2.243,2.243,0,0,0-1.533-.568,2.42,2.42,0,0,0-1.6.568,3.6,3.6,0,0,0-1.044,1.565,10.807,10.807,0,0,0-.534,2.172,18,18,0,0,0-.17,2.569,21.278,21.278,0,0,0,.17,2.857,10.231,10.231,0,0,0,.541,2.223,3.369,3.369,0,0,0,1.037,1.507A2.5,2.5,0,0,0,464.164,336.9Z" transform="translate(-442.603 -320.089)" fill="#d9d9d9"/>
              </g>
              <g id="Group_1023" data-name="Group 1023" transform="translate(62.543 21.487)">
                <path id="Path_7684" data-name="Path 7684" d="M575.077,191.593v-2.635h3.352V175.966a31.21,31.21,0,0,1-3.8,1.487v-3a23.892,23.892,0,0,0,4.174-1.852h2.935V189.01h3.418v2.582Z" transform="translate(-574.633 -172.601)" fill="#d9d9d9"/>
                <path id="Path_7685" data-name="Path 7685" d="M626.609,191.593v-2.635h3.352V175.966a31.189,31.189,0,0,1-3.8,1.487v-3a23.906,23.906,0,0,0,4.174-1.852h2.935V189.01h3.417v2.582Z" transform="translate(-609.574 -172.601)" fill="#d9d9d9"/>
              </g>
            </g>
            <path id="Path_7686" data-name="Path 7686" d="M821.81,573.216a7.838,7.838,0,1,1,7.838,7.838A7.838,7.838,0,0,1,821.81,573.216Z" transform="translate(-679.685 -417.431)" fill="#d9d9d9"/>
            <path id="Path_7687" data-name="Path 7687" d="M837.256,428.373h0a4.226,4.226,0,0,1-4.226-4.225V325.256h8.451v98.892A4.226,4.226,0,0,1,837.256,428.373Z" transform="translate(-687.292 -254.619)" fill="#d9d9d9"/>
            <path id="Path_7688" data-name="Path 7688" d="M773.862,484.551h0a1.8,1.8,0,0,1,.4-2.52l99.023-71.994,2.121,2.918-99.023,71.994A1.8,1.8,0,0,1,773.862,484.551Z" transform="translate(-646.94 -312.104)" fill="#d9d9d9"/>
            <path id="Path_7689" data-name="Path 7689" d="M740.983,517.429h0a1.8,1.8,0,0,0-2.52.4l-71.995,99.023,2.918,2.122,71.994-99.023A1.8,1.8,0,0,0,740.983,517.429Z" transform="translate(-574.358 -384.686)" fill="#d9d9d9"/>
            <path id="Path_7690" data-name="Path 7690" d="M828.941,578.05a5.542,5.542,0,1,1,5.542,5.542A5.542,5.542,0,0,1,828.941,578.05Z" transform="translate(-684.52 -422.266)" fill="#d9d9d9"/>
          </g>
          <g id="Group_1047" data-name="Group 1047" transform="translate(376.002 100.345)">
            <g id="Group_1046" data-name="Group 1046" transform="translate(0)">
              <g id="Group_1032" data-name="Group 1032" transform="translate(22.357 27.91)">
                <g id="Group_1026" data-name="Group 1026" transform="translate(120.13)">
                  <rect id="Rectangle_923" data-name="Rectangle 923" width="1.123" height="13.119"/>
                  <rect id="Rectangle_924" data-name="Rectangle 924" width="1.123" height="13.119" transform="translate(0 228.263)"/>
                </g>
                <g id="Group_1027" data-name="Group 1027" transform="translate(59.859 15.889)">
                  <rect id="Rectangle_925" data-name="Rectangle 925" width="1.123" height="13.119" transform="translate(0 0.562) rotate(-30.002)"/>
                  <rect id="Rectangle_926" data-name="Rectangle 926" width="1.123" height="13.119" transform="translate(114.132 198.243) rotate(-29.999)"/>
                </g>
                <g id="Group_1028" data-name="Group 1028" transform="translate(15.889 59.859)">
                  <rect id="Rectangle_927" data-name="Rectangle 927" width="1.123" height="13.119" transform="translate(0 0.973) rotate(-60.001)"/>
                  <rect id="Rectangle_928" data-name="Rectangle 928" width="1.123" height="13.119" transform="translate(197.682 115.104) rotate(-59.999)"/>
                </g>
                <g id="Group_1029" data-name="Group 1029" transform="translate(0 120.129)">
                  <rect id="Rectangle_929" data-name="Rectangle 929" width="1.123" height="13.119" transform="translate(0 1.123) rotate(-90)"/>
                  <rect id="Rectangle_930" data-name="Rectangle 930" width="1.123" height="13.119" transform="translate(228.263 1.123) rotate(-90)"/>
                </g>
                <g id="Group_1030" data-name="Group 1030" transform="translate(15.889 59.859)">
                  <rect id="Rectangle_931" data-name="Rectangle 931" width="1.123" height="13.119" transform="translate(0.562 121.664) rotate(-120.002)"/>
                  <rect id="Rectangle_932" data-name="Rectangle 932" width="1.123" height="13.119" transform="matrix(-0.5, -0.866, 0.866, -0.5, 198.243, 7.532)"/>
                </g>
                <g id="Group_1031" data-name="Group 1031" transform="translate(59.859 15.889)">
                  <rect id="Rectangle_933" data-name="Rectangle 933" width="1.123" height="13.119" transform="translate(0.973 209.605) rotate(-149.999)"/>
                  <rect id="Rectangle_934" data-name="Rectangle 934" width="1.123" height="13.119" transform="matrix(-0.866, -0.5, 0.5, -0.866, 115.105, 11.923)"/>
                </g>
              </g>
              <g id="Group_1035" data-name="Group 1035" transform="translate(130.292)">
                <g id="Group_1033" data-name="Group 1033">
                  <path id="Path_7691" data-name="Path 7691" d="M781.1,119.427v-2.514h3.2V104.521a29.687,29.687,0,0,1-3.62,1.418v-2.862a22.8,22.8,0,0,0,3.981-1.767h2.8v15.652h3.259v2.464Z" transform="translate(-780.682 -101)"/>
                  <path id="Path_7692" data-name="Path 7692" d="M830.6,100.345a5.414,5.414,0,0,1,4.013,1.518,5.925,5.925,0,0,1,1.511,4.367,6.4,6.4,0,0,1-.1,1.17,8.455,8.455,0,0,1-.243,1.008,4.762,4.762,0,0,1-.43.946c-.194.341-.356.614-.484.821a6.933,6.933,0,0,1-.61.8c-.278.324-.482.558-.616.7s-.356.384-.671.716l-3.61,3.795h6.633v2.588h-10.5V116.5l5.239-5.823q.633-.709.87-.976t.629-.785a4.492,4.492,0,0,0,.529-.827,5.1,5.1,0,0,0,.254-.759,3.655,3.655,0,0,0,.118-.933,7.833,7.833,0,0,0-.087-1,3.731,3.731,0,0,0-.367-1.164,2.042,2.042,0,0,0-.621-.733,2.532,2.532,0,0,0-.786-.367,3.609,3.609,0,0,0-.938-.112,4.786,4.786,0,0,0-.723.056,6.107,6.107,0,0,0-.721.149c-.233.061-.466.132-.7.211s-.448.163-.647.249-.392.174-.579.262-.351.17-.491.249-.266.149-.373.211-.191.115-.249.156l-.087.05-1.058-2.476c.066-.05.16-.114.28-.193s.383-.221.79-.429a11.625,11.625,0,0,1,1.251-.548,10.85,10.85,0,0,1,1.622-.429A10.134,10.134,0,0,1,830.6,100.345Z" transform="translate(-810.527 -100.345)"/>
                </g>
                <g id="Group_1034" data-name="Group 1034" transform="translate(5.374 279.403)">
                  <path id="Path_7693" data-name="Path 7693" d="M804.031,986.9a6,6,0,0,1-3.7-1.133,6.563,6.563,0,0,1-2.24-3.129,13.855,13.855,0,0,1-.722-4.71,14.392,14.392,0,0,1,.479-3.789,10.352,10.352,0,0,1,1.381-3.1,6.54,6.54,0,0,1,2.308-2.109,6.424,6.424,0,0,1,3.148-.771,6.5,6.5,0,0,1,4.6,1.618l-1.045,2.351a5.6,5.6,0,0,0-3.534-1.269,3.3,3.3,0,0,0-2.812,1.618,7.584,7.584,0,0,0-1.207,4.056,4.191,4.191,0,0,1,3.608-1.891,5.742,5.742,0,0,1,4.3,1.636,6.042,6.042,0,0,1,1.6,4.411,6.152,6.152,0,0,1-1.692,4.461A5.949,5.949,0,0,1,804.031,986.9Zm-.087-2.7a2.714,2.714,0,0,0,2.177-.989,3.723,3.723,0,0,0,.834-2.482,4.067,4.067,0,0,0-.74-2.513,2.46,2.46,0,0,0-2.084-.984,3.009,3.009,0,0,0-2.37.989,4.076,4.076,0,0,0-.6,3.995,3.074,3.074,0,0,0,.722,1.089,3.435,3.435,0,0,0,.983.66A2.661,2.661,0,0,0,803.943,984.2Z" transform="translate(-797.374 -968.158)"/>
                </g>
              </g>
              <g id="Group_1036" data-name="Group 1036" transform="translate(0 138.653)">
                <path id="Path_7694" data-name="Path 7694" d="M381.589,549.769a10.8,10.8,0,0,1-4.691-1.281l1.145-2.563a5.889,5.889,0,0,0,3.285,1.082,3.936,3.936,0,0,0,1.555-.306,3.834,3.834,0,0,0,1.306-.926,4.328,4.328,0,0,0,.921-1.687,8.2,8.2,0,0,0,.336-2.469V541.3a4.033,4.033,0,0,1-3.633,1.717,5.623,5.623,0,0,1-4.224-1.63A5.855,5.855,0,0,1,376,537.115a5.887,5.887,0,0,1,6.221-6.121,5.5,5.5,0,0,1,4.709,2.258q1.662,2.257,1.661,6.6a15.014,15.014,0,0,1-.809,5.138,7.727,7.727,0,0,1-2.407,3.5A5.885,5.885,0,0,1,381.589,549.769Zm.535-9.381a3.154,3.154,0,0,0,2.358-.92,3.649,3.649,0,0,0,.9-2.663,3.147,3.147,0,0,0-.827-2.208,2.839,2.839,0,0,0-2.2-.9,3,3,0,0,0-2.308.927,3.421,3.421,0,0,0-.865,2.432,3.7,3.7,0,0,0,.752,2.407A2.65,2.65,0,0,0,382.123,540.387Z" transform="translate(-376.002 -530.994)"/>
              </g>
              <g id="Group_1037" data-name="Group 1037" transform="translate(275.296 138.802)">
                <path id="Path_7695" data-name="Path 7695" d="M1236.944,550.2a12.566,12.566,0,0,1-2-.156,9.336,9.336,0,0,1-1.6-.38,11.863,11.863,0,0,1-1.126-.455,4.585,4.585,0,0,1-.715-.392l-.225-.149.959-2.376a6.243,6.243,0,0,0,.654.354,10.291,10.291,0,0,0,1.518.543,7.063,7.063,0,0,0,2,.31,3.86,3.86,0,0,0,2.576-.765,2.613,2.613,0,0,0,.9-2.1,2.3,2.3,0,0,0-1.213-2.122,6.753,6.753,0,0,0-3.366-.7h-.4l-.8.025-.025-2.675h.9a6.65,6.65,0,0,0,3.4-.635,2.479,2.479,0,0,0,.99-2.265,1.719,1.719,0,0,0-.934-1.549,4.137,4.137,0,0,0-2.152-.554,6.165,6.165,0,0,0-1.121.1,4.869,4.869,0,0,0-.969.281q-.436.18-.71.324c-.182.095-.385.213-.61.354l-.41.261-1.405-2.277a11.559,11.559,0,0,1,2.581-1.356,9.784,9.784,0,0,1,3.066-.386,7.726,7.726,0,0,1,2.172.3,6.45,6.45,0,0,1,1.854.865,4.133,4.133,0,0,1,1.319,1.487,4.343,4.343,0,0,1,.491,2.078,5.02,5.02,0,0,1-.33,1.817,3.846,3.846,0,0,1-1.119,1.537,3.771,3.771,0,0,1-1.935.852,4.562,4.562,0,0,1,2.794,1.537,4.294,4.294,0,0,1,1.014,2.843,5.282,5.282,0,0,1-.491,2.284,4.893,4.893,0,0,1-1.319,1.717,6.145,6.145,0,0,1-1.916,1.052A7.044,7.044,0,0,1,1236.944,550.2Z" transform="translate(-1231.06 -531.458)"/>
              </g>
              <g id="Group_1038" data-name="Group 1038" transform="translate(209.46 21.966)">
                <path id="Path_7696" data-name="Path 7696" d="M1027,186.686v-2.513h3.2V171.78a29.819,29.819,0,0,1-3.622,1.419v-2.862a22.846,22.846,0,0,0,3.982-1.767h2.8v15.652h3.259v2.463Z" transform="translate(-1026.577 -168.57)"/>
              </g>
              <g id="Group_1039" data-name="Group 1039" transform="translate(252.806 64.98)">
                <path id="Path_7697" data-name="Path 7697" d="M1167.1,302.17a5.413,5.413,0,0,1,4.013,1.518,5.928,5.928,0,0,1,1.511,4.367,6.394,6.394,0,0,1-.106,1.17,8.472,8.472,0,0,1-.242,1.008,4.875,4.875,0,0,1-.429.946q-.293.511-.485.821a7.009,7.009,0,0,1-.61.8q-.416.485-.615.7t-.672.716l-3.608,3.795h6.632V320.6h-10.5V318.32l5.238-5.823q.635-.709.871-.977t.629-.785a4.545,4.545,0,0,0,.529-.827,5.239,5.239,0,0,0,.254-.759,3.662,3.662,0,0,0,.118-.933,7.873,7.873,0,0,0-.086-1,3.808,3.808,0,0,0-.367-1.164,2.043,2.043,0,0,0-.622-.733,2.5,2.5,0,0,0-.784-.367,3.619,3.619,0,0,0-.939-.112,4.824,4.824,0,0,0-.721.056,6.326,6.326,0,0,0-.722.149c-.232.062-.465.132-.7.211s-.448.163-.647.249-.392.174-.579.262-.35.17-.491.249-.266.149-.373.211-.192.115-.249.156l-.088.049-1.057-2.476c.067-.05.16-.114.28-.193s.384-.221.79-.429a11.513,11.513,0,0,1,1.251-.548,10.856,10.856,0,0,1,1.623-.429A10.1,10.1,0,0,1,1167.1,302.17Z" transform="translate(-1161.205 -302.17)"/>
              </g>
              <g id="Group_1040" data-name="Group 1040" transform="translate(253.437 213.725)">
                <path id="Path_7698" data-name="Path 7698" d="M1170.842,782.281V777.54h-7.677V775.19l7.267-11.025h3.559v10.9h2.849v2.475h-2.787v4.741Zm-4.167-7.216h4.217v-6.894Q1170.618,768.608,1166.675,775.065Z" transform="translate(-1163.165 -764.165)"/>
              </g>
              <g id="Group_1041" data-name="Group 1041" transform="translate(208.783 257.533)">
                <path id="Path_7699" data-name="Path 7699" d="M1030.207,918.635a7.973,7.973,0,0,1-5.735-2.489l1.654-2.365a6.169,6.169,0,0,0,1.929,1.6,4.531,4.531,0,0,0,2.09.553,3.332,3.332,0,0,0,2.364-.908,3.371,3.371,0,0,0,.97-2.588,3.931,3.931,0,0,0-.653-2.283,2.021,2.021,0,0,0-1.747-.952,2.358,2.358,0,0,0-2.078.808l-3.149-.423v-9.356h10.066v2.7h-7.279l-.149,4.641a3.813,3.813,0,0,1,3.222-1.17,4.5,4.5,0,0,1,3.54,1.754,6.982,6.982,0,0,1,1.119,6.545,5.317,5.317,0,0,1-.995,1.735,6.146,6.146,0,0,1-1.468,1.22,6.53,6.53,0,0,1-1.779.74A7.88,7.88,0,0,1,1030.207,918.635Z" transform="translate(-1024.472 -900.232)"/>
              </g>
              <g id="Group_1042" data-name="Group 1042" transform="translate(63.096 257.533)">
                <path id="Path_7700" data-name="Path 7700" d="M574.065,918.346l6.856-15.528h-8.946V900.23h12.6v2.414l-7.13,15.7Z" transform="translate(-571.975 -900.23)"/>
              </g>
              <g id="Group_1043" data-name="Group 1043" transform="translate(20.758 213.722)">
                <path id="Path_7701" data-name="Path 7701" d="M446.7,782.891a7.979,7.979,0,0,1-3.173-.6A5.066,5.066,0,0,1,441.3,780.5a4.812,4.812,0,0,1-.827-2.811A4.649,4.649,0,0,1,441.29,775a5.726,5.726,0,0,1,2.258-1.9,4.663,4.663,0,0,1-2.712-4.167,4.228,4.228,0,0,1,1.611-3.5,7.51,7.51,0,0,1,8.436.032,4.454,4.454,0,0,1,1.562,3.6,4.282,4.282,0,0,1-2.675,4.068,5.686,5.686,0,0,1,2.183,1.936,4.755,4.755,0,0,1,.865,2.719,4.555,4.555,0,0,1-.871,2.774,5.242,5.242,0,0,1-2.246,1.755A7.754,7.754,0,0,1,446.7,782.891Zm-.05-2.761a3.308,3.308,0,0,0,2.184-.66,2.462,2.462,0,0,0,.79-2,2.939,2.939,0,0,0-.84-1.991,2.443,2.443,0,0,0-4.237-.062,2.961,2.961,0,0,0-.846,2.1,2.412,2.412,0,0,0,.79,1.936A3.209,3.209,0,0,0,446.646,780.131Zm-.013-8.2a4.07,4.07,0,0,0,1.916-1.113,2.633,2.633,0,0,0,.684-1.835,1.77,1.77,0,0,0-.746-1.5,3.047,3.047,0,0,0-1.866-.554,2.978,2.978,0,0,0-1.9.554,1.977,1.977,0,0,0-.7,1.649,2.461,2.461,0,0,0,.69,1.742A3.952,3.952,0,0,0,446.634,771.931Z" transform="translate(-440.475 -764.155)"/>
              </g>
              <g id="Group_1044" data-name="Group 1044" transform="translate(9.519 65.793)">
                <path id="Path_7702" data-name="Path 7702" d="M405.99,323.855v-2.513h3.2V308.949a29.742,29.742,0,0,1-3.62,1.419v-2.862a22.867,22.867,0,0,0,3.982-1.767h2.8v15.653h3.26v2.463Z" transform="translate(-405.567 -305.403)"/>
                <path id="Path_7703" data-name="Path 7703" d="M455.877,323.433a5.294,5.294,0,0,1-4.7-2.582,12.585,12.585,0,0,1-1.674-6.924,12.007,12.007,0,0,1,1.649-6.812,5.393,5.393,0,0,1,4.746-2.42,5.314,5.314,0,0,1,4.7,2.476,12.06,12.06,0,0,1,1.648,6.756,15.689,15.689,0,0,1-.709,4.971,7.154,7.154,0,0,1-2.159,3.328A5.293,5.293,0,0,1,455.877,323.433Zm.05-2.7q3.1,0,3.1-6.793a17.143,17.143,0,0,0-.162-2.439,10.626,10.626,0,0,0-.5-2.072,3.522,3.522,0,0,0-.958-1.493,2.139,2.139,0,0,0-1.462-.542,2.308,2.308,0,0,0-1.531.542,3.433,3.433,0,0,0-1,1.493,10.31,10.31,0,0,0-.51,2.072,17.148,17.148,0,0,0-.162,2.451,20.271,20.271,0,0,0,.162,2.725,9.754,9.754,0,0,0,.516,2.121,3.217,3.217,0,0,0,.989,1.438A2.388,2.388,0,0,0,455.927,320.733Z" transform="translate(-435.359 -304.695)"/>
              </g>
              <g id="Group_1045" data-name="Group 1045" transform="translate(59.66 20.497)">
                <path id="Path_7704" data-name="Path 7704" d="M561.725,182.123V179.61h3.2V167.217a29.772,29.772,0,0,1-3.621,1.418v-2.862a22.8,22.8,0,0,0,3.981-1.767h2.8V179.66h3.26v2.464Z" transform="translate(-561.302 -164.007)"/>
                <path id="Path_7705" data-name="Path 7705" d="M610.882,182.123V179.61h3.2V167.217a29.752,29.752,0,0,1-3.62,1.418v-2.862a22.8,22.8,0,0,0,3.982-1.767h2.8V179.66h3.26v2.464Z" transform="translate(-594.632 -164.007)"/>
              </g>
            </g>
            <path id="Path_7706" data-name="Path 7706" d="M797.083,546.15a7.476,7.476,0,1,1,7.476,7.477A7.476,7.476,0,0,1,797.083,546.15Z" transform="translate(-661.511 -397.549)" fill="url(#radial-gradient)"/>
            <path id="Path_7707" data-name="Path 7707" d="M811.816,407.986h0a4.031,4.031,0,0,1-4.031-4.031V309.624h8.061v94.332A4.031,4.031,0,0,1,811.816,407.986Z" transform="translate(-668.767 -242.244)"/>
            <path id="Path_7708" data-name="Path 7708" d="M751.345,461.573h0a1.721,1.721,0,0,1,.38-2.4l94.458-68.675,2.024,2.783-94.457,68.675A1.72,1.72,0,0,1,751.345,461.573Z" transform="translate(-630.275 -297.078)"/>
            <path id="Path_7709" data-name="Path 7709" d="M719.982,492.936h0a1.721,1.721,0,0,0-2.4.38L648.9,587.773l2.783,2.024,68.675-94.457A1.72,1.72,0,0,0,719.982,492.936Z" transform="translate(-561.04 -366.313)" fill="#ff2323"/>
            <path id="Path_7710" data-name="Path 7710" d="M803.884,550.761a5.287,5.287,0,1,1,5.287,5.287A5.287,5.287,0,0,1,803.884,550.761Z" transform="translate(-666.122 -402.16)" fill="url(#linear-gradient)"/>
          </g>
        </g>
        <rect id="Rectangle_904" data-name="Rectangle 904" width="253.629" height="154.5" rx="7.66" transform="translate(380 230)" fill="#fff3f3"/>
        <g id="image_1_" data-name="image (1)" transform="translate(487 272.884)">
          <path id="Path_7711" data-name="Path 7711" d="M10.369,165.91a6.212,6.212,0,0,1-5.877-4.233l-.058-.191a6.056,6.056,0,0,1-.287-1.8V148.375L.122,161.811a3.768,3.768,0,0,0,2.641,4.571l25.656,6.871a3.806,3.806,0,0,0,.956.123,3.7,3.7,0,0,0,3.586-2.713l1.495-4.753Zm0,0" transform="translate(0 -136.381)" fill="#db8a8a"/>
          <path id="Path_7712" data-name="Path 7712" d="M152.639,71.129a3.319,3.319,0,1,0-3.319-3.319A3.322,3.322,0,0,0,152.639,71.129Zm0,0" transform="translate(-137.707 -59.022)" fill="#db8a8a"/>
          <path id="Path_7713" data-name="Path 7713" d="M114.356.492H89.468A4.154,4.154,0,0,0,85.32,4.64V22.891a4.154,4.154,0,0,0,4.148,4.148h24.888a4.154,4.154,0,0,0,4.148-4.148V4.64A4.154,4.154,0,0,0,114.356.492ZM89.468,3.811h24.888a.83.83,0,0,1,.83.83V16.419L109.944,10.3a2.972,2.972,0,0,0-2.225-1.02A2.9,2.9,0,0,0,105.5,10.33l-6.162,7.4-2.008-2a2.912,2.912,0,0,0-4.115,0L88.639,20.3V4.64A.83.83,0,0,1,89.468,3.811Zm0,0" transform="translate(-78.684 0)" fill="#db8a8a"/>
        </g>
        <g id="Ellipse_228" data-name="Ellipse 228" transform="translate(464 350)" fill="#fff" stroke="#fff3f3" stroke-width="2">
          <circle cx="41.5" cy="41.5" r="41.5" stroke="none"/>
          <circle cx="41.5" cy="41.5" r="40.5" fill="none"/>
        </g>
        <rect id="Rectangle_935" data-name="Rectangle 935" width="102" height="20" rx="10" transform="translate(454 456)" fill="#e8e8ec"/>
        <rect id="Rectangle_938" data-name="Rectangle 938" width="150" height="50" rx="10" transform="translate(430 544)" fill="#db8a8a"/>
        <rect id="Rectangle_936" data-name="Rectangle 936" width="182" height="5" rx="2.5" transform="translate(414 499)" fill="#e8e8ec"/>
        <rect id="Rectangle_937" data-name="Rectangle 937" width="100" height="5" rx="2.5" transform="translate(455 509)" fill="#e8e8ec"/>
        <text id="Book" transform="translate(474 577)" fill="#fff" font-size="26" font-family="Campton-SemiBold, Campton" font-weight="600"><tspan x="0" y="0">Book</tspan></text>
      </g>
    </g>
  </g>
</svg>
